<svg xmlns="http://www.w3.org/2000/svg" viewBox="0 0 45 20"><defs><style>.cls-1{fill:#fff;}.cls-2{fill:#3aaaec;}</style></defs><title>Activeicon</title><g id="Layer_1" data-name="Layer 1"><path class="cls-1" d="M12.5,35a9.5,9.5,0,0,1,0-19h25a9.5,9.5,0,0,1,0,19Z" transform="translate(-2.5 -15.5)"/><path class="cls-2" d="M37.5,16.5a9,9,0,0,1,0,18h-25a9,9,0,0,1,0-18h25m0-1h-25a10,10,0,0,0-10,10h0a10,10,0,0,0,10,10h25a10,10,0,0,0,10-10h0a10,10,0,0,0-10-10Z" transform="translate(-2.5 -15.5)"/></g><g id="Layer_2" data-name="Layer 2"><circle class="cls-2" cx="34" cy="10" r="8"/></g></svg>