<svg xmlns="http://www.w3.org/2000/svg" xmlns:xlink="http://www.w3.org/1999/xlink" preserveAspectRatio="xMidYMid" width="13" height="15" viewBox="0 0 13 15">
  <defs>
    <style>
      .cls-1 {
        fill: #87a70c;
        filter: url(#color-overlay-1);
        fill-rule: evenodd;
      }
    </style>

    <filter id="color-overlay-1" filterUnits="userSpaceOnUse">
      <feFlood flood-color="#176db6"/>
      <feComposite operator="in" in2="SourceGraphic"/>
      <feBlend in2="SourceGraphic" result="solidFill"/>
    </filter>
  </defs>
  <path d="M12.882,7.246 C12.872,7.310 12.856,7.375 12.840,7.442 C12.742,7.846 12.595,8.250 12.405,8.636 C11.742,10.097 10.300,12.345 7.185,14.767 C6.992,14.917 6.750,15.000 6.499,15.000 C6.250,15.000 6.005,14.917 5.812,14.767 C2.694,12.345 1.253,10.097 0.592,8.636 C0.403,8.250 0.256,7.849 0.158,7.436 C0.131,7.328 0.118,7.261 0.115,7.237 C-0.003,6.667 -0.029,6.079 0.030,5.497 C0.341,2.472 3.021,0.107 6.267,0.003 C9.950,-0.119 13.000,2.658 13.000,6.091 C13.000,6.477 12.961,6.866 12.882,7.246 ZM6.502,1.051 C6.437,1.051 6.374,1.051 6.309,1.054 C3.622,1.143 1.406,3.096 1.148,5.598 C1.099,6.082 1.122,6.572 1.220,7.047 C1.220,7.053 1.223,7.062 1.223,7.068 C1.226,7.084 1.236,7.126 1.253,7.197 C1.334,7.546 1.458,7.880 1.615,8.201 C1.619,8.207 1.619,8.211 1.622,8.217 C2.230,9.564 3.570,11.650 6.499,13.934 C9.427,11.653 10.767,9.567 11.375,8.217 C11.375,8.211 11.379,8.207 11.382,8.201 C11.539,7.883 11.663,7.546 11.745,7.203 C11.768,7.117 11.774,7.071 11.778,7.062 C11.778,7.059 11.781,7.053 11.781,7.047 C11.846,6.731 11.879,6.410 11.882,6.091 C11.882,3.311 9.467,1.051 6.502,1.051 ZM6.499,9.383 C4.600,9.383 3.050,7.938 3.050,6.156 C3.050,4.373 4.600,2.925 6.499,2.925 C8.398,2.925 9.947,4.370 9.947,6.153 C9.947,7.935 8.398,9.383 6.499,9.383 ZM6.499,3.972 C5.214,3.972 4.171,4.952 4.171,6.153 C4.171,7.356 5.217,8.333 6.499,8.333 C7.780,8.333 8.826,7.356 8.826,6.153 C8.826,4.949 7.780,3.972 6.499,3.972 Z" class="cls-1"/>
</svg>
