<svg xmlns="http://www.w3.org/2000/svg" xmlns:xlink="http://www.w3.org/1999/xlink" preserveAspectRatio="xMidYMid" width="15" height="14" viewBox="0 0 15 14">
  <defs>
    <style>
      .cls-1 {
        fill: #000;
        filter: url(#color-overlay-1);
        fill-rule: evenodd;
      }
    </style>

    <filter id="color-overlay-1" filterUnits="userSpaceOnUse">
      <feFlood flood-color="#176db6"/>
      <feComposite operator="in" in2="SourceGraphic"/>
      <feBlend in2="SourceGraphic" result="solidFill"/>
    </filter>
  </defs>
  <path d="M14.693,5.473 L14.663,5.473 L14.663,6.132 C14.663,6.298 14.526,6.431 14.357,6.431 L13.653,6.431 L13.653,7.149 C13.653,7.315 13.516,7.449 13.347,7.449 L13.285,7.449 L13.285,10.468 L13.347,10.468 C13.516,10.468 13.653,10.602 13.653,10.767 L13.653,11.485 C13.766,11.485 13.870,11.546 13.923,11.644 L14.964,13.560 C15.014,13.653 15.011,13.765 14.956,13.855 C14.900,13.945 14.801,14.000 14.693,14.000 L0.306,14.000 C0.199,14.000 0.099,13.945 0.044,13.855 C-0.011,13.765 -0.014,13.653 0.036,13.560 C0.036,13.560 0.558,12.600 0.561,12.593 L1.077,11.644 C1.130,11.546 1.234,11.485 1.347,11.485 L1.348,11.485 L1.348,10.767 C1.348,10.602 1.485,10.468 1.654,10.468 L1.715,10.468 L1.715,7.449 L1.654,7.449 C1.485,7.449 1.348,7.315 1.348,7.149 L1.348,6.431 L0.643,6.431 C0.474,6.431 0.337,6.298 0.337,6.132 L0.337,5.473 L0.306,5.473 C0.173,5.473 0.054,5.388 0.014,5.264 C-0.026,5.139 0.022,5.003 0.132,4.928 L7.325,0.053 C7.430,-0.018 7.569,-0.018 7.674,0.053 L14.868,4.928 C14.978,5.003 15.026,5.139 14.986,5.264 C14.946,5.388 14.827,5.473 14.693,5.473 ZM1.654,12.084 L1.531,12.084 L1.336,12.444 L10.454,12.444 C10.623,12.444 10.761,12.578 10.761,12.743 C10.761,12.909 10.623,13.043 10.454,13.043 L1.010,13.043 L0.815,13.401 L14.184,13.401 L13.469,12.084 L13.347,12.084 L11.449,12.084 L8.449,12.084 L6.551,12.084 L3.552,12.084 L1.654,12.084 ZM12.979,6.850 L13.040,6.850 L13.040,6.431 L11.755,6.431 L11.755,6.850 L11.816,6.850 L12.979,6.850 ZM12.122,7.449 L12.122,10.468 L12.673,10.468 L12.673,7.449 L12.122,7.449 ZM12.979,11.067 L11.816,11.067 L11.755,11.067 L11.755,11.485 L13.040,11.485 L13.040,11.067 L12.979,11.067 ZM8.449,7.449 L8.388,7.449 L8.388,10.468 L8.449,10.468 C8.618,10.468 8.755,10.602 8.755,10.767 L8.755,11.485 L11.143,11.485 L11.143,10.767 C11.143,10.602 11.280,10.468 11.449,10.468 L11.510,10.468 L11.510,7.449 L11.449,7.449 C11.280,7.449 11.143,7.315 11.143,7.149 L11.143,6.431 L8.755,6.431 L8.755,7.149 C8.755,7.315 8.618,7.449 8.449,7.449 ZM8.082,6.850 L8.143,6.850 L8.143,6.431 L6.857,6.431 L6.857,6.850 L6.918,6.850 L8.082,6.850 ZM7.224,7.449 L7.224,10.468 L7.775,10.468 L7.775,7.449 L7.224,7.449 ZM8.082,11.067 L6.918,11.067 L6.857,11.067 L6.857,11.485 L8.143,11.485 L8.143,11.067 L8.082,11.067 ZM3.552,7.449 L3.491,7.449 L3.491,10.468 L3.552,10.468 C3.721,10.468 3.858,10.602 3.858,10.767 L3.858,11.485 L6.245,11.485 L6.245,10.767 C6.245,10.602 6.382,10.468 6.551,10.468 L6.612,10.468 L6.612,7.449 L6.551,7.449 C6.382,7.449 6.245,7.315 6.245,7.149 L6.245,6.431 L3.858,6.431 L3.858,7.149 C3.858,7.315 3.721,7.449 3.552,7.449 ZM3.184,6.850 L3.246,6.850 L3.246,6.431 L1.960,6.431 L1.960,6.850 L2.021,6.850 L3.184,6.850 ZM2.327,7.449 L2.327,10.468 L2.878,10.468 L2.878,7.449 L2.327,7.449 ZM3.184,11.067 L2.021,11.067 L1.960,11.067 L1.960,11.485 L3.246,11.485 L3.246,11.067 L3.184,11.067 ZM7.500,0.663 L1.285,4.875 L13.715,4.875 L7.500,0.663 ZM14.051,5.473 L0.949,5.473 L0.949,5.833 L1.654,5.833 L3.552,5.833 L6.551,5.833 L8.449,5.833 L11.449,5.833 L13.347,5.833 L14.051,5.833 L14.051,5.473 ZM6.773,3.160 C6.942,3.160 7.079,3.294 7.079,3.459 C7.079,3.551 7.123,3.634 7.194,3.696 L7.194,3.071 C6.773,2.952 6.467,2.593 6.467,2.169 C6.467,1.746 6.773,1.387 7.194,1.268 L7.194,1.256 C7.194,1.091 7.331,0.957 7.500,0.957 C7.669,0.957 7.806,1.091 7.806,1.256 L7.806,1.268 C8.227,1.387 8.533,1.746 8.533,2.169 C8.533,2.335 8.396,2.469 8.227,2.469 C8.058,2.469 7.921,2.335 7.921,2.169 C7.921,2.078 7.877,1.995 7.806,1.933 L7.806,2.558 C8.227,2.677 8.533,3.036 8.533,3.459 C8.533,3.883 8.227,4.242 7.806,4.361 L7.806,4.397 C7.806,4.563 7.669,4.697 7.500,4.697 C7.331,4.697 7.194,4.563 7.194,4.397 L7.194,4.361 C6.773,4.242 6.467,3.883 6.467,3.459 C6.467,3.294 6.604,3.160 6.773,3.160 ZM7.194,1.933 C7.123,1.995 7.079,2.078 7.079,2.170 C7.079,2.261 7.123,2.344 7.194,2.406 L7.194,1.933 ZM7.806,3.696 C7.877,3.634 7.921,3.551 7.921,3.459 C7.921,3.368 7.877,3.285 7.806,3.223 L7.806,3.696 ZM11.445,12.444 L11.449,12.444 C11.618,12.444 11.755,12.578 11.755,12.743 C11.755,12.909 11.618,13.043 11.449,13.043 L11.445,13.043 C11.276,13.043 11.139,12.909 11.139,12.743 C11.139,12.578 11.276,12.444 11.445,12.444 Z" class="cls-1"/>
</svg>
