<svg xmlns="http://www.w3.org/2000/svg" width="25" height="25" viewBox="0 0 25 25">
  <metadata><?xpacket begin="﻿" id="W5M0MpCehiHzreSzNTczkc9d"?>
<x:xmpmeta xmlns:x="adobe:ns:meta/" x:xmptk="Adobe XMP Core 5.6-c138 79.159824, 2016/09/14-01:09:01        ">
   <rdf:RDF xmlns:rdf="http://www.w3.org/1999/02/22-rdf-syntax-ns#">
      <rdf:Description rdf:about=""/>
   </rdf:RDF>
</x:xmpmeta>
                                                                                                    
                                                                                                    
                                                                                                    
                                                                                                    
                                                                                                    
                                                                                                    
                                                                                                    
                                                                                                    
                                                                                                    
                                                                                                    
                                                                                                    
                                                                                                    
                                                                                                    
                                                                                                    
                                                                                                    
                                                                                                    
                                                                                                    
                                                                                                    
                                                                                                    
                                                                                                    
                           
<?xpacket end="w"?></metadata>
<defs>
    <style>
      .cls-1 {
        fill: #d45c5c;
        fill-rule: evenodd;
      }
    </style>
  </defs>
  <path id="Forma_1" data-name="Forma 1" class="cls-1" d="M723.5,281A12.5,12.5,0,1,0,736,293.5,12.514,12.514,0,0,0,723.5,281Zm0,22.857A10.357,10.357,0,1,1,733.857,293.5,10.369,10.369,0,0,1,723.5,303.857Zm4.837-15.193a1.07,1.07,0,0,0-1.515,0l-3.322,3.322-3.322-3.322a1.071,1.071,0,1,0-1.515,1.515l3.322,3.322-3.322,3.322a1.071,1.071,0,1,0,1.515,1.515l3.322-3.322,3.322,3.322a1.071,1.071,0,1,0,1.515-1.515l-3.322-3.322,3.322-3.322A1.072,1.072,0,0,0,728.337,288.664Z" transform="translate(-711 -281)"/>
</svg>
