<svg xmlns="http://www.w3.org/2000/svg" xmlns:xlink="http://www.w3.org/1999/xlink" preserveAspectRatio="xMidYMid" width="33" height="30" viewBox="0 0 33 30">
  <defs>
    <style>
      .cls-1 {
        fill: #a0c800;
        fill-rule: evenodd;
      }
    </style>
  </defs>
  <path d="M31.188,9.715 C31.160,9.686 31.131,9.659 31.100,9.632 C29.922,8.538 28.294,7.907 26.506,7.999 L25.800,8.030 C23.194,8.127 20.754,8.805 18.614,9.927 C17.087,5.531 13.626,2.000 9.052,0.415 C5.793,-0.824 2.154,0.805 0.986,4.073 L0.752,4.727 C-1.813,12.682 2.391,21.548 10.161,24.614 C10.206,24.631 10.251,24.648 10.296,24.664 C10.695,27.749 13.434,30.138 16.704,29.993 L17.420,29.962 C25.946,29.333 32.929,22.171 33.000,14.011 C32.998,12.308 32.307,10.798 31.188,9.715 ZM25.913,10.755 L26.638,10.723 C27.448,10.681 28.189,10.892 28.786,11.283 C28.484,15.173 26.023,17.233 21.624,17.221 C17.645,17.224 14.728,18.777 13.114,21.675 C13.559,18.634 15.151,15.923 17.481,13.961 C17.490,13.954 17.499,13.947 17.507,13.939 C17.572,13.885 17.638,13.832 17.704,13.779 C17.735,13.753 17.767,13.728 17.799,13.703 C17.853,13.660 17.908,13.617 17.963,13.575 C18.024,13.529 18.085,13.483 18.146,13.438 C18.177,13.415 18.208,13.391 18.240,13.368 C18.337,13.298 18.436,13.228 18.536,13.160 C20.614,11.737 23.148,10.857 25.913,10.755 ZM16.219,11.462 C13.800,13.329 11.966,15.843 10.999,18.715 C10.290,17.182 10.352,15.312 11.239,13.169 C12.699,9.609 12.315,6.429 10.203,3.914 C13.151,5.557 15.295,8.260 16.219,11.462 ZM3.358,5.599 L3.579,4.985 C3.836,4.264 4.310,3.688 4.904,3.298 C9.082,5.355 10.270,8.291 8.693,12.138 C7.290,15.525 7.490,18.677 9.231,21.116 C4.074,17.989 1.469,11.457 3.358,5.599 ZM17.277,27.239 L16.582,27.269 C15.802,27.304 15.077,27.078 14.486,26.672 C14.903,22.133 17.296,19.951 21.622,19.948 C25.478,19.958 28.393,18.584 30.041,16.101 C28.938,21.914 23.596,26.763 17.277,27.239 Z" class="cls-1"/>
</svg>
