<svg xmlns="http://www.w3.org/2000/svg" xmlns:xlink="http://www.w3.org/1999/xlink" preserveAspectRatio="xMidYMid" width="28" height="24" viewBox="0 0 28 24">
  <defs>
    <style>
      .cls-1 {
        fill: #da5656;
        fill-rule: evenodd;
      }
    </style>
  </defs>
  <path d="M27.676,22.726 C27.231,23.512 26.391,24.000 25.486,24.000 L2.514,24.000 C1.609,24.000 0.769,23.512 0.324,22.726 C-0.121,21.940 -0.108,20.971 0.360,20.198 L11.846,1.213 C12.298,0.465 13.124,-0.000 14.000,-0.000 C14.876,-0.000 15.702,0.465 16.154,1.212 L27.640,20.198 C28.108,20.971 28.121,21.939 27.676,22.726 ZM26.079,21.136 L14.593,2.151 C14.468,1.945 14.241,1.817 14.000,1.817 C13.759,1.817 13.532,1.945 13.407,2.151 L1.921,21.136 C1.792,21.349 1.789,21.616 1.911,21.832 C2.034,22.049 2.265,22.183 2.514,22.183 L25.486,22.183 C25.735,22.183 25.966,22.048 26.089,21.832 C26.211,21.616 26.207,21.349 26.079,21.136 ZM14.025,19.900 C13.281,19.900 12.723,19.293 12.723,18.602 C12.723,17.894 13.281,17.304 14.025,17.304 C14.719,17.304 15.311,17.894 15.311,18.602 C15.311,19.293 14.719,19.900 14.025,19.900 ZM14.008,16.141 C13.467,16.141 13.011,15.922 13.010,15.399 C13.010,13.393 12.774,10.510 12.774,8.504 C12.774,7.847 13.315,7.476 14.008,7.476 C14.668,7.476 15.226,7.847 15.226,8.504 C15.226,10.510 14.989,13.393 14.989,15.399 C14.989,15.922 14.414,16.141 14.008,16.141 Z" class="cls-1"/>
</svg>
