<?xml version="1.0" encoding="utf-8"?>
<!-- Generator: Adobe Illustrator 19.0.0, SVG Export Plug-In . SVG Version: 6.00 Build 0)  -->
<svg version="1.1" id="Layer_1" xmlns="http://www.w3.org/2000/svg" xmlns:xlink="http://www.w3.org/1999/xlink" x="0px" y="0px"
	 viewBox="272 -268.5 512 511.7" style="enable-background:new 272 -268.5 512 511.7;" xml:space="preserve">
<style type="text/css">
	.st0{fill:#698714;}
	.st1{clip-path:url(#SVGID_2_);}
	.st2{opacity:0.4;enable-background:new    ;}
	.st3{fill:#FFFFFF;}
	.st4{fill:#FFFEFD;}
</style>
<title>cost_highlight</title>
<g id="Layer_4">
	<circle id="_Path_" class="st0" cx="528" cy="-12.5" r="256"/>
	<g id="_Clip_Group_">
		<g>
			<defs>
				<circle id="SVGID_1_" cx="528" cy="-12.5" r="256"/>
			</defs>
			<clipPath id="SVGID_2_">
				<use xlink:href="#SVGID_1_"  style="overflow:visible;"/>
			</clipPath>
			<g class="st1">
				<polygon id="_Path_2" class="st2" points="396,70.5 654,308 804,247 856,181 628,-185.5 607,-158.5 500,-126.5 				"/>
			</g>
		</g>
	</g>
	<path id="_Path_3" class="st3" d="M437-100.5"/>
</g>
<g id="Layer_3">
	<g id="_Group_">
		<path id="_Compound_Path_" class="st4" d="M624.5-187.1c-2.4-1.3-5.4-0.5-6.8,1.9L605-162.3l-111.4,31.9L393.9,50.9
			c-4.7,8.5-1.6,19.2,6.8,23.9c0,0,0,0,0,0l126,69.9c8.5,4.7,19.2,1.6,23.9-6.9c0,0,0,0,0,0L647-41.3l-33.3-116.2l12.7-22.8
			C627.7-182.7,626.8-185.7,624.5-187.1z M573.7,1.3c-1.6,2.3-4.7,2.8-7,1.3c-2-1.3-2.7-3.9-1.8-6.1c8.4-15.1,4.4-34.1-9.4-44.6
			L525,6.9L537,35c3.3,7.8,3.3,16.7,0,24.5c-3.1,7.4-9.1,13.3-16.7,16.1c-1.2,0.5-2.4,0.8-3.6,1.2c-9.8,2.8-20.2,2.2-29.6-1.8
			l-3.9,7c-1.6,2.3-4.7,2.8-7,1.3c-2-1.4-2.7-3.9-1.7-6.1l3.9-7C459.9,57,454.2,31.9,465.3,12c1.6-2.3,4.7-2.8,7-1.3
			c2,1.4,2.7,3.9,1.7,6.1c-8.4,15.1-4.4,34.1,9.4,44.6L514,6.3l-12-28.1c-3.3-7.8-3.3-16.6,0-24.5c3.1-7.4,9.1-13.3,16.7-16.1
			c10.7-4.1,22.6-3.9,33.1,0.5l2.5-4.6c1.1-2.5,4-3.7,6.6-2.6c2.5,1.1,3.7,4,2.6,6.6c-0.1,0.3-0.3,0.6-0.5,0.9l-2.6,4.6
			C579.1-43.7,584.8-18.7,573.7,1.3z M581.1-72.6c-13.2,3.8-27-3.9-30.8-17.1c-3.8-13.2,3.9-27,17.1-30.8c13.2-3.8,27,3.9,30.8,17.1
			C601.9-90.2,594.3-76.4,581.1-72.6L581.1-72.6z"/>
		<path id="_Path_4" class="st4" d="M522.2-53.1c-5,1.9-9,5.8-11,10.7c-2.3,5.3-2.3,11.3,0,16.6l9,21L546.9-53
			C539-56,530.2-56.1,522.2-53.1z"/>
		<path id="_Path_5" class="st4" d="M518.9,17.9l-26.8,48.3c8,3,16.8,3,24.7,0c5-1.9,9-5.8,11-10.7c2.3-5.3,2.3-11.3,0-16.7
			L518.9,17.9z"/>
	</g>
</g>
</svg>
