<svg xmlns="http://www.w3.org/2000/svg" xmlns:xlink="http://www.w3.org/1999/xlink" preserveAspectRatio="xMidYMid" width="14" height="17" viewBox="0 0 14 17">
  <defs>
    <style>
      .cls-1 {
        fill: #d63c3c;
        fill-rule: evenodd;
      }
    </style>
  </defs>
  <path d="M12.962,5.057 L12.962,15.851 C12.962,16.502 12.433,17.000 11.755,17.000 L2.245,17.000 C1.567,17.000 1.048,16.502 1.048,15.851 L1.048,5.057 L-0.000,5.057 L-0.000,4.003 L-0.000,3.161 C-0.000,2.509 0.529,2.002 1.207,2.002 L3.582,2.002 L3.582,0.527 C3.582,0.230 3.822,-0.000 4.131,-0.000 L4.171,-0.000 L4.211,-0.000 L9.769,-0.000 C9.779,-0.000 9.799,0.010 9.809,0.019 C9.819,0.010 9.839,-0.000 9.869,-0.000 C10.178,-0.000 10.428,0.230 10.428,0.527 L10.428,2.002 L12.792,2.002 C13.471,2.002 14.000,2.509 14.000,3.161 L14.000,4.003 L14.000,5.057 L12.962,5.057 ZM2.145,15.851 C2.145,15.918 2.175,15.946 2.245,15.946 L11.755,15.946 C11.825,15.946 11.855,15.918 11.855,15.851 L11.855,5.057 L2.145,5.057 L2.145,15.851 ZM9.320,1.053 L4.680,1.053 L4.680,2.002 L9.320,2.002 L9.320,1.053 ZM12.892,3.161 C12.892,3.094 12.862,3.055 12.793,3.055 L1.207,3.055 C1.138,3.055 1.108,3.094 1.108,3.161 L1.108,4.003 L12.892,4.003 L12.892,3.161 ZM9.011,6.292 L10.118,6.292 L10.118,15.008 L9.011,15.008 L9.011,6.292 ZM6.456,6.292 L7.564,6.292 L7.564,15.008 L6.456,15.008 L6.456,6.292 ZM3.902,6.292 L5.009,6.292 L5.009,15.008 L3.902,15.008 L3.902,6.292 Z" class="cls-1"/>
</svg>
