<svg xmlns="http://www.w3.org/2000/svg" width="14" height="17" viewBox="0 0 14 17">
  <metadata><?xpacket begin="﻿" id="W5M0MpCehiHzreSzNTczkc9d"?>
<x:xmpmeta xmlns:x="adobe:ns:meta/" x:xmptk="Adobe XMP Core 5.6-c138 79.159824, 2016/09/14-01:09:01        ">
   <rdf:RDF xmlns:rdf="http://www.w3.org/1999/02/22-rdf-syntax-ns#">
      <rdf:Description rdf:about=""/>
   </rdf:RDF>
</x:xmpmeta>
                                                                                                    
                                                                                                    
                                                                                                    
                                                                                                    
                                                                                                    
                                                                                                    
                                                                                                    
                                                                                                    
                                                                                                    
                                                                                                    
                                                                                                    
                                                                                                    
                                                                                                    
                                                                                                    
                                                                                                    
                                                                                                    
                                                                                                    
                                                                                                    
                                                                                                    
                                                                                                    
                           
<?xpacket end="w"?></metadata>
<defs>
    <style>
      .cls-1 {
        fill: #d63c3c;
        fill-rule: evenodd;
      }
    </style>
  </defs>
  <path id="Forma_1" data-name="Forma 1" class="cls-1" d="M135.792,137h-2.364v-1.475a0.54,0.54,0,0,0-.559-0.527,0.09,0.09,0,0,0-.06.019,0.082,0.082,0,0,0-.04-0.019h-5.638a0.531,0.531,0,0,0-.549.527V137h-2.375A1.169,1.169,0,0,0,123,138.161v1.9h1.048v10.794a1.153,1.153,0,0,0,1.2,1.149h9.51a1.162,1.162,0,0,0,1.207-1.149V140.057H137v-1.9A1.169,1.169,0,0,0,135.792,137Zm-8.112-.949h4.64V137h-4.64v-0.949Zm7.175,14.8a0.084,0.084,0,0,1-.1.1h-9.51a0.084,0.084,0,0,1-.1-0.1V140.057h9.71v10.794ZM135.892,139H124.108v-0.842a0.091,0.091,0,0,1,.1-0.106h11.585a0.091,0.091,0,0,1,.1.106V139h0Zm-3.881,2.289h1.107v8.716h-1.107v-8.716Zm-2.555,0h1.108v8.716h-1.108v-8.716Zm-2.554,0h1.107v8.716H126.9v-8.716Z" transform="translate(-123 -135)"/>
</svg>
