<?xml version="1.0" encoding="utf-8"?>
<!-- Generator: Adobe Illustrator 21.0.0, SVG Export Plug-In . SVG Version: 6.00 Build 0)  -->
<svg version="1.1" id="Layer_1" xmlns="http://www.w3.org/2000/svg" xmlns:xlink="http://www.w3.org/1999/xlink" x="0px" y="0px"
	 viewBox="0 0 512 512" style="enable-background:new 0 0 512 512;" xml:space="preserve">
<style type="text/css">
	.st0{fill:#4F89AD;}
	.st1{fill:#FFFFFF;}
</style>
<path class="st0" d="M256,60.3C148.1,60.3,60.3,148.1,60.3,256S148.1,451.7,256,451.7c107.9,0,195.7-87.8,195.7-195.7
	C451.7,148.1,363.9,60.3,256,60.3z M256,420.8c-90.9,0-164.8-73.9-164.8-164.8c0-90.9,73.9-164.8,164.8-164.8S420.8,165.1,420.8,256
	C420.8,346.9,346.9,420.8,256,420.8z"/>
<circle class="st0" cx="258" cy="259" r="173"/>
<path class="st1" d="M348.6,174.4L223.2,302.1l-62.1-45c-7.9-5.7-18.9-3.9-24.6,3.9c-5.7,7.9-3.9,18.9,3.9,24.6l74.4,53.9
	c3.1,2.3,6.7,3.4,10.3,3.4c4.6,0,9.2-1.8,12.6-5.3l136-138.6c6.8-6.9,6.7-18.1-0.2-24.9C366.6,167.3,355.4,167.4,348.6,174.4z"/>
</svg>
