<svg xmlns="http://www.w3.org/2000/svg" xmlns:xlink="http://www.w3.org/1999/xlink" preserveAspectRatio="xMidYMid" width="16" height="16" viewBox="0 0 16 16">
  <defs>
    <style>
      .cls-1 {
        fill: #0a7cc1;
        fill-rule: evenodd;
      }
    </style>
  </defs>
  <path d="M15.443,16.000 L0.570,16.000 C0.272,16.000 0.014,15.737 0.014,15.432 C0.014,15.128 0.258,14.865 0.570,14.865 L15.430,14.865 C15.742,14.865 16.000,15.128 16.000,15.432 C16.000,15.737 15.755,16.000 15.443,16.000 ZM3.586,12.941 C3.477,13.052 3.341,13.107 3.192,13.107 L0.557,13.121 C0.407,13.121 0.272,13.066 0.163,12.955 C0.054,12.844 -0.000,12.692 -0.000,12.540 L0.014,9.841 C0.014,9.688 0.081,9.550 0.177,9.439 L7.457,2.034 L9.277,0.166 C9.508,-0.056 9.861,-0.056 10.078,0.166 L12.686,2.851 C12.903,3.086 12.903,3.446 12.686,3.668 L3.586,12.941 ZM1.141,10.090 L1.127,11.958 L2.974,11.945 L9.684,5.121 L7.851,3.252 L1.141,10.090 ZM9.684,1.384 L8.652,2.436 L10.486,4.304 L11.518,3.252 L9.684,1.384 Z" class="cls-1"/>
</svg>
