<svg xmlns="http://www.w3.org/2000/svg" width="19" height="19" viewBox="0 0 19 19">
  <metadata><?xpacket begin="﻿" id="W5M0MpCehiHzreSzNTczkc9d"?>
<x:xmpmeta xmlns:x="adobe:ns:meta/" x:xmptk="Adobe XMP Core 5.6-c138 79.159824, 2016/09/14-01:09:01        ">
   <rdf:RDF xmlns:rdf="http://www.w3.org/1999/02/22-rdf-syntax-ns#">
      <rdf:Description rdf:about=""/>
   </rdf:RDF>
</x:xmpmeta>
                                                                                                    
                                                                                                    
                                                                                                    
                                                                                                    
                                                                                                    
                                                                                                    
                                                                                                    
                                                                                                    
                                                                                                    
                                                                                                    
                                                                                                    
                                                                                                    
                                                                                                    
                                                                                                    
                                                                                                    
                                                                                                    
                                                                                                    
                                                                                                    
                                                                                                    
                                                                                                    
                           
<?xpacket end="w"?></metadata>
<defs>
    <style>
      .cls-1 {
        fill: #fff;
        fill-rule: evenodd;
      }
    </style>
  </defs>
  <path class="cls-1" d="M586.217,119.782A9.5,9.5,0,1,0,589,126.5,9.438,9.438,0,0,0,586.217,119.782ZM579.5,134.465a7.965,7.965,0,1,1,7.965-7.965A7.974,7.974,0,0,1,579.5,134.465Zm0-12.226a0.768,0.768,0,0,0-.768.768V126.5a0.768,0.768,0,0,0,1.535,0v-3.493A0.767,0.767,0,0,0,579.5,122.239Zm0.543,7.211a0.77,0.77,0,1,0,.224.543A0.773,0.773,0,0,0,580.043,129.45Z" transform="translate(-570 -117)"/>
</svg>
