<?xml version="1.0" encoding="utf-8"?>
<!-- Generator: Adobe Illustrator 19.0.0, SVG Export Plug-In . SVG Version: 6.00 Build 0)  -->
<svg version="1.1" id="Layer_1" xmlns="http://www.w3.org/2000/svg" xmlns:xlink="http://www.w3.org/1999/xlink" x="0px" y="0px"
	 viewBox="876 -876 1540 1792" style="enable-background:new 876 -876 1540 1792;" xml:space="preserve">
<path d="M2344-496c18.7,18.7,34.7,44,48,76s20,61.3,20,88V820c0,26.7-9.3,49.3-28,68s-41.3,28-68,28H972c-26.7,0-49.3-9.3-68-28
	s-28-41.3-28-68V-780c0-26.7,9.3-49.3,28-68s41.3-28,68-28h896c26.7,0,56,6.7,88,20s57.3,29.3,76,48L2344-496z M1900-740v376h376
	c-6.7-19.3-14-33-22-41l-313-313C1933-726,1919.3-733.3,1900-740z M2284,788V-236h-416c-26.7,0-49.3-9.3-68-28s-28-41.3-28-68v-416
	h-768V788H2284z M1305,554v106h281V554h-75l103-161c3.3-4.7,6.7-10.2,10-16.5s5.8-10.8,7.5-13.5s2.8-4,3.5-4h2c0.7,2.7,2.3,6,5,10
	c1.3,2.7,2.8,5.2,4.5,7.5s3.7,5,6,8s4.5,5.8,6.5,8.5l107,161h-76v106h291V554h-68l-192-273L1916-1h67v-107h-279V-1h74l-103,159
	c-2.7,4.7-6,10.2-10,16.5s-7,10.8-9,13.5l-2,3h-2c-0.7-2.7-2.3-6-5-10c-4-7.3-9.7-15-17-23L1524-1h76v-107h-290V-1h68l189,272
	l-194,283H1305z"/>
</svg>
