<svg xmlns="http://www.w3.org/2000/svg" xmlns:xlink="http://www.w3.org/1999/xlink" preserveAspectRatio="xMidYMid" width="19" height="18" viewBox="0 0 19 18">
  <defs>
    <style>
      .cls-1 {
        fill: #000;
        fill-rule: evenodd;
      }
    </style>
  </defs>
  <path d="M18.391,2.988 L8.428,2.988 C8.158,4.010 7.222,4.765 6.111,4.765 C5.001,4.765 4.065,4.010 3.795,2.988 L0.609,2.988 C0.273,2.988 -0.000,2.717 -0.000,2.383 C-0.000,2.048 0.273,1.777 0.609,1.777 L3.795,1.777 C4.065,0.756 5.001,-0.000 6.111,-0.000 C7.222,-0.000 8.158,0.756 8.428,1.777 L18.391,1.777 C18.727,1.777 19.000,2.048 19.000,2.383 C19.000,2.717 18.727,2.988 18.391,2.988 ZM6.111,1.212 C5.462,1.212 4.934,1.737 4.934,2.383 C4.934,3.028 5.462,3.554 6.111,3.554 C6.760,3.554 7.289,3.028 7.289,2.383 C7.289,1.737 6.760,1.212 6.111,1.212 ZM0.609,8.394 L9.699,8.394 C9.969,7.373 10.905,6.617 12.015,6.617 C13.126,6.617 14.062,7.373 14.332,8.394 L18.391,8.394 C18.727,8.394 19.000,8.665 19.000,9.000 C19.000,9.334 18.727,9.606 18.391,9.606 L14.332,9.606 C14.062,10.627 13.126,11.383 12.015,11.383 C10.905,11.383 9.969,10.627 9.699,9.606 L0.609,9.606 C0.273,9.606 -0.000,9.334 -0.000,9.000 C-0.000,8.665 0.273,8.394 0.609,8.394 ZM12.015,10.171 C12.665,10.171 13.193,9.646 13.193,9.000 C13.193,8.354 12.665,7.829 12.015,7.829 C11.366,7.829 10.838,8.354 10.838,9.000 C10.838,9.646 11.366,10.171 12.015,10.171 ZM0.609,15.012 L3.795,15.012 C4.065,13.990 5.001,13.235 6.111,13.235 C7.222,13.235 8.158,13.990 8.428,15.012 L18.391,15.012 C18.727,15.012 19.000,15.283 19.000,15.617 C19.000,15.952 18.727,16.223 18.391,16.223 L8.428,16.223 C8.158,17.244 7.222,18.000 6.111,18.000 C5.001,18.000 4.065,17.244 3.795,16.223 L0.609,16.223 C0.273,16.223 -0.000,15.952 -0.000,15.617 C-0.000,15.283 0.273,15.012 0.609,15.012 ZM6.111,16.788 C6.760,16.788 7.289,16.263 7.289,15.617 C7.289,14.972 6.760,14.446 6.111,14.446 C5.462,14.446 4.934,14.972 4.934,15.617 C4.934,16.263 5.462,16.788 6.111,16.788 Z" class="cls-1"/>
</svg>
