<?xml version="1.0" encoding="utf-8"?>
<!-- Generator: Adobe Illustrator 19.0.0, SVG Export Plug-In . SVG Version: 6.00 Build 0)  -->
<svg version="1.1" id="Layer_1" xmlns="http://www.w3.org/2000/svg" xmlns:xlink="http://www.w3.org/1999/xlink" x="0px" y="0px"
	 viewBox="302 -271.9 513 513" style="enable-background:new 302 -271.9 513 513;" xml:space="preserve">
<style type="text/css">
	.st0{fill:#698714;}
	.st1{clip-path:url(#SVGID_2_);}
	.st2{opacity:0.4;enable-background:new    ;}
	.st3{fill:#FFFFFF;}
</style>
<title>finance_highlight</title>
<g id="Layer_4">
	<circle id="_Path_" class="st0" cx="558" cy="-15.9" r="256"/>
	<g id="_Clip_Group_">
		<g>
			<defs>
				<circle id="SVGID_1_" cx="558" cy="-15.9" r="256"/>
			</defs>
			<clipPath id="SVGID_2_">
				<use xlink:href="#SVGID_1_"  style="overflow:visible;"/>
			</clipPath>
			<g class="st1">
				<polygon id="_Path_2" class="st2" points="519.5,-64.7 462.3,87.5 710.7,312 908.6,237.4 946.7,194 592.6,-126.8 510.2,-127.7 
									"/>
			</g>
		</g>
	</g>
	<path id="_Path_3" class="st3" d="M982-73.9"/>
</g>
<g id="Layer_3">
	<g id="_Group_">
		<g id="_Group_2">
			<path id="_Compound_Path_" class="st3" d="M650.3,44.4L580.1-64.9h-60.3L449.6,44.5c-9.1,13.3-5.7,31.6,7.6,40.7
				c4.9,3.3,10.7,5.1,16.6,5.1h152.3c16.2,0,29.3-13.1,29.3-29.2C655.4,55.1,653.6,49.3,650.3,44.4L650.3,44.4z M539.8,6.9
				c0.1,0.3,0.2,0.5,0.4,0.8c0.9,0.9,2.1,1.6,3.3,2c1.5,0.5,3,1,4.5,1.4c2.3,0.6,5,1.2,7.7,2c4,1,7.8,2.7,11.2,5
				c2.2,1.6,4.1,3.7,5.5,6.2c1.7,3.1,2.5,6.5,2.5,10c0.1,3.9-1,7.7-3,11c-1.9,3-4.7,5.4-7.9,7c-2,1-4.1,1.7-6.3,2.1
				c-0.2,0-0.3,0-0.5,0.1V61h-14.6v-6.5c-2.5-0.5-4.9-1.3-7.1-2.5c-6.6-3.5-10.7-10.3-10.6-17.8h14.6c0,0.8,0.2,1.6,0.5,2.3
				c0.3,0.7,0.8,1.3,1.4,1.8c1.3,1.1,3.6,2.1,7.5,2.1c2.1,0,4.3-0.2,6.4-0.7c1.3-0.3,2.5-0.8,3.5-1.5c0.4-0.3,0.7-0.7,0.9-1.1
				c0.4-0.9,0.6-1.9,0.6-2.9c0-0.8-0.1-1.6-0.3-2.3c-0.1-0.4-0.3-0.8-0.6-1.2c-0.9-1-2.1-1.8-3.3-2.3c-1.4-0.6-2.9-1.1-4.4-1.5
				c-2.3-0.6-4.8-1.2-7.5-1.9c-3.9-0.9-7.6-2.4-11-4.5c-5.3-3.3-8.4-9.2-8.2-15.5c0-3.8,1.1-7.5,3.1-10.7c2.5-3.8,6.1-6.8,10.4-8.4
				c1.4-0.5,2.8-0.9,4.2-1.2v-6.3h14.6v6.6c2.2,0.5,4.3,1.2,6.3,2.1c4.2,1.9,7.5,5.2,9.5,9.3c1.3,2.7,1.9,5.6,1.9,8.5h-14.6
				c0-0.8-0.1-1.5-0.4-2.2c-0.3-0.7-0.8-1.2-1.4-1.7c-1.4-1.1-4.4-2.4-9.6-2.3c-3.6,0-5.5,0.8-6.7,1.6c-1,0.6-1.8,1.6-2.2,2.7
				c-0.2,0.6-0.4,1.3-0.4,2C539.6,5.7,539.7,6.3,539.8,6.9z"/>
		</g>
	</g>
	<g id="_Group_3">
		<g id="_Group_4">
			<polygon id="_Path_4" class="st3" points="506,-126.5 520.8,-79.6 579.1,-79.6 593.9,-126.5 			"/>
		</g>
	</g>
</g>
</svg>
