<?xml version="1.0" encoding="utf-8"?>
<!-- Generator: Adobe Illustrator 19.0.0, SVG Export Plug-In . SVG Version: 6.00 Build 0)  -->
<svg version="1.1" id="Layer_1" xmlns="http://www.w3.org/2000/svg" xmlns:xlink="http://www.w3.org/1999/xlink" x="0px" y="0px"
	 viewBox="302 -271.9 512 514" style="enable-background:new 302 -271.9 512 514;" xml:space="preserve">
<style type="text/css">
	.st0{fill:#698714;}
	.st1{clip-path:url(#SVGID_2_);}
	.st2{opacity:0.4;enable-background:new    ;}
	.st3{fill:#FCFCFC;}
</style>
<title>Limit_highlight</title>
<g id="Layer_4">
	<circle id="_Path_" class="st0" cx="558" cy="-15.9" r="256"/>
	<g id="_Clip_Group_">
		<g>
			<defs>
				<circle id="SVGID_1_" cx="558" cy="-15.9" r="256"/>
			</defs>
			<clipPath id="SVGID_2_">
				<use xlink:href="#SVGID_1_"  style="overflow:visible;"/>
			</clipPath>
			<g class="st1">
				<polygon id="_Path_2" class="st2" points="415,-17.9 437,74.1 710.7,312 908.6,237.4 946.7,194 684,-128.9 555,-152.9 
					490,-131.9 437,-78.9 				"/>
			</g>
		</g>
	</g>
</g>
<g id="Layer_3">
	<g id="_Group_">
		<path id="_Path_3" class="st3" d="M709.1-11.4c-0.3-4.9-3.8-7.8-8.2-6.9c-3.2,0.7-5.1,3.5-5.1,7.8c0.2,11.3-1.1,22.7-3.7,33.7
			c-0.6,1.8-0.5,3.7,0.1,5.5c1.1,2.7,3.8,4.3,6.6,4c2.9-0.4,5.3-2.6,5.9-5.5c2.4-9.7,3.8-19.6,4.3-29.6
			C709.2-5.4,709.3-8.4,709.1-11.4z"/>
		<path id="_Path_4" class="st3" d="M553.5,140.1L553.5,140.1z"/>
		<path id="_Path_5" class="st3" d="M554.5,126.8c-11.5-0.6-22.9-2.6-34-5.9c-4.4-1.3-8,0.5-9,4.1s1,7.3,5.4,8.6
			c11.9,3.7,24.2,5.8,36.6,6.5h0.4c4.8,0.1,7.9-2.3,8.1-6.1C562.3,129.7,559.5,127.1,554.5,126.8z"/>
		<path id="_Path_6" class="st3" d="M431.5,32.1c-1.7-5.5-3-11.1-4-16.8c-1.1-5.9-1.5-11.8-2-17.8c-0.5-5.3-4.5-8-8.9-6.4
			c-3,1.1-4.4,3.9-4.2,8.9c0.7,12.3,2.9,24.4,6.7,36.1c1.4,4.3,5,6.4,8.4,5.2C431.2,40.1,432.8,36.5,431.5,32.1z"/>
		<path id="_Path_7" class="st3" d="M526.2-139.4c0.5,0,1-0.1,1.5-0.2c11.5-2.8,23.3-4.2,35.2-4.1c1.6,0.1,3.1-0.3,4.4-1.2
			c2.4-1.6,3.5-4.6,2.6-7.3c-0.6-2.7-3.5-4.6-6.9-4.7c-7.9-0.1-15.9,0.4-23.7,1.5c-5,0.7-10,1.6-14.8,2.9c-3.8,1-5.8,4-5.4,7.5
			C519.5-141.7,522.3-139.4,526.2-139.4z"/>
		<path id="_Path_8" class="st3" d="M608.9,118c-3.5,1.2-7,2.4-10.5,3.5c-7.7,2.2-15.6,3.8-23.6,4.7c-4.4,0.6-6.9,3.7-6.5,7.2
			c0.5,3.6,3.5,6.1,7.7,6l4.6-0.6c11.3-1.5,22.4-4.3,33.1-8.5c4.2-1.6,6.1-5.3,4.7-8.7C616.9,117.9,613.3,116.5,608.9,118z"/>
		<path id="_Path_9" class="st3" d="M419.2-15.7c3.3,0.1,6.2-2.3,6.7-5.6c0.4-2.1,0.5-4.3,0.8-6.4c1.4-9.7,3.9-19.2,7.3-28.4
			c1.9-5.2-0.6-9.5-5.4-9.9c-3.1-0.2-5.7,1.6-7,5c-2.7,7-4.8,14.3-6.3,21.6c-1.1,5.1-1.9,10.3-2.4,15.6
			C412.5-18.9,415.1-15.7,419.2-15.7z"/>
		<path id="_Path_10" class="st3" d="M683.7-64.6c2.4,5.6,4.6,11.3,6.4,17.1c1.6,5.4,2.9,11,3.9,16.5c0.8,4.3,4,6.8,7.5,6.3
			c3.7-0.5,6.2-3.9,5.7-7.5c0,0,0,0,0,0c-2-13.2-5.9-25.9-11.6-38c-1-2.4-3.2-4-5.7-4.2C684.5-74.6,681.5-69.7,683.7-64.6z"/>
		<path id="_Path_11" class="st3" d="M655.2,88.4c-8.3,8-17.6,15-27.5,20.8c-1,0.6-1.9,1.3-2.7,2.1c-1.9,1.8-2.4,4.5-1.3,6.8
			c0.8,2.3,2.9,3.8,5.4,4c2,0,2.8-0.1,4-0.8c11.6-6.4,22.2-14.4,31.5-23.7c1.9-1.9,3-4.2,2.1-7C665,85.6,659.3,84.4,655.2,88.4z"/>
		<path id="_Path_12" class="st3" d="M685.8,42.9c-4.4,10.7-10.2,20.7-17.1,30c-0.6,0.8-1.1,1.7-1.5,2.7c-1.4,3.2,0.1,6.9,3.3,8.3
			c0.8,0.3,1.7,0.5,2.5,0.5c2.1,0.2,4.1-0.7,5.3-2.3c8.3-10.5,15-22.3,19.9-34.7c1.1-2.4,0.6-5.3-1.3-7.2
			C693.4,36.5,688,37.7,685.8,42.9z"/>
		<path id="_Path_13" class="st3" d="M580.8-142.4c1.8,0.5,3.6,0.9,5.4,1.2c10.2,2,20.2,5.2,29.7,9.3c4.4,1.9,8.2,0.7,9.8-2.9
			c1.6-3.8,0-7.4-4.6-9.3c-4.4-1.8-8.8-3.6-13.2-5.2c-7.7-2.7-15.7-4.6-23.8-5.8c-4,0-6.7,1.9-7.4,5
			C575.9-146.8,577.7-143.5,580.8-142.4z"/>
		<path id="_Path_14" class="st3" d="M433.4-71.3c3.5,1.8,7.1,0.6,9.3-3.4c5.7-10,12.7-19.3,20.7-27.7c1.5-1.3,2.4-3.2,2.6-5.1
			c0.2-2.7-1.3-5.1-3.8-6.2c-2.6-1.3-5.7-0.7-7.7,1.5c-9.2,9.3-17.2,19.8-23.5,31.3C428.8-76.9,430-73,433.4-71.3z"/>
		<path id="_Path_15" class="st3" d="M438.9,50.7c-1.2-2.4-3.1-4-4.9-4.1c-6-0.1-9.3,4.6-7.2,9.3c5.6,12.2,13,23.5,22,33.4
			c2.3,2.8,6.4,3.2,9.2,0.9c0.1-0.1,0.2-0.1,0.2-0.2c2.7-2.5,2.9-6.7,0.4-9.4c0,0,0,0-0.1-0.1C450.8,71.4,444.1,61.4,438.9,50.7z"/>
		<path id="_Path_16" class="st3" d="M501.9,113.5c-10.5-5.1-20.3-11.5-29.2-19c-0.8-0.7-1.7-1.2-2.6-1.6c-3.2-1.5-7,0-8.4,3.2
			c-0.4,0.9-0.6,1.9-0.6,2.8c0.1,2.2,1.1,4.2,2.9,5.6c9.6,8.3,20.3,15.3,31.7,20.8c1.6,1,3.5,1.3,5.3,1c2.9-0.5,5-2.9,5.2-5.8
			C506.5,117.2,504.7,114.9,501.9,113.5z"/>
		<path id="_Path_17" class="st3" d="M478.6-116c9.2-7,19.3-12.8,29.9-17.3c0.9-0.4,1.8-0.9,2.6-1.5c2.3-1.6,3.2-4.6,2.1-7.2
			c-1-2.8-3.1-4.3-6.5-4.4c-0.7,0.1-1.3,0.2-2,0.4c-12.5,4.9-24.2,11.7-34.7,20c-2.2,1.5-3.2,4.3-2.5,6.9
			C468.9-114.2,474.1-112.6,478.6-116z"/>
		<path id="_Compound_Path_" class="st3" d="M539.6-8.7c-11.6,0.1-21,9.4-21.2,21c0,11.8,9.5,21.5,21.4,21.6
			c11.7-0.1,21.2-9.6,21.3-21.3c0.1-11.6-9.2-21.2-20.8-21.3C540-8.7,539.8-8.7,539.6-8.7z M539.8,27.3c-8.2,0-14.8-6.5-14.9-14.7
			c0-8.2,6.5-14.8,14.7-14.9c8.2,0,14.8,6.5,14.9,14.7C554.6,20.6,548,27.3,539.8,27.3L539.8,27.3z"/>
		<path id="_Compound_Path_2" class="st3" d="M560.7-125.4c-64.6,0-116.9,52.4-116.9,117s52.4,116.9,117,116.9
			c64.6,0,116.9-52.4,116.9-117c0-24.2-7.5-47.7-21.4-67.4c1.3,0.2,2.6,0.2,3.9,0.2c17.8,0,32.3-14.5,32.3-32.3
			c0-17.8-14.5-32.3-32.3-32.3c-17.8,0-32.3,14.4-32.3,32.2c0,1.3,0.1,2.7,0.2,4C608.4-118,584.9-125.4,560.7-125.4z M614.1-27.1
			c-0.1,4.3-2.7,7.1-6.4,7.2s-6.6-2.8-6.7-7.3c-0.1-2.8,0-5.6,0-8.4c0-0.8,0.2-1.9-0.6-2.2s-1.4,0.6-2,1.2
			c-8.1,8.1-15.9,16.4-24.4,24.2c-4.8,4.4-6.5,7.8-3.8,14.8c6.8,17.4-4,36.5-21.8,41.3c-17.2,4.7-35-5.4-39.7-22.7s5.4-35,22.7-39.7
			c1.3-0.3,2.6-0.6,3.9-0.8c6.9-1.1,13.9,0.2,20,3.6c1.7,1,2.8,0.9,4.3-0.6c9.9-10,19.8-19.9,29.7-29.8c0.5-0.5,1.6-1,1.1-1.9
			c-0.4-0.7-1.3-0.4-2-0.4c-3.1,0-6.2,0.1-9.3,0c-4-0.1-6.8-2.8-6.9-6.5s2.8-6.6,7-6.6c8.9-0.1,17.7-0.1,26.6,0c5,0,8.3,3.4,8.4,8.4
			c0.1,4.3,0,8.7,0,13S614.1-31.5,614.1-27.1z M660.2-129.3c11.8,0,21.3,9.5,21.3,21.3s-9.5,21.3-21.3,21.3s-21.3-9.5-21.3-21.3
			S648.4-129.3,660.2-129.3z"/>
	</g>
</g>
</svg>
