<?xml version="1.0" standalone="no"?>
<!DOCTYPE svg PUBLIC "-//W3C//DTD SVG 20010904//EN"
 "http://www.w3.org/TR/2001/REC-SVG-20010904/DTD/svg10.dtd">
<svg version="1.0" xmlns="http://www.w3.org/2000/svg"
 width="23.000000pt" height="25.000000pt" viewBox="0 0 23.000000 25.000000"
 preserveAspectRatio="xMidYMid meet">
<metadata>
Created by potrace 1.10, written by Peter Selinger 2001-2011
</metadata>
<g transform="translate(0.000000,25.000000) scale(0.100000,-0.100000)"
fill="#000000" stroke="none">
<path d="M208 243 c7 -3 16 -2 19 1 4 3 -2 6 -13 5 -11 0 -14 -3 -6 -6z"/>
<path d="M40 200 c-14 -10 -21 -22 -17 -26 4 -4 15 0 24 8 68 58 165 0 149
-88 -12 -62 -93 -96 -142 -59 -28 21 -40 18 -20 -4 24 -27 69 -35 110 -21 81
26 96 144 25 194 -32 22 -98 20 -129 -4z"/>
<path d="M22 137 c-20 -22 -21 -22 -2 -47 10 -14 22 -22 26 -18 4 4 2 13 -4
20 -8 10 1 12 44 10 34 -3 54 0 54 7 0 7 -22 11 -56 11 -49 0 -55 2 -44 15 21
25 5 27 -18 2z"/>
</g>
</svg>
