<svg xmlns="http://www.w3.org/2000/svg" xmlns:xlink="http://www.w3.org/1999/xlink" preserveAspectRatio="xMidYMid" width="13" height="12" viewBox="0 0 13 12">
  <defs>
    <style>
      .cls-1 {
        fill: #8fad1c;
        filter: url(#color-overlay-1);
        fill-rule: evenodd;
      }
    </style>

    <filter id="color-overlay-1" filterUnits="userSpaceOnUse">
      <feFlood flood-color="#176db6"/>
      <feComposite operator="in" in2="SourceGraphic"/>
      <feBlend in2="SourceGraphic" result="solidFill"/>
    </filter>
  </defs>
  <path d="M0.011,11.567 C0.011,11.579 0.011,11.591 0.022,11.615 C0.022,11.627 0.034,11.652 0.034,11.664 C0.034,11.675 0.045,11.688 0.045,11.712 C0.056,11.723 0.056,11.736 0.067,11.760 C0.079,11.772 0.079,11.784 0.090,11.796 C0.101,11.808 0.112,11.820 0.112,11.832 C0.123,11.844 0.135,11.856 0.146,11.868 L0.157,11.880 C0.157,11.880 0.168,11.880 0.168,11.892 C0.202,11.928 0.247,11.952 0.292,11.964 C0.303,11.964 0.303,11.964 0.314,11.976 C0.359,11.988 0.404,12.000 0.449,12.000 L0.449,12.000 L0.449,12.000 L0.449,12.000 L12.562,12.000 L12.562,12.000 L12.562,12.000 L12.562,12.000 C12.607,12.000 12.652,11.988 12.697,11.976 C12.708,11.976 12.708,11.976 12.719,11.964 C12.764,11.940 12.809,11.916 12.843,11.892 C12.843,11.892 12.854,11.892 12.854,11.880 L12.865,11.868 C12.877,11.856 12.888,11.844 12.899,11.832 C12.910,11.820 12.921,11.808 12.921,11.796 C12.933,11.784 12.933,11.772 12.944,11.760 C12.955,11.748 12.955,11.736 12.966,11.712 C12.978,11.700 12.978,11.688 12.978,11.664 C12.978,11.652 12.989,11.627 12.989,11.615 C12.989,11.603 13.000,11.591 13.000,11.567 C13.000,11.555 13.000,11.531 13.000,11.519 C13.000,11.507 13.000,11.507 13.000,11.495 L13.000,0.492 C13.000,0.216 12.798,-0.000 12.540,-0.000 L0.460,-0.000 C0.202,-0.000 -0.000,0.216 -0.000,0.492 L-0.000,11.495 C-0.000,11.507 -0.000,11.507 -0.000,11.519 C0.011,11.531 0.011,11.543 0.011,11.567 ZM1.448,11.003 L4.850,6.654 L6.264,7.712 C6.343,7.772 6.433,7.796 6.522,7.796 C6.612,7.796 6.702,7.772 6.781,7.712 L8.195,6.654 L11.597,11.003 L1.448,11.003 ZM12.124,10.138 L8.947,6.090 L12.113,3.724 L12.113,10.138 L12.124,10.138 ZM0.920,0.985 L12.113,0.985 L12.113,2.534 L6.522,6.702 L0.920,2.534 L0.920,0.985 ZM0.920,3.724 L4.086,6.090 L0.920,10.138 L0.920,3.724 Z" class="cls-1"/>
</svg>
