<?xml version="1.0" encoding="utf-8"?>
<!-- Generator: Adobe Illustrator 19.0.0, SVG Export Plug-In . SVG Version: 6.00 Build 0)  -->
<svg version="1.1" id="Layer_1" xmlns="http://www.w3.org/2000/svg" xmlns:xlink="http://www.w3.org/1999/xlink" x="0px" y="0px"
	 viewBox="302 -271.9 513 513" style="enable-background:new 302 -271.9 513 513;" xml:space="preserve">
<style type="text/css">
	.st0{fill:#698714;}
	.st1{clip-path:url(#SVGID_2_);}
	.st2{opacity:0.4;enable-background:new    ;}
	.st3{fill:#FFFFFF;}
</style>
<title>Market Data_highlight</title>
<g id="Layer_4">
	<circle id="_Path_" class="st0" cx="558" cy="-15.9" r="256"/>
	<g id="_Clip_Group_">
		<g>
			<defs>
				<circle id="SVGID_1_" cx="558" cy="-15.9" r="256"/>
			</defs>
			<clipPath id="SVGID_2_">
				<use xlink:href="#SVGID_1_"  style="overflow:visible;"/>
			</clipPath>
			<g class="st1">
				<polygon id="_Path_2" class="st2" points="430,25.1 403,85.1 710.7,312 908.6,237.4 946.7,194 668,-142.9 436,-139.9 				"/>
			</g>
		</g>
	</g>
</g>
<g id="Layer_3">
	<path id="_Path_3" class="st3" d="M567.6,47.5h-29.1c-2.7,0-4.8,2.2-4.8,4.9s2.2,4.9,4.8,4.9h29.1c2.7,0,4.9-2.2,4.9-4.9
		S570.3,47.5,567.6,47.5z"/>
	<g id="_Group_">
		<path id="_Compound_Path_" class="st3" d="M705,71.3L705,71.3c0-0.2,0-0.4-0.1-0.6v-0.1c0-0.1-0.1-0.3-0.1-0.4V70
			c-0.1-0.2-0.1-0.3-0.2-0.5l0,0l-26.9-50.7v-132.1c0-0.6-0.1-1.3-0.4-1.9v-16.5c0-3-0.9-6-2.7-8.5L576.2-36.7
			c-1.8,2-4.9,2.1-6.9,0.3c-0.1-0.1-0.2-0.2-0.3-0.3l-37.5-39.5L450.9,8.9c-1.8,2-4.9,2.1-6.9,0.3c-0.1-0.1-0.2-0.2-0.3-0.3
			c-2-2.1-2-5.4,0-7.6L528-87.5c1.8-2,4.9-2.1,6.9-0.3c0.1,0.1,0.2,0.2,0.3,0.3l37.5,39.5l92.8-97.8c-0.6-0.1-1.2-0.1-1.8-0.1H441.9
			c-7.4,0-13.5,6.4-13.5,14.3V4.4c0,0.6,0,1.2,0.1,1.8v12.6l-26.9,50.6v0.1c-0.1,0.2-0.2,0.3-0.2,0.5v0.1c-0.1,0.1-0.1,0.3-0.1,0.4
			v0.1c0,0.2-0.1,0.4-0.1,0.6c0,0.2,0,0.3,0,0.5v9.7c0,13.4,10.9,24.2,24.3,24.3h255.3c13.4,0,24.2-10.9,24.3-24.3v-9.7
			C705,71.6,705,71.4,705,71.3z M436.3,24.8h233.5l22.3,42H413.9L436.3,24.8z M695.3,81.4c0,8-6.5,14.5-14.5,14.5H425.3
			c-8,0-14.5-6.5-14.6-14.5v-4.9h284.6L695.3,81.4z"/>
		<path id="_Path_4" class="st3" d="M673.7-169.5h14.4l-27.5,28.8c3.5,0.5,6.7,2.5,8.8,5.4l25.7-26.9v15.1c-0.1,2.7,2,5,4.7,5.2
			c2.7,0.1,5-2,5.2-4.7c0-0.1,0-0.3,0-0.4v-27.6c0.1-2.8-2.1-5.1-4.9-5.2c0,0,0,0,0,0h-26.3c-2.9,0.1-5.1,2.5-4.9,5.4
			C668.9-171.7,671.1-169.6,673.7-169.5L673.7-169.5z"/>
	</g>
</g>
</svg>
