<svg xmlns="http://www.w3.org/2000/svg" xmlns:xlink="http://www.w3.org/1999/xlink" width="22.03" height="23" viewBox="0 0 22.03 23">
  <metadata><?xpacket begin="﻿" id="W5M0MpCehiHzreSzNTczkc9d"?>
<x:xmpmeta xmlns:x="adobe:ns:meta/" x:xmptk="Adobe XMP Core 5.6-c138 79.159824, 2016/09/14-01:09:01        ">
   <rdf:RDF xmlns:rdf="http://www.w3.org/1999/02/22-rdf-syntax-ns#">
      <rdf:Description rdf:about=""/>
   </rdf:RDF>
</x:xmpmeta>
                                                                                                    
                                                                                                    
                                                                                                    
                                                                                                    
                                                                                                    
                                                                                                    
                                                                                                    
                                                                                                    
                                                                                                    
                                                                                                    
                                                                                                    
                                                                                                    
                                                                                                    
                                                                                                    
                                                                                                    
                                                                                                    
                                                                                                    
                                                                                                    
                                                                                                    
                                                                                                    
                           
<?xpacket end="w"?></metadata>
<defs>
    <style>
      .cls-1 {
        fill-rule: evenodd;
        filter: url(#filter);
      }
    </style>
    <filter id="filter" x="1032" y="376" width="22.03" height="23" filterUnits="userSpaceOnUse">
      <feFlood result="flood" flood-color="#4c6e87"/>
      <feComposite result="composite" operator="in" in2="SourceGraphic"/>
      <feBlend result="blend" in2="SourceGraphic"/>
    </filter>
  </defs>
  <path class="cls-1" d="M1053.75,379.423l-3.21-3.177a0.867,0.867,0,0,0-1.21,0,0.845,0.845,0,0,0,0,1.195l1.76,1.734h-3.43a7.3,7.3,0,0,0-7.34,7.25v2.147a5.6,5.6,0,0,1-5.63,5.563h-1.84a0.844,0.844,0,1,0,0,1.687h1.84a7.3,7.3,0,0,0,7.34-7.25v-2.147a5.6,5.6,0,0,1,5.63-5.563h3.43l-1.76,1.734a0.846,0.846,0,0,0,0,1.2,0.862,0.862,0,0,0,1.21,0l3.21-3.173A0.846,0.846,0,0,0,1053.75,379.423Zm-13.8,1.95a7.3,7.3,0,0,0-5.26-2.2h-1.84a0.844,0.844,0,1,0,0,1.687h1.84a5.631,5.631,0,0,1,4.04,1.688,0.853,0.853,0,0,0,.61.257A0.847,0.847,0,0,0,1039.95,381.373Zm13.8,13.011-3.21-3.173a0.867,0.867,0,0,0-1.21,0,0.845,0.845,0,0,0,0,1.195l1.76,1.734h-3.43a5.618,5.618,0,0,1-4.04-1.687,0.866,0.866,0,0,0-1.21-.019,0.854,0.854,0,0,0-.02,1.195,7.359,7.359,0,0,0,5.27,2.2h3.43l-1.76,1.734a0.849,0.849,0,0,0,.61,1.439,0.855,0.855,0,0,0,.6-0.248l3.21-3.173A0.845,0.845,0,0,0,1053.75,394.384Z" transform="translate(-1032 -376)"/>
</svg>
