<svg xmlns="http://www.w3.org/2000/svg" xmlns:xlink="http://www.w3.org/1999/xlink" width="25" height="19" viewBox="0 0 25 19">
  <metadata><?xpacket begin="﻿" id="W5M0MpCehiHzreSzNTczkc9d"?>
<x:xmpmeta xmlns:x="adobe:ns:meta/" x:xmptk="Adobe XMP Core 5.6-c138 79.159824, 2016/09/14-01:09:01        ">
   <rdf:RDF xmlns:rdf="http://www.w3.org/1999/02/22-rdf-syntax-ns#">
      <rdf:Description rdf:about=""/>
   </rdf:RDF>
</x:xmpmeta>
                                                                                                    
                                                                                                    
                                                                                                    
                                                                                                    
                                                                                                    
                                                                                                    
                                                                                                    
                                                                                                    
                                                                                                    
                                                                                                    
                                                                                                    
                                                                                                    
                                                                                                    
                                                                                                    
                                                                                                    
                                                                                                    
                                                                                                    
                                                                                                    
                                                                                                    
                                                                                                    
                           
<?xpacket end="w"?></metadata>
<defs>
    <style>
      .cls-1 {
        fill-rule: evenodd;
        filter: url(#filter);
      }
    </style>
    <filter id="filter" x="132" y="1015" width="25" height="19" filterUnits="userSpaceOnUse">
      <feFlood result="flood" flood-color="#4c6e87"/>
      <feComposite result="composite" operator="in" in2="SourceGraphic"/>
      <feBlend result="blend" in2="SourceGraphic"/>
    </filter>
  </defs>
  <path class="cls-1" d="M154.913,1020.61h-2.544v-3.55a2.08,2.08,0,0,0-2.087-2.06h-16.2a2.08,2.08,0,0,0-2.087,2.06v9.26a2.082,2.082,0,0,0,2.087,2.07h2.544v3.55a2.08,2.08,0,0,0,2.087,2.06h16.2a2.08,2.08,0,0,0,2.087-2.06v-9.26A2.082,2.082,0,0,0,154.913,1020.61Zm-21.72-3.55a0.891,0.891,0,0,1,.894-0.88h16.2a0.891,0.891,0,0,1,.894.88v0.83H133.193v-0.83Zm3.438,5.62v4.53h-2.544a0.893,0.893,0,0,1-.894-0.89v-4.52h3.638A1.99,1.99,0,0,0,136.631,1022.68Zm-3.438-2.06v-1.55h17.983v1.54H138.718c-0.04,0-.08.01-0.12,0.01h-5.405Zm21.72,12.2h-16.2a0.891,0.891,0,0,1-.894-0.88v-9.26a0.879,0.879,0,0,1,.821-0.88h13.127a0.146,0.146,0,0,0,.065-0.01h3.076a0.893,0.893,0,0,1,.894.89v9.26h0A0.891,0.891,0,0,1,154.913,1032.82Zm-6.3-8.36a2.885,2.885,0,0,0-1.794.63,2.877,2.877,0,0,0-4.674,2.22,2.887,2.887,0,0,0,4.674,2.22A2.858,2.858,0,1,0,148.612,1024.46Zm-2.552,4.15a1.665,1.665,0,1,1,0-2.61,2.809,2.809,0,0,0-.323,1.31A2.769,2.769,0,0,0,146.06,1028.61Zm2.552,0.36a1.665,1.665,0,1,1,1.682-1.66A1.676,1.676,0,0,1,148.612,1028.97Z" transform="translate(-132 -1015)"/>
</svg>
