<svg xmlns="http://www.w3.org/2000/svg" xmlns:xlink="http://www.w3.org/1999/xlink" width="23" height="23" viewBox="0 0 23 23">
  <metadata><?xpacket begin="﻿" id="W5M0MpCehiHzreSzNTczkc9d"?>
<x:xmpmeta xmlns:x="adobe:ns:meta/" x:xmptk="Adobe XMP Core 5.6-c138 79.159824, 2016/09/14-01:09:01        ">
   <rdf:RDF xmlns:rdf="http://www.w3.org/1999/02/22-rdf-syntax-ns#">
      <rdf:Description rdf:about=""/>
   </rdf:RDF>
</x:xmpmeta>
                                                                                                    
                                                                                                    
                                                                                                    
                                                                                                    
                                                                                                    
                                                                                                    
                                                                                                    
                                                                                                    
                                                                                                    
                                                                                                    
                                                                                                    
                                                                                                    
                                                                                                    
                                                                                                    
                                                                                                    
                                                                                                    
                                                                                                    
                                                                                                    
                                                                                                    
                                                                                                    
                           
<?xpacket end="w"?></metadata>
<defs>
    <style>
      .cls-1 {
        fill-rule: evenodd;
        filter: url(#filter);
      }
    </style>
    <filter id="filter" x="432" y="1012" width="23" height="23" filterUnits="userSpaceOnUse">
      <feFlood result="flood" flood-color="#4c6e87"/>
      <feComposite result="composite" operator="in" in2="SourceGraphic"/>
      <feBlend result="blend" in2="SourceGraphic"/>
    </filter>
  </defs>
  <path class="cls-1" d="M454.872,1017.95l-4.707-5.72a0.6,0.6,0,0,0-.483-0.23H437.323a0.6,0.6,0,0,0-.483.23l-4.707,5.72a0.577,0.577,0,0,0-.133.37v16.09a0.608,0.608,0,0,0,.616.59h21.768a0.608,0.608,0,0,0,.616-0.59v-16.09A0.6,0.6,0,0,0,454.872,1017.95Zm-1.674-.13h-9.08v-4.64h5.267Zm-15.578-4.64h5.267v4.64h-9.08Zm-4.388,20.64v-14.81h20.536v14.81H433.232Zm16.871-10.64h-12.6a0.6,0.6,0,1,0,0,1.19h12.6A0.6,0.6,0,1,0,450.1,1023.18Zm-2.392,2.78H439.9a0.6,0.6,0,0,0-.616.59,0.609,0.609,0,0,0,.616.59h7.807a0.608,0.608,0,0,0,.616-0.59A0.6,0.6,0,0,0,447.711,1025.96Zm0,2.76H439.9a0.609,0.609,0,0,0-.616.59,0.6,0.6,0,0,0,.616.59h7.807A0.59,0.59,0,1,0,447.711,1028.72Z" transform="translate(-432 -1012)"/>
</svg>
