<svg xmlns="http://www.w3.org/2000/svg" xmlns:xlink="http://www.w3.org/1999/xlink" width="24" height="24" viewBox="0 0 24 24">
  <metadata><?xpacket begin="﻿" id="W5M0MpCehiHzreSzNTczkc9d"?>
<x:xmpmeta xmlns:x="adobe:ns:meta/" x:xmptk="Adobe XMP Core 5.6-c138 79.159824, 2016/09/14-01:09:01        ">
   <rdf:RDF xmlns:rdf="http://www.w3.org/1999/02/22-rdf-syntax-ns#">
      <rdf:Description rdf:about=""/>
   </rdf:RDF>
</x:xmpmeta>
                                                                                                    
                                                                                                    
                                                                                                    
                                                                                                    
                                                                                                    
                                                                                                    
                                                                                                    
                                                                                                    
                                                                                                    
                                                                                                    
                                                                                                    
                                                                                                    
                                                                                                    
                                                                                                    
                                                                                                    
                                                                                                    
                                                                                                    
                                                                                                    
                                                                                                    
                                                                                                    
                           
<?xpacket end="w"?></metadata>
<defs>
    <style>
      .cls-1 {
        fill-rule: evenodd;
        filter: url(#filter);
      }
    </style>
    <filter id="filter" x="431" y="695" width="24" height="24" filterUnits="userSpaceOnUse">
      <feFlood result="flood" flood-color="#4c6e87"/>
      <feComposite result="composite" operator="in" in2="SourceGraphic"/>
      <feBlend result="blend" in2="SourceGraphic"/>
    </filter>
  </defs>
  <path id="Forma_1" data-name="Forma 1" class="cls-1" d="M453,714.157h-3.865v-3.776a4.686,4.686,0,0,0,1.185-3.116,4.85,4.85,0,0,0-9.7,0,4.687,4.687,0,0,0,1.186,3.116v3.776H433V697h20v17.159h0Zm-7.529.5-1.65,1.269v-4.179a4.972,4.972,0,0,0,1.65.284,4.854,4.854,0,0,0,1.651-.284v4.179l-1.651-1.269h0Zm0-4.624a2.764,2.764,0,1,1,2.851-2.763,2.81,2.81,0,0,1-2.851,2.763h0ZM454,695H432a1,1,0,0,0-1,1v19.157a1,1,0,0,0,1,1h9.811v1.866a0.977,0.977,0,0,0,1.572.774l2.091-1.607,2.092,1.607a0.977,0.977,0,0,0,1.572-.774v-1.866H454a1,1,0,0,0,1-1V696a1,1,0,0,0-1-1h0Zm-16.139,6.559h10.271a1,1,0,0,0,0-2H437.862a1,1,0,0,0,0,2h0Z" transform="translate(-431 -695)"/>
</svg>
