<?xml version="1.0" encoding="utf-8"?>
<!-- Generator: Adobe Illustrator 19.1.0, SVG Export Plug-In . SVG Version: 6.00 Build 0)  -->
<svg version="1.1" id="Layer_1" xmlns="http://www.w3.org/2000/svg" xmlns:xlink="http://www.w3.org/1999/xlink" x="0px" y="0px"
	 viewBox="0 0 1474.5 450" enable-background="new 0 0 1474.5 450" xml:space="preserve">
<g>
	<g>
		<path d="M574.3,141.3c26-25.7,58.8-38.7,96.3-38.7c35.3,0,68.8,13.8,94.5,39c26.8,26.4,40.9,60.2,40.9,96.3
			c0,37.9-13.4,71.8-38.3,97.4c-25.7,26.8-60.6,41.3-97.4,41.3c-39,0-72.5-14.1-98.5-41.6c-24.9-26.4-37.6-59.1-37.6-98.2
			C534.2,200.4,548.3,166.9,574.3,141.3z M670.2,311.2c37.9,0,68.8-30.5,68.8-73.6c0-38.7-30.9-69.5-68.1-69.5
			c-39.4,0-70.3,30.9-70.3,69.5C600.7,279.2,633.8,311.2,670.2,311.2z"/>
		<path d="M897,107.4v264.4h-58.4V107.4H897z"/>
		<path d="M1084.1,349.5c-17.5,17.1-35.3,23.4-59.1,23.4c-24.2,0-45-7.8-62.5-23.4c-23.1-20.5-35-47.2-35-78.5
			c0-28.6,11.2-54.3,32-74.4c18.6-18.2,41.3-27.5,66.6-27.5c24.2,0,42.8,8.2,56.1,25.3v-22.3h58.8v199.7h-56.9V349.5z M1038,319.7
			c25.3,0,46.5-20.8,46.5-48.3c0-28.6-21.2-50.2-48.7-50.2c-27.9,0-49.5,22.7-49.5,49.5C986.3,298.6,1007.8,319.7,1038,319.7z"/>
		<path d="M1179.6,371.8V172.1h53.2v26.8c12.3-20.5,30.1-30.5,54.3-30.5c24.2,0,42.4,10.4,55.4,32c20.8-21.9,36.8-32,61.7-32
			c45,0,70.3,25.3,70.3,71.8v131.6h-57.3V263.6c0-27.9-5.9-40.5-27.9-40.5c-22.3,0-34.2,13.8-34.2,40.5v108.2h-57.6V263.6
			c0-27.9-5.9-40.5-27.9-40.5c-22.3,0-34.2,13.8-34.2,40.5v108.2H1179.6z"/>
	</g>
	<g id="XMLID_33_">
		<path id="XMLID_35_" fill="#698714" d="M450,225c-124.3,0-225,100.7-225,225C349.3,450,450,349.3,450,225z"/>
		<path id="XMLID_34_" fill="#698714" d="M0,225c0,124.3,100.7,225,225,225C225,325.7,124.3,225,0,225z"/>
	</g>
	<g id="XMLID_31_">
		<path id="XMLID_32_" fill="#A0C800" d="M225,407.3c0-121.3,96.1-238.8,216.3-244.2c-8.4-29.5-22.7-56.6-41.6-79.8
			C299.7,118.8,225,253.7,225,360.7c0-107-74.7-241.9-174.7-277.5C31.4,106.5,17.2,133.5,8.7,163C128.9,168.5,225,285.9,225,407.3z"
			/>
	</g>
	<g id="XMLID_29_">
		<path id="XMLID_30_" fill="#A0C800" d="M225,313.5c0-85.6,47.8-211.3,118.2-279.9C308.8,12.3,268.4,0,225,0
			c-43.4,0-83.8,12.3-118.2,33.6C177.2,102.2,225,227.9,225,313.5z"/>
	</g>
</g>
</svg>
