<svg xmlns="http://www.w3.org/2000/svg" xmlns:xlink="http://www.w3.org/1999/xlink" viewBox="0 0 575.88 594.09"><defs><style>.cls-1{fill:none;}.cls-2{fill:#698714;}.cls-3{clip-path:url(#clip-path);}.cls-4{opacity:0.4;}.cls-5{fill:#fff;}</style><clipPath id="clip-path"><circle id="_Clipping_Path_" data-name="&lt;Clipping Path&gt;" class="cls-1" cx="256" cy="256" r="256"/></clipPath></defs><title>Party_highlight</title><g id="Layer_4" data-name="Layer 4"><circle id="_Path_" data-name="&lt;Path&gt;" class="cls-2" cx="256" cy="256" r="256"/><g id="_Clip_Group_" data-name="&lt;Clip Group&gt;"><g class="cls-3"><polygon id="_Path_2" data-name="&lt;Path&gt;" class="cls-4" points="83.67 260.33 115.67 358.33 112.33 375 116.33 389 373.88 594.09 523.88 533.09 575.88 467.09 322.33 153.67 212.33 243.67 207 260.33 83.67 260.33"/></g></g><path id="_Path_3" data-name="&lt;Path&gt;" class="cls-5" d="M165,168"/></g><g id="Layer_3" data-name="Layer 3"><g id="_Group_" data-name="&lt;Group&gt;"><g id="_Group_2" data-name="&lt;Group&gt;"><circle id="_Path_4" data-name="&lt;Path&gt;" class="cls-5" cx="128.48" cy="377.85" r="15.91"/><circle id="_Path_5" data-name="&lt;Path&gt;" class="cls-5" cx="203.46" cy="377.85" r="15.91"/><path id="_Compound_Path_" data-name="&lt;Compound Path&gt;" class="cls-5" d="M81.84,260.12l32.68,94.23c.13.75.85,2.16,1.61,2.17h100.3a1.52,1.52,0,0,0,1.5-1.36s.07-109.26.07-110a1.42,1.42,0,0,1,1.38-1.38h12.12a1.37,1.37,0,0,0,1.37-1.38v-7.82a1.37,1.37,0,0,0-1.37-1.38h-24a1.37,1.37,0,0,0-1.38,1.38v22.52a1.38,1.38,0,0,1-1.38,1.38H83A1.32,1.32,0,0,0,81.84,260.12ZM206.71,338a1.38,1.38,0,0,1-1.38,1.38H121.4A1.37,1.37,0,0,1,120,338v-6.88a1.37,1.37,0,0,1,1.38-1.38h83.94a1.38,1.38,0,0,1,1.38,1.38V338Zm0-18.34a1.38,1.38,0,0,1-1.38,1.38H113.95a1.37,1.37,0,0,1-1.38-1.38v-6.88a1.37,1.37,0,0,1,1.38-1.38h91.38a1.38,1.38,0,0,1,1.38,1.38v6.88Zm0-18.17a1.38,1.38,0,0,1-1.38,1.38H107.6a1.37,1.37,0,0,1-1.38-1.38v-6.88a1.37,1.37,0,0,1,1.38-1.38h97.74a1.38,1.38,0,0,1,1.38,1.38v6.88ZM100,276.85a1.38,1.38,0,0,1,1.38-1.38H205.33a1.38,1.38,0,0,1,1.38,1.38v6.88a1.38,1.38,0,0,1-1.38,1.38H101.42a1.37,1.37,0,0,1-1.38-1.38Z"/><circle id="_Path_6" data-name="&lt;Path&gt;" class="cls-5" cx="282.74" cy="127.14" r="23.65"/><path id="_Path_7" data-name="&lt;Path&gt;" class="cls-5" d="M340.65,386a11.82,11.82,0,0,0,22.93-5.71l-29.65-119c3.12-1,8.65-4.68,7.07-16.08l-16.15-88.55a5,5,0,0,0-5.69-4.2l-36.48,7c-.29,0-.58.1-.87.16l-.51.09a4.6,4.6,0,0,0-1,.33,12,12,0,0,0-7,6.4L259,198.87l-19.9,4.69-6.55,1.53a11.81,11.81,0,1,0,5.37,23l21.2-4.94a11.42,11.42,0,0,0,1.64-.56l9.69-2.29a12.09,12.09,0,0,0,8.18-6.8L284,201.59l9.71,54.72-32.74,46a11.81,11.81,0,0,0-2.16,6l-5.12,74a11.82,11.82,0,0,0,11,12.6l.83,0a11.82,11.82,0,0,0,11.78-11l4.89-70.71,29.91-42Z"/></g></g></g></svg>