<svg xmlns="http://www.w3.org/2000/svg" xmlns:xlink="http://www.w3.org/1999/xlink" preserveAspectRatio="xMidYMid" width="15" height="15" viewBox="0 0 15 15">
  <defs>
    <style>
      .cls-1 {
        fill: #8fad1c;
        filter: url(#color-overlay-1);
        fill-rule: evenodd;
      }
    </style>

    <filter id="color-overlay-1" filterUnits="userSpaceOnUse">
      <feFlood flood-color="#176db6"/>
      <feComposite operator="in" in2="SourceGraphic"/>
      <feBlend in2="SourceGraphic" result="solidFill"/>
    </filter>
  </defs>
  <path d="M13.432,14.219 L6.364,14.219 C6.310,14.383 6.216,14.535 6.084,14.662 C5.857,14.880 5.552,15.000 5.223,15.000 L1.194,15.000 C0.865,15.000 0.560,14.880 0.333,14.662 C0.107,14.444 -0.012,14.157 0.000,13.852 L0.204,8.703 C0.217,8.363 0.217,7.788 0.203,7.448 L0.001,2.456 C-0.011,2.152 0.107,1.864 0.333,1.646 C0.560,1.428 0.865,1.308 1.194,1.308 L5.223,1.308 C5.552,1.308 5.857,1.428 6.084,1.646 C6.267,1.822 6.377,2.043 6.407,2.282 L6.571,2.282 L6.571,0.678 C6.571,0.304 6.899,-0.000 7.302,-0.000 L12.649,-0.000 C13.052,-0.000 13.380,0.304 13.380,0.678 L13.380,2.282 L13.673,2.282 C14.404,2.282 15.000,2.934 15.000,3.735 L15.000,12.766 C15.000,13.567 14.297,14.219 13.432,14.219 ZM5.169,7.412 L5.371,2.420 C5.373,2.370 5.351,2.337 5.331,2.318 C5.312,2.299 5.277,2.277 5.223,2.277 L1.194,2.277 C1.140,2.277 1.105,2.299 1.086,2.318 C1.066,2.337 1.043,2.370 1.045,2.420 L1.247,7.412 C1.262,7.778 1.263,8.373 1.248,8.738 L1.045,13.888 C1.043,13.938 1.066,13.971 1.085,13.990 C1.105,14.009 1.140,14.031 1.194,14.031 L5.223,14.031 C5.277,14.031 5.312,14.009 5.331,13.990 C5.351,13.971 5.374,13.938 5.372,13.888 L5.169,8.738 C5.154,8.373 5.155,7.778 5.169,7.412 ZM12.335,0.969 L7.616,0.969 L7.616,4.441 L12.335,4.441 L12.335,0.969 ZM13.955,3.735 C13.955,3.444 13.785,3.251 13.673,3.251 L13.380,3.251 L13.380,4.731 C13.380,5.105 13.052,5.409 12.649,5.409 L7.302,5.409 C6.899,5.409 6.571,5.105 6.571,4.731 L6.571,3.251 L6.384,3.251 L6.214,7.448 C6.200,7.789 6.200,8.363 6.213,8.703 L6.393,13.251 L13.432,13.251 C13.721,13.251 13.955,13.033 13.955,12.766 L13.955,3.735 ZM12.509,11.486 L11.922,11.486 C11.633,11.486 11.399,11.269 11.399,11.002 C11.399,10.734 11.633,10.517 11.922,10.517 L12.509,10.517 C12.798,10.517 13.032,10.734 13.032,11.002 C13.032,11.269 12.798,11.486 12.509,11.486 ZM12.509,9.632 L11.922,9.632 C11.633,9.632 11.399,9.415 11.399,9.148 C11.399,8.880 11.633,8.663 11.922,8.663 L12.509,8.663 C12.798,8.663 13.032,8.880 13.032,9.148 C13.032,9.415 12.798,9.632 12.509,9.632 ZM12.509,7.778 L11.922,7.778 C11.633,7.778 11.399,7.561 11.399,7.294 C11.399,7.026 11.633,6.810 11.922,6.810 L12.509,6.810 C12.798,6.810 13.032,7.026 13.032,7.294 C13.032,7.561 12.798,7.778 12.509,7.778 ZM10.235,11.486 L9.647,11.486 C9.358,11.486 9.125,11.269 9.125,11.002 C9.125,10.734 9.358,10.517 9.647,10.517 L10.235,10.517 C10.523,10.517 10.757,10.734 10.757,11.002 C10.757,11.269 10.523,11.486 10.235,11.486 ZM10.235,9.632 L9.647,9.632 C9.358,9.632 9.125,9.415 9.125,9.148 C9.125,8.880 9.358,8.663 9.647,8.663 L10.235,8.663 C10.523,8.663 10.757,8.880 10.757,9.148 C10.757,9.415 10.523,9.632 10.235,9.632 ZM10.235,7.778 L9.647,7.778 C9.358,7.778 9.125,7.561 9.125,7.294 C9.125,7.026 9.358,6.810 9.647,6.810 L10.235,6.810 C10.523,6.810 10.757,7.026 10.757,7.294 C10.757,7.561 10.523,7.778 10.235,7.778 ZM7.960,11.486 L7.372,11.486 C7.084,11.486 6.850,11.269 6.850,11.002 C6.850,10.734 7.084,10.517 7.372,10.517 L7.960,10.517 C8.248,10.517 8.482,10.734 8.482,11.002 C8.482,11.269 8.248,11.486 7.960,11.486 ZM7.960,9.632 L7.372,9.632 C7.084,9.632 6.850,9.415 6.850,9.148 C6.850,8.880 7.084,8.663 7.372,8.663 L7.960,8.663 C8.248,8.663 8.482,8.880 8.482,9.148 C8.482,9.415 8.248,9.632 7.960,9.632 ZM7.960,7.778 L7.372,7.778 C7.084,7.778 6.850,7.561 6.850,7.294 C6.850,7.026 7.084,6.810 7.372,6.810 L7.960,6.810 C8.248,6.810 8.482,7.026 8.482,7.294 C8.482,7.561 8.248,7.778 7.960,7.778 ZM8.745,1.469 L11.207,1.469 C11.399,1.469 11.555,1.614 11.555,1.792 C11.555,1.971 11.399,2.115 11.207,2.115 L8.745,2.115 C8.552,2.115 8.396,1.971 8.396,1.792 C8.396,1.614 8.552,1.469 8.745,1.469 ZM8.745,2.863 L10.199,2.863 C10.391,2.863 10.547,3.007 10.547,3.186 C10.547,3.364 10.391,3.509 10.199,3.509 L8.745,3.509 C8.552,3.509 8.396,3.364 8.396,3.186 C8.396,3.007 8.552,2.863 8.745,2.863 Z" class="cls-1"/>
</svg>
