<svg xmlns="http://www.w3.org/2000/svg" xmlns:xlink="http://www.w3.org/1999/xlink" preserveAspectRatio="xMidYMid" width="16" height="17" viewBox="0 0 16 17">
  <defs>
    <style>
      .cls-1 {
        fill: #000;
        fill-rule: evenodd;
      }
    </style>
  </defs>
  <path d="M15.775,15.484 L11.826,11.276 C12.841,10.039 13.397,8.484 13.397,6.864 C13.397,3.079 10.392,0.000 6.698,0.000 C3.004,0.000 -0.002,3.079 -0.002,6.864 C-0.002,10.648 3.004,13.727 6.698,13.727 C8.085,13.727 9.406,13.299 10.536,12.485 L14.515,16.725 C14.682,16.902 14.905,17.000 15.145,17.000 C15.372,17.000 15.587,16.911 15.751,16.750 C16.098,16.408 16.109,15.840 15.775,15.484 ZM6.698,1.791 C9.428,1.791 11.650,4.066 11.650,6.864 C11.650,9.661 9.428,11.937 6.698,11.937 C3.967,11.937 1.746,9.661 1.746,6.864 C1.746,4.066 3.967,1.791 6.698,1.791 Z" class="cls-1"/>
</svg>
