<svg xmlns="http://www.w3.org/2000/svg" xmlns:xlink="http://www.w3.org/1999/xlink" preserveAspectRatio="xMidYMid" width="14" height="14" viewBox="0 0 14 14">
  <defs>
    <style>
      .cls-1 {
        fill: #7a9809;
        filter: url(#color-overlay-1);
        fill-rule: evenodd;
      }
    </style>

    <filter id="color-overlay-1" filterUnits="userSpaceOnUse">
      <feFlood flood-color="#176db6"/>
      <feComposite operator="in" in2="SourceGraphic"/>
      <feBlend in2="SourceGraphic" result="solidFill"/>
    </filter>
  </defs>
  <path d="M13.086,10.439 C13.672,9.411 14.000,8.237 14.000,6.990 C14.000,5.743 13.672,4.550 13.086,3.541 C13.067,3.503 13.049,3.486 13.032,3.468 C11.825,1.395 9.578,-0.000 7.000,-0.000 C4.441,-0.000 2.193,1.395 0.968,3.467 C0.949,3.486 0.931,3.522 0.914,3.541 C0.328,4.550 -0.000,5.724 -0.000,6.990 L-0.000,6.990 L-0.000,6.990 L-0.000,6.990 C-0.000,10.862 3.126,14.000 6.983,14.000 C9.542,14.000 11.790,12.605 13.015,10.532 C13.049,10.493 13.067,10.474 13.086,10.439 ZM0.711,7.319 L3.070,7.319 C3.107,8.237 3.290,9.135 3.581,9.980 L1.442,9.980 C1.022,9.171 0.767,8.272 0.711,7.319 ZM1.442,3.998 L3.581,3.998 C3.270,4.842 3.106,5.722 3.070,6.640 L0.711,6.640 C0.767,5.685 1.022,4.786 1.442,3.998 ZM13.306,6.640 L10.984,6.640 C10.947,5.722 10.764,4.842 10.473,3.998 L12.575,3.998 C12.995,4.786 13.250,5.685 13.306,6.640 ZM10.307,6.640 L7.345,6.640 L7.345,3.998 L9.740,3.998 C10.070,4.823 10.271,5.703 10.307,6.640 ZM7.347,3.318 L7.347,0.749 C8.224,1.464 8.938,2.327 9.430,3.299 L7.347,3.299 L7.347,3.318 ZM6.670,0.787 L6.670,3.301 L4.622,3.301 C5.116,2.346 5.812,1.502 6.670,0.787 ZM6.670,3.998 L6.670,6.640 L3.745,6.640 C3.783,5.722 3.982,4.823 4.312,3.998 L6.670,3.998 ZM3.745,7.319 L6.670,7.319 L6.670,9.980 L4.312,9.980 C3.984,9.135 3.783,8.237 3.745,7.319 ZM6.670,10.658 L6.670,13.172 C5.810,12.476 5.116,11.613 4.622,10.658 L6.670,10.658 ZM7.347,13.208 L7.347,10.658 L9.430,10.658 C8.919,11.631 8.224,12.493 7.347,13.208 ZM7.347,9.980 L7.347,7.319 L10.309,7.319 C10.271,8.255 10.072,9.154 9.742,9.980 L7.347,9.980 L7.347,9.980 ZM10.984,7.319 L13.306,7.319 C13.252,8.274 12.995,9.192 12.556,9.980 L10.473,9.980 C10.764,9.135 10.947,8.237 10.984,7.319 ZM12.153,3.318 L10.180,3.318 C9.760,2.401 9.156,1.537 8.425,0.822 C9.941,1.172 11.258,2.071 12.153,3.318 ZM5.646,0.805 C4.896,1.539 4.312,2.384 3.872,3.320 L1.863,3.320 C2.759,2.052 4.092,1.135 5.646,0.805 ZM1.863,10.658 L3.855,10.658 C4.294,11.594 4.879,12.438 5.629,13.172 C4.092,12.824 2.759,11.907 1.863,10.658 ZM8.425,13.154 C9.156,12.420 9.759,11.575 10.180,10.658 L12.137,10.658 C11.258,11.888 9.941,12.806 8.425,13.154 Z" class="cls-1"/>
</svg>
