<svg xmlns="http://www.w3.org/2000/svg" xmlns:xlink="http://www.w3.org/1999/xlink" width="31" height="32.031" viewBox="0 0 31 32.031">
  <metadata><?xpacket begin="﻿" id="W5M0MpCehiHzreSzNTczkc9d"?>
<x:xmpmeta xmlns:x="adobe:ns:meta/" x:xmptk="Adobe XMP Core 5.6-c138 79.159824, 2016/09/14-01:09:01        ">
   <rdf:RDF xmlns:rdf="http://www.w3.org/1999/02/22-rdf-syntax-ns#">
      <rdf:Description rdf:about=""/>
   </rdf:RDF>
</x:xmpmeta>
                                                                                                    
                                                                                                    
                                                                                                    
                                                                                                    
                                                                                                    
                                                                                                    
                                                                                                    
                                                                                                    
                                                                                                    
                                                                                                    
                                                                                                    
                                                                                                    
                                                                                                    
                                                                                                    
                                                                                                    
                                                                                                    
                                                                                                    
                                                                                                    
                                                                                                    
                                                                                                    
                           
<?xpacket end="w"?></metadata>
<defs>
    <style>
      .cls-1 {
        fill: #6f8dac;
        fill-rule: evenodd;
        filter: url(#filter);
      }
    </style>
    <filter id="filter" x="21" y="125.969" width="31" height="32.031" filterUnits="userSpaceOnUse">
      <feFlood result="flood" flood-color="#ccc"/>
      <feComposite result="composite" operator="in" in2="SourceGraphic"/>
      <feBlend result="blend" in2="SourceGraphic"/>
    </filter>
  </defs>
  <path id="Forma_1" data-name="Forma 1" class="cls-1" d="M46.291,141.176h0a0.854,0.854,0,1,1-.855.853,0.853,0.853,0,0,1,.855-0.853Zm-3.154-6.44,0,0a0.853,0.853,0,1,0,1.207.075,0.851,0.851,0,0,0-1.207-.075Zm2.2,3.038h0a0.853,0.853,0,1,0,1.117.464,0.852,0.852,0,0,0-1.117-.464Zm5.5-1.128a15.5,15.5,0,0,0-4.561-6.152,0.854,0.854,0,0,0-1.076,1.325,13.783,13.783,0,1,1-6.908-2.973,0.853,0.853,0,1,0,.224-1.692A15.486,15.486,0,1,0,50.837,136.646ZM30.451,146.688H42.542a0.854,0.854,0,1,0,0-1.707H30.451A0.854,0.854,0,1,0,30.451,146.688Zm5.693-3.884a0.854,0.854,0,0,0,1.13-.425l6.874-15.173a0.854,0.854,0,0,0-1.555-.7l-6.873,15.173A0.853,0.853,0,0,0,36.144,142.8Zm0.736-9.74a0.853,0.853,0,1,0,.079-1.7c-0.169-.008-0.339-0.012-0.506-0.012a10.7,10.7,0,0,0-10.686,10.681,0.854,0.854,0,1,0,1.707,0A8.985,8.985,0,0,1,36.88,133.064Z" transform="translate(-21 -125.969)"/>
</svg>
