<svg xmlns="http://www.w3.org/2000/svg" xmlns:xlink="http://www.w3.org/1999/xlink" width="27" height="29" viewBox="0 0 27 29">
  <metadata><?xpacket begin="﻿" id="W5M0MpCehiHzreSzNTczkc9d"?>
<x:xmpmeta xmlns:x="adobe:ns:meta/" x:xmptk="Adobe XMP Core 5.6-c138 79.159824, 2016/09/14-01:09:01        ">
   <rdf:RDF xmlns:rdf="http://www.w3.org/1999/02/22-rdf-syntax-ns#">
      <rdf:Description rdf:about=""/>
   </rdf:RDF>
</x:xmpmeta>
                                                                                                    
                                                                                                    
                                                                                                    
                                                                                                    
                                                                                                    
                                                                                                    
                                                                                                    
                                                                                                    
                                                                                                    
                                                                                                    
                                                                                                    
                                                                                                    
                                                                                                    
                                                                                                    
                                                                                                    
                                                                                                    
                                                                                                    
                                                                                                    
                                                                                                    
                                                                                                    
                           
<?xpacket end="w"?></metadata>
<defs>
    <style>
      .cls-1 {
        fill: #fff;
        fill-rule: evenodd;
        filter: url(#filter);
      }
    </style>
    <filter id="filter" x="23" y="675" width="27" height="29" filterUnits="userSpaceOnUse">
      <feFlood result="flood" flood-color="#ccc"/>
      <feComposite result="composite" operator="in" in2="SourceGraphic"/>
      <feBlend result="blend" in2="SourceGraphic"/>
    </filter>
  </defs>
  <path class="cls-1" d="M42.542,675H23.574a0.576,0.576,0,0,0-.574.577v27.845a0.576,0.576,0,0,0,.574.578H42.542a0.576,0.576,0,0,0,.574-0.578V675.577A0.576,0.576,0,0,0,42.542,675Zm-0.574,27.845H24.147v-26.69H41.969v26.69ZM38.885,679.91H38.673a0.578,0.578,0,0,0,0,1.155h0.213A0.578,0.578,0,0,0,38.885,679.91Zm-2.723,0H27.231a0.578,0.578,0,0,0,0,1.155h8.932A0.578,0.578,0,0,0,36.162,679.91Zm2.723,4.506H27.231a0.578,0.578,0,0,0,0,1.156H38.885A0.578,0.578,0,0,0,38.885,684.416Zm0,4.506H27.231a0.578,0.578,0,0,0,0,1.156H38.885A0.578,0.578,0,0,0,38.885,688.922Zm0,4.566H27.231a0.578,0.578,0,0,0,0,1.155H38.885A0.578,0.578,0,0,0,38.885,693.488Zm0,4.506H27.231a0.578,0.578,0,0,0,0,1.155H38.885A0.578,0.578,0,0,0,38.885,697.994Zm9.336-16.8v-1.02a0.576,0.576,0,0,0-.485-0.57v-1.8a0.576,0.576,0,0,0-.574-0.578h-1.44a0.576,0.576,0,0,0-.574.578v1.8a0.576,0.576,0,0,0-.485.57v18.586a1.7,1.7,0,0,0,1.2,1.629V701.2a0.574,0.574,0,1,0,1.147,0v-0.813a1.7,1.7,0,0,0,1.2-1.629V682.389a1.043,1.043,0,0,1,.631.959v4.159a0.574,0.574,0,1,0,1.147,0v-4.159A2.195,2.195,0,0,0,48.222,681.19ZM46.3,678.379H46.59v1.213H46.3v-1.213Zm-0.485,2.369h1.262V694.5H45.812V680.748Zm1.262,18.008h0a0.544,0.544,0,0,1-.542.545H46.354a0.544,0.544,0,0,1-.542-0.545v-3.1h1.262v3.1h0Z" transform="translate(-23 -675)"/>
</svg>
