<svg xmlns="http://www.w3.org/2000/svg" xmlns:xlink="http://www.w3.org/1999/xlink" width="31" height="31" viewBox="0 0 31 31">
  <metadata><?xpacket begin="﻿" id="W5M0MpCehiHzreSzNTczkc9d"?>
<x:xmpmeta xmlns:x="adobe:ns:meta/" x:xmptk="Adobe XMP Core 5.6-c138 79.159824, 2016/09/14-01:09:01        ">
   <rdf:RDF xmlns:rdf="http://www.w3.org/1999/02/22-rdf-syntax-ns#">
      <rdf:Description rdf:about=""/>
   </rdf:RDF>
</x:xmpmeta>
                                                                                                    
                                                                                                    
                                                                                                    
                                                                                                    
                                                                                                    
                                                                                                    
                                                                                                    
                                                                                                    
                                                                                                    
                                                                                                    
                                                                                                    
                                                                                                    
                                                                                                    
                                                                                                    
                                                                                                    
                                                                                                    
                                                                                                    
                                                                                                    
                                                                                                    
                                                                                                    
                           
<?xpacket end="w"?></metadata>
<defs>
    <style>
      .cls-1 {
        fill: #fff;
        fill-rule: evenodd;
        filter: url(#filter);
      }
    </style>
    <filter id="filter" x="21" y="332" width="31" height="31" filterUnits="userSpaceOnUse">
      <feFlood result="flood" flood-color="#ccc"/>
      <feComposite result="composite" operator="in" in2="SourceGraphic"/>
      <feBlend result="blend" in2="SourceGraphic"/>
    </filter>
  </defs>
  <path class="cls-1" d="M51.367,333.9h-11.7v-1.265A0.633,0.633,0,0,0,39.031,332H33.969a0.633,0.633,0,0,0-.633.633V333.9h-11.7a0.633,0.633,0,0,0-.633.633v2.53a0.633,0.633,0,0,0,.633.633h0.633v18.979a0.633,0.633,0,0,0,.633.633H34.286v5.061a0.633,0.633,0,0,0,.633.633h3.163a0.633,0.633,0,0,0,.633-0.633v-5.061H50.1a0.633,0.633,0,0,0,.633-0.633V337.694h0.633A0.632,0.632,0,0,0,52,337.061v-2.53A0.632,0.632,0,0,0,51.367,333.9ZM34.6,333.265h3.8V333.9H34.6v-0.633Zm2.847,28.47h-1.9v-4.429h1.9v4.429Zm12.02-5.694H23.531V337.694H49.469v18.347Zm1.265-19.613H22.265v-1.265H50.735v1.265ZM35.092,349.6l-1.123,1.118L32.847,349.6l-0.893.9,1.119,1.114-1.119,1.114,0.893,0.9,1.123-1.118,1.123,1.118,0.893-.9-1.119-1.114,1.119-1.114Zm-2.877-4.83,1.122-1.121,1.122,1.121,0.895-.894-1.122-1.122,1.122-1.122-0.895-.894-1.122,1.121-1.122-1.121-0.895.894,1.121,1.122-1.121,1.122Zm5.7,0,1.114-1.118,1.114,1.118,0.9-.892-1.118-1.123,1.118-1.122-0.9-.893-1.114,1.118-1.114-1.118-0.9.893,1.118,1.122-1.118,1.123Zm-11.4,0,1.122-1.121,1.122,1.121,0.895-.894-1.122-1.122,1.122-1.122-0.895-.894-1.122,1.121-1.122-1.121-0.895.894,1.122,1.122-1.122,1.122ZM40.778,349.6l-1.115,1.115L38.548,349.6l-0.895.9,1.115,1.115-1.115,1.115,0.895,0.9,1.115-1.115,1.115,1.115,0.895-.9-1.115-1.115,1.115-1.115Zm5.694,0-1.115,1.115L44.242,349.6l-0.895.9,1.115,1.115-1.115,1.115,0.895,0.9,1.115-1.115,1.115,1.115,0.895-.9-1.115-1.115,1.115-1.115Zm-18.829,5.173a2.531,2.531,0,0,0,.633-4.981v-1.978H45.041a0.929,0.929,0,0,0,.949-0.949v-5.748l1.451,1.451,0.895-.895L45.8,339.144a0.633,0.633,0,0,0-.895,0l-2.531,2.531,0.895,0.895,1.451-1.451v5.432H27.959a0.929,0.929,0,0,0-.949.949v2.294A2.531,2.531,0,0,0,27.643,354.775Zm0-3.8a1.266,1.266,0,1,1-1.265,1.266A1.267,1.267,0,0,1,27.643,350.979Zm-0.633.633h1.265v1.266H27.01v-1.266Z" transform="translate(-21 -332)"/>
</svg>
