<svg xmlns="http://www.w3.org/2000/svg" xmlns:xlink="http://www.w3.org/1999/xlink" width="34" height="21" viewBox="0 0 34 21">
  <metadata><?xpacket begin="﻿" id="W5M0MpCehiHzreSzNTczkc9d"?>
<x:xmpmeta xmlns:x="adobe:ns:meta/" x:xmptk="Adobe XMP Core 5.6-c138 79.159824, 2016/09/14-01:09:01        ">
   <rdf:RDF xmlns:rdf="http://www.w3.org/1999/02/22-rdf-syntax-ns#">
      <rdf:Description rdf:about=""/>
   </rdf:RDF>
</x:xmpmeta>
                                                                                                    
                                                                                                    
                                                                                                    
                                                                                                    
                                                                                                    
                                                                                                    
                                                                                                    
                                                                                                    
                                                                                                    
                                                                                                    
                                                                                                    
                                                                                                    
                                                                                                    
                                                                                                    
                                                                                                    
                                                                                                    
                                                                                                    
                                                                                                    
                                                                                                    
                                                                                                    
                           
<?xpacket end="w"?></metadata>
<defs>
    <style>
      .cls-1 {
        fill: #fff;
        fill-rule: evenodd;
        filter: url(#filter);
      }
    </style>
    <filter id="filter" x="19" y="405" width="34" height="21" filterUnits="userSpaceOnUse">
      <feFlood result="flood" flood-color="#ccc"/>
      <feComposite result="composite" operator="in" in2="SourceGraphic"/>
      <feBlend result="blend" in2="SourceGraphic"/>
    </filter>
  </defs>
  <path class="cls-1" d="M50.62,413.9l-0.88-3.439a0.524,0.524,0,0,0,.421-0.509V409.4a2.212,2.212,0,0,0-2.236-2.183h-4.01v-1.144a1.089,1.089,0,0,0-1.1-1.074H22.372a1.089,1.089,0,0,0-1.1,1.074V415.5a0.533,0.533,0,0,0,1.065,0v-9.426a0.035,0.035,0,0,1,.036-0.034H42.814a0.035,0.035,0,0,1,.035.034V415.5a0.532,0.532,0,0,0,1.065,0v-0.589H50.2a1.738,1.738,0,0,1,1.654,1.178H50.2a0.526,0.526,0,0,0-.532.52v1.109a1.651,1.651,0,0,0,1.668,1.629h0.6v2.287H50.543a3.4,3.4,0,0,0-6.373,0H43.914v-3.916a0.533,0.533,0,0,0-1.065,0v3.916H31.8a3.4,3.4,0,0,0-6.373,0h-3.06a0.035,0.035,0,0,1-.036-0.035v-1.144h2.307a0.52,0.52,0,1,0,0-1.039H19.532a0.52,0.52,0,1,0,0,1.039h1.739V421.6a1.089,1.089,0,0,0,1.1,1.074h2.876c0,0.012,0,.023,0,0.035a3.373,3.373,0,0,0,6.743,0c0-.012,0-0.023,0-0.035h12c0,0.012,0,.023,0,0.035a3.373,3.373,0,0,0,6.743,0c0-.012,0-0.023,0-0.035h1.74a0.526,0.526,0,0,0,.532-0.52v-5.544A2.763,2.763,0,0,0,50.62,413.9Zm-6.705-5.646h4.01A1.16,1.16,0,0,1,49.1,409.4v0.035H43.914v-1.179Zm0,5.614v-3.4h4.73l0.87,3.4h-5.6Zm-15.3,11.09a2.254,2.254,0,1,1,2.307-2.253A2.283,2.283,0,0,1,28.618,424.961Zm18.739,0a2.254,2.254,0,1,1,2.307-2.253A2.283,2.283,0,0,1,47.357,424.961Zm4.578-6.654h-0.6a0.6,0.6,0,0,1-.6-0.589v-0.589h1.207v1.178h0Zm-23.317,3.327a1.074,1.074,0,1,0,1.1,1.074A1.089,1.089,0,0,0,28.618,421.634Zm18.739,0a1.074,1.074,0,1,0,1.1,1.074A1.089,1.089,0,0,0,47.357,421.634Zm-6.246-2.218h-7.95a0.52,0.52,0,1,0,0,1.039h7.95A0.52,0.52,0,1,0,41.111,419.416ZM27.482,417.2H20.668a0.52,0.52,0,1,0,0,1.04h6.814A0.52,0.52,0,1,0,27.482,417.2Zm10.03-7.056a0.541,0.541,0,0,0-.753,0l-4.734,4.623-2.463-2.4a0.541,0.541,0,0,0-.753,0,0.511,0.511,0,0,0,0,.735l2.839,2.772a0.539,0.539,0,0,0,.753,0l5.111-4.989A0.512,0.512,0,0,0,37.512,410.142Z" transform="translate(-19 -405)"/>
</svg>
