<svg xmlns="http://www.w3.org/2000/svg" xmlns:xlink="http://www.w3.org/1999/xlink" width="24" height="34" viewBox="0 0 24 34">
  <metadata><?xpacket begin="﻿" id="W5M0MpCehiHzreSzNTczkc9d"?>
<x:xmpmeta xmlns:x="adobe:ns:meta/" x:xmptk="Adobe XMP Core 5.6-c138 79.159824, 2016/09/14-01:09:01        ">
   <rdf:RDF xmlns:rdf="http://www.w3.org/1999/02/22-rdf-syntax-ns#">
      <rdf:Description rdf:about=""/>
   </rdf:RDF>
</x:xmpmeta>
                                                                                                    
                                                                                                    
                                                                                                    
                                                                                                    
                                                                                                    
                                                                                                    
                                                                                                    
                                                                                                    
                                                                                                    
                                                                                                    
                                                                                                    
                                                                                                    
                                                                                                    
                                                                                                    
                                                                                                    
                                                                                                    
                                                                                                    
                                                                                                    
                                                                                                    
                                                                                                    
                           
<?xpacket end="w"?></metadata>
<defs>
    <style>
      .cls-1 {
        fill: #fff;
        fill-rule: evenodd;
        filter: url(#filter);
      }
    </style>
    <filter id="filter" x="24" y="467" width="24" height="34" filterUnits="userSpaceOnUse">
      <feFlood result="flood" flood-color="#ccc"/>
      <feComposite result="composite" operator="in" in2="SourceGraphic"/>
      <feBlend result="blend" in2="SourceGraphic"/>
    </filter>
  </defs>
  <path class="cls-1" d="M34.6,481.642H24.525a0.528,0.528,0,0,0,0,1.056H25.4v14.254A4.04,4.04,0,0,0,29.423,501H29.7a4.04,4.04,0,0,0,4.023-4.048V482.7H34.6A0.528,0.528,0,0,0,34.6,481.642Zm-1.924,15.31a2.986,2.986,0,0,1-2.974,2.992h-0.28a2.986,2.986,0,0,1-2.974-2.992v-1.865h1.714a0.528,0.528,0,0,0,0-1.056H26.449v-1.478h1.714a0.528,0.528,0,0,0,0-1.056H26.449v-1.478h6.227v6.933Zm0-7.989H26.449v-1.479h1.714a0.528,0.528,0,0,0,0-1.055H26.449V482.7h6.227v6.265Zm14.8-7.321H37.4a0.528,0.528,0,0,0,0,1.056h0.875v14.254A4.04,4.04,0,0,0,42.3,501h0.28a4.04,4.04,0,0,0,4.023-4.048V482.7h0.875A0.528,0.528,0,0,0,47.475,481.642Zm-1.924,15.31a2.986,2.986,0,0,1-2.974,2.992H42.3a2.986,2.986,0,0,1-2.974-2.992v-1.865h1.714a0.528,0.528,0,0,0,0-1.056H39.324v-1.478h1.714a0.528,0.528,0,0,0,0-1.056H39.324v-1.478h1.714a0.528,0.528,0,0,0,0-1.056H39.324v-1.478h6.227v9.467Zm0-10.524H39.324V482.7h6.227v3.73ZM41.318,467H29.563a0.526,0.526,0,0,0-.525.528v3.942a0.525,0.525,0,1,0,1.049,0v-3.414H40.793v8.8H32.082a0.525,0.525,0,0,0-.39.175l-1.6,1.793v-5.4a0.525,0.525,0,1,0-1.05,0V480.2a0.524,0.524,0,0,0,.915.353l2.363-2.641h9a0.526,0.526,0,0,0,.525-0.528v-9.855A0.526,0.526,0,0,0,41.318,467ZM29.375,480.692c-0.2-.079.061,0.023,0,0h0Zm2.147,9.749a0.526,0.526,0,0,0-.525.528v3.308a0.525,0.525,0,1,0,1.049,0v-3.308A0.526,0.526,0,0,0,31.522,490.441Zm0,5a0.526,0.526,0,0,0-.525.528v0.422a0.525,0.525,0,1,0,1.049,0v-0.422A0.526,0.526,0,0,0,31.522,495.439ZM44.4,488.188a0.527,0.527,0,0,0-.525.528v0.423a0.525,0.525,0,1,0,1.05,0v-0.423A0.527,0.527,0,0,0,44.4,488.188Zm0,2.112a0.527,0.527,0,0,0-.525.528v2.886a0.525,0.525,0,1,0,1.05,0v-2.886A0.526,0.526,0,0,0,44.4,490.3ZM38.47,469.97a0.523,0.523,0,0,0-.742,0l-3.267,3.287L33.012,471.8a0.523,0.523,0,0,0-.742,0,0.531,0.531,0,0,0,0,.747l1.819,1.831a0.524,0.524,0,0,0,.742,0l3.638-3.661A0.531,0.531,0,0,0,38.47,469.97Z" transform="translate(-24 -467)"/>
</svg>
