<svg xmlns="http://www.w3.org/2000/svg" xmlns:xlink="http://www.w3.org/1999/xlink" width="22.031" height="28" viewBox="0 0 22.031 28">
  <metadata><?xpacket begin="﻿" id="W5M0MpCehiHzreSzNTczkc9d"?>
<x:xmpmeta xmlns:x="adobe:ns:meta/" x:xmptk="Adobe XMP Core 5.6-c138 79.159824, 2016/09/14-01:09:01        ">
   <rdf:RDF xmlns:rdf="http://www.w3.org/1999/02/22-rdf-syntax-ns#">
      <rdf:Description rdf:about=""/>
   </rdf:RDF>
</x:xmpmeta>
                                                                                                    
                                                                                                    
                                                                                                    
                                                                                                    
                                                                                                    
                                                                                                    
                                                                                                    
                                                                                                    
                                                                                                    
                                                                                                    
                                                                                                    
                                                                                                    
                                                                                                    
                                                                                                    
                                                                                                    
                                                                                                    
                                                                                                    
                                                                                                    
                                                                                                    
                                                                                                    
                           
<?xpacket end="w"?></metadata>
<defs>
    <style>
      .cls-1 {
        fill-rule: evenodd;
        filter: url(#filter);
      }
    </style>
    <filter id="filter" x="732" y="691" width="22.031" height="28" filterUnits="userSpaceOnUse">
      <feFlood result="flood" flood-color="#4c6e87"/>
      <feComposite result="composite" operator="in" in2="SourceGraphic"/>
      <feBlend result="blend" in2="SourceGraphic"/>
    </filter>
  </defs>
  <path id="Forma_1" data-name="Forma 1" class="cls-1" d="M753.755,700.9l-2.128-2.2,0.429-3.031a0.869,0.869,0,0,0-.71-0.977l-3.015-.528-1.435-2.706a0.868,0.868,0,0,0-1.147-.373L743,692.433l-2.75-1.345a0.869,0.869,0,0,0-1.148.373l-1.434,2.706-3.016.528a0.869,0.869,0,0,0-.709.977l0.429,3.031-2.129,2.2a0.869,0.869,0,0,0,0,1.207l2.129,2.2-0.429,3.033a0.868,0.868,0,0,0,.709.976l2.413,0.423v9.388a0.869,0.869,0,0,0,.868.868,0.855,0.855,0,0,0,.388-0.092L743,716.569l4.678,2.339a0.867,0.867,0,0,0,1.255-.776v-9.387l2.413-.424a0.869,0.869,0,0,0,.71-0.976l-0.429-3.033,2.128-2.2A0.867,0.867,0,0,0,753.755,700.9Zm-10.367,13.918a0.868,0.868,0,0,0-.776,0l-3.811,1.906v-5.741l0.3,0.568a0.869,0.869,0,0,0,1.148.373l2.75-1.346,2.749,1.346a0.869,0.869,0,0,0,1.148-.373l0.3-.568v5.741Zm6.7-11.412a0.867,0.867,0,0,0-.236.725l0.371,2.621-2.606.457a0.871,0.871,0,0,0-.617.448L745.757,710l-2.376-1.163a0.878,0.878,0,0,0-.381-0.088,0.869,0.869,0,0,0-.382.088L740.242,710,739,707.661a0.869,0.869,0,0,0-.617-0.448l-2.606-.457,0.37-2.621a0.866,0.866,0,0,0-.235-0.725l-1.84-1.9,1.84-1.9a0.866,0.866,0,0,0,.235-0.725l-0.37-2.62,2.606-.457a0.867,0.867,0,0,0,.617-0.448l1.24-2.338,2.377,1.162a0.871,0.871,0,0,0,.762,0l2.376-1.162,1.24,2.338a0.867,0.867,0,0,0,.617.448l2.606,0.457-0.371,2.62a0.869,0.869,0,0,0,.235.725l1.84,1.9ZM743,695.572a5.936,5.936,0,1,0,5.933,5.936A5.942,5.942,0,0,0,743,695.572Zm0,10.136a4.2,4.2,0,1,1,4.2-4.2A4.2,4.2,0,0,1,743,705.708Zm1.768-6.4-2.563,2.563-0.975-.974A0.868,0.868,0,0,0,740,702.123l1.589,1.587a0.868,0.868,0,0,0,1.227,0L746,700.533A0.868,0.868,0,0,0,744.768,699.306Z" transform="translate(-732 -691)"/>
</svg>
