<svg xmlns="http://www.w3.org/2000/svg" xmlns:xlink="http://www.w3.org/1999/xlink" width="23" height="24" viewBox="0 0 23 24">
  <metadata><?xpacket begin="﻿" id="W5M0MpCehiHzreSzNTczkc9d"?>
<x:xmpmeta xmlns:x="adobe:ns:meta/" x:xmptk="Adobe XMP Core 5.6-c138 79.159824, 2016/09/14-01:09:01        ">
   <rdf:RDF xmlns:rdf="http://www.w3.org/1999/02/22-rdf-syntax-ns#">
      <rdf:Description rdf:about=""/>
   </rdf:RDF>
</x:xmpmeta>
                                                                                                    
                                                                                                    
                                                                                                    
                                                                                                    
                                                                                                    
                                                                                                    
                                                                                                    
                                                                                                    
                                                                                                    
                                                                                                    
                                                                                                    
                                                                                                    
                                                                                                    
                                                                                                    
                                                                                                    
                                                                                                    
                                                                                                    
                                                                                                    
                                                                                                    
                                                                                                    
                           
<?xpacket end="w"?></metadata>
<defs>
    <style>
      .cls-1 {
        fill-rule: evenodd;
        filter: url(#filter);
      }
    </style>
    <filter id="filter" x="432" y="375" width="23" height="24" filterUnits="userSpaceOnUse">
      <feFlood result="flood" flood-color="#4c6e87"/>
      <feComposite result="composite" operator="in" in2="SourceGraphic"/>
      <feBlend result="blend" in2="SourceGraphic"/>
    </filter>
  </defs>
  <path class="cls-1" d="M432,375v24h23V375H432Zm21.432,22.468H433.568V376.532h19.864v20.936h0Zm-18.3-19.4v5.617h17.25v-5.617h-17.25Zm15.682,4.085H436.705V379.6h14.113v2.553Zm-15.682,3.064v4.6h4.7v-4.6h-4.7Zm3.137,3.064h-1.568v-1.532h1.568v1.532Zm-3.137,3.063v4.6h4.7v-4.6h-4.7Zm3.137,3.064h-1.568v-1.532h1.568V394.4Zm3.136-9.191v4.6h4.7v-4.6h-4.7Zm3.136,3.064h-1.568v-1.532h1.568v1.532Zm-3.136,3.063v4.6h4.7v-4.6h-4.7Zm3.136,3.064h-1.568v-1.532h1.568V394.4Zm3.137-9.191v10.723h4.7V385.213h-4.7Zm3.136,9.191H449.25v-7.659h1.568V394.4Z" transform="translate(-432 -375)"/>
</svg>
