<svg xmlns="http://www.w3.org/2000/svg" xmlns:xlink="http://www.w3.org/1999/xlink" width="25" height="20" viewBox="0 0 25 20">
  <metadata><?xpacket begin="﻿" id="W5M0MpCehiHzreSzNTczkc9d"?>
<x:xmpmeta xmlns:x="adobe:ns:meta/" x:xmptk="Adobe XMP Core 5.6-c138 79.159824, 2016/09/14-01:09:01        ">
   <rdf:RDF xmlns:rdf="http://www.w3.org/1999/02/22-rdf-syntax-ns#">
      <rdf:Description rdf:about=""/>
   </rdf:RDF>
</x:xmpmeta>
                                                                                                    
                                                                                                    
                                                                                                    
                                                                                                    
                                                                                                    
                                                                                                    
                                                                                                    
                                                                                                    
                                                                                                    
                                                                                                    
                                                                                                    
                                                                                                    
                                                                                                    
                                                                                                    
                                                                                                    
                                                                                                    
                                                                                                    
                                                                                                    
                                                                                                    
                                                                                                    
                           
<?xpacket end="w"?></metadata>
<defs>
    <style>
      .cls-1 {
        fill-rule: evenodd;
        filter: url(#filter);
      }
    </style>
    <filter id="filter" x="1032" y="695" width="25" height="20" filterUnits="userSpaceOnUse">
      <feFlood result="flood" flood-color="#4c6e87"/>
      <feComposite result="composite" operator="in" in2="SourceGraphic"/>
      <feBlend result="blend" in2="SourceGraphic"/>
    </filter>
  </defs>
  <path class="cls-1" d="M1055.12,695.242a0.831,0.831,0,0,0-.61-0.242l-2.52.086a0.829,0.829,0,0,0,.06,1.656l0.36-.013-4.51,3.637-5.39-3.966a0.811,0.811,0,0,0-.92-0.03l-8.12,5.213a0.838,0.838,0,0,0-.25,1.144,0.807,0.807,0,0,0,.69.384,0.828,0.828,0,0,0,.44-0.129l7.64-4.911,5.45,4.006a0.822,0.822,0,0,0,1-.022l5.21-4.207-0.02.5a0.829,0.829,0,0,0,.79.856h0.03a0.822,0.822,0,0,0,.82-0.8l0.09-2.546A0.868,0.868,0,0,0,1055.12,695.242Zm1.06,18.1h-0.27V703.152a1.46,1.46,0,0,0-1.45-1.468h-1.74a1.469,1.469,0,0,0-1.46,1.468v10.191h-1.01v-6.378a1.461,1.461,0,0,0-1.45-1.469h-1.74a1.463,1.463,0,0,0-1.46,1.469v6.378h-1.01v-9.907a1.463,1.463,0,0,0-1.46-1.469h-1.74a1.461,1.461,0,0,0-1.45,1.469v9.907h-1.01V710.23a1.469,1.469,0,0,0-1.46-1.469h-1.74a1.461,1.461,0,0,0-1.45,1.469v3.113h-1.46a0.829,0.829,0,0,0,0,1.657h23.36A0.829,0.829,0,0,0,1056.18,713.343Zm-18.89,0h-1.37v-2.925h1.37v2.925Zm5.66,0h-1.37v-9.719h1.37v9.719Zm5.66,0h-1.37v-6.19h1.37v6.19Zm5.66,0h-1.37v-10h1.37v10Z" transform="translate(-1032 -695)"/>
</svg>
