<svg xmlns="http://www.w3.org/2000/svg" xmlns:xlink="http://www.w3.org/1999/xlink" width="20" height="24" viewBox="0 0 20 24">
  <metadata><?xpacket begin="﻿" id="W5M0MpCehiHzreSzNTczkc9d"?>
<x:xmpmeta xmlns:x="adobe:ns:meta/" x:xmptk="Adobe XMP Core 5.6-c138 79.159824, 2016/09/14-01:09:01        ">
   <rdf:RDF xmlns:rdf="http://www.w3.org/1999/02/22-rdf-syntax-ns#">
      <rdf:Description rdf:about=""/>
   </rdf:RDF>
</x:xmpmeta>
                                                                                                    
                                                                                                    
                                                                                                    
                                                                                                    
                                                                                                    
                                                                                                    
                                                                                                    
                                                                                                    
                                                                                                    
                                                                                                    
                                                                                                    
                                                                                                    
                                                                                                    
                                                                                                    
                                                                                                    
                                                                                                    
                                                                                                    
                                                                                                    
                                                                                                    
                                                                                                    
                           
<?xpacket end="w"?></metadata>
<defs>
    <style>
      .cls-1 {
        fill-rule: evenodd;
        filter: url(#filter);
      }
    </style>
    <filter id="filter" x="1034" y="1014" width="20" height="24" filterUnits="userSpaceOnUse">
      <feFlood result="flood" flood-color="#4c6e87"/>
      <feComposite result="composite" operator="in" in2="SourceGraphic"/>
      <feBlend result="blend" in2="SourceGraphic"/>
    </filter>
  </defs>
  <path class="cls-1" d="M1051.07,1016.93a10,10,0,0,0-17.07,7.06,11.38,11.38,0,0,0,1.53,5.47,21.191,21.191,0,0,0,3.25,4.35,31.781,31.781,0,0,0,4.68,4.03,0.991,0.991,0,0,0,1.08,0,31.781,31.781,0,0,0,4.68-4.03,21.191,21.191,0,0,0,3.25-4.35,11.38,11.38,0,0,0,1.53-5.47A9.892,9.892,0,0,0,1051.07,1016.93Zm-7.07,18.91c-1.88-1.4-8.06-6.38-8.06-11.85a8.06,8.06,0,0,1,16.12,0C1052.06,1029.46,1045.88,1034.45,1044,1035.84Zm0-15.82a3.975,3.975,0,1,0,3.98,3.97A3.982,3.982,0,0,0,1044,1020.02Zm0,6.01a2.035,2.035,0,1,1,2.04-2.04A2.042,2.042,0,0,1,1044,1026.03Z" transform="translate(-1034 -1014)"/>
</svg>
