<svg xmlns="http://www.w3.org/2000/svg" xmlns:xlink="http://www.w3.org/1999/xlink" width="26.031" height="25" viewBox="0 0 26.031 25">
  <metadata><?xpacket begin="﻿" id="W5M0MpCehiHzreSzNTczkc9d"?>
<x:xmpmeta xmlns:x="adobe:ns:meta/" x:xmptk="Adobe XMP Core 5.6-c138 79.159824, 2016/09/14-01:09:01        ">
   <rdf:RDF xmlns:rdf="http://www.w3.org/1999/02/22-rdf-syntax-ns#">
      <rdf:Description rdf:about=""/>
   </rdf:RDF>
</x:xmpmeta>
                                                                                                    
                                                                                                    
                                                                                                    
                                                                                                    
                                                                                                    
                                                                                                    
                                                                                                    
                                                                                                    
                                                                                                    
                                                                                                    
                                                                                                    
                                                                                                    
                                                                                                    
                                                                                                    
                                                                                                    
                                                                                                    
                                                                                                    
                                                                                                    
                                                                                                    
                                                                                                    
                           
<?xpacket end="w"?></metadata>
<defs>
    <style>
      .cls-1 {
        fill-rule: evenodd;
        filter: url(#filter);
      }
    </style>
    <filter id="filter" x="131" y="692" width="26.031" height="25" filterUnits="userSpaceOnUse">
      <feFlood result="flood" flood-color="#4c6e87"/>
      <feComposite result="composite" operator="in" in2="SourceGraphic"/>
      <feBlend result="blend" in2="SourceGraphic"/>
    </filter>
  </defs>
  <path class="cls-1" d="M144.53,696.567v-1.115a0.565,0.565,0,0,1,.2.422,0.531,0.531,0,1,0,1.061,0,1.7,1.7,0,0,0-1.26-1.61v-0.02a0.531,0.531,0,1,0-1.062,0v0.02a1.659,1.659,0,0,0,0,3.221V698.6a0.567,0.567,0,0,1-.2-0.422,0.531,0.531,0,1,0-1.061,0,1.7,1.7,0,0,0,1.26,1.61v0.064a0.531,0.531,0,1,0,1.062,0v-0.064A1.659,1.659,0,0,0,144.53,696.567Zm-1.061-.27a0.548,0.548,0,0,1,0-.845V696.3Zm1.061,2.3v-0.845A0.546,0.546,0,0,1,144.53,698.6Zm6.314,15.622h-0.006a0.534,0.534,0,0,0,0,1.068h0.006A0.534,0.534,0,0,0,150.844,714.222Zm4.289-1.428a0.529,0.529,0,0,0-.468-0.284v-1.282a0.533,0.533,0,0,0-.531-0.534h-0.106V705.3h0.106a0.533,0.533,0,0,0,.531-0.534v-1.282h1.22a0.533,0.533,0,0,0,.531-0.534v-1.177h0.053a0.53,0.53,0,0,0,.506-0.374,0.537,0.537,0,0,0-.2-0.6L144.3,692.1a0.526,0.526,0,0,0-.6,0L131.229,700.8a0.537,0.537,0,0,0-.2.6,0.531,0.531,0,0,0,.506.374h0.053v1.177a0.533,0.533,0,0,0,.531.534h1.221v1.282a0.533,0.533,0,0,0,.531.534h0.106v5.393h-0.106a0.533,0.533,0,0,0-.531.534v1.282h0a0.532,0.532,0,0,0-.469.284l-0.893,1.694-0.91,1.727a0.536,0.536,0,0,0,.014.526,0.527,0.527,0,0,0,.454.259h24.938a0.528,0.528,0,0,0,.454-0.259,0.536,0.536,0,0,0,.014-0.526ZM144,693.184l10.773,7.522H133.227Zm-10.133,9.233h-1.222v-0.643h22.709v0.643H133.867Zm19.63,9.345H153.6v0.748h-2.228v-0.748H153.5Zm-1.485-1.068V705.3h0.955v5.393h-0.955Zm1.485-6.461h-2.122v-0.748H153.6v0.748H153.5Zm-7.852,6.461h-0.106V705.3h0.106a0.532,0.532,0,0,0,.53-0.534v-1.282h4.139v1.282a0.532,0.532,0,0,0,.53.534h0.107v5.393h-0.107a0.532,0.532,0,0,0-.53.534v1.282h-4.139v-1.282A0.532,0.532,0,0,0,145.645,710.694Zm-0.637,1.068h0.106v0.748h-2.228v-0.748h2.122Zm-1.486-1.068V705.3h0.955v5.393h-0.955Zm1.486-6.461h-2.122v-0.748h2.228v0.748h-0.106Zm-7.852,6.461H137.05V705.3h0.106a0.533,0.533,0,0,0,.531-0.534v-1.282h4.137v1.282a0.533,0.533,0,0,0,.531.534h0.106v5.393h-0.106a0.533,0.533,0,0,0-.531.534v1.282h-4.137v-1.282A0.533,0.533,0,0,0,137.156,710.694Zm-0.636,1.068h0.106v0.748H134.4v-0.748h2.123Zm-1.486-1.068V705.3h0.955v5.393h-0.955Zm1.486-6.461H134.4v-0.748h2.229v0.748H136.52Zm-4.106,11.7h0l0.338-.641h16.369a0.534,0.534,0,0,0,0-1.068H133.315l0.339-.644h20.692l1.24,2.353H132.414Z" transform="translate(-131 -692)"/>
</svg>
