<svg xmlns="http://www.w3.org/2000/svg" xmlns:xlink="http://www.w3.org/1999/xlink" width="24" height="24" viewBox="0 0 24 24">
  <metadata><?xpacket begin="﻿" id="W5M0MpCehiHzreSzNTczkc9d"?>
<x:xmpmeta xmlns:x="adobe:ns:meta/" x:xmptk="Adobe XMP Core 5.6-c138 79.159824, 2016/09/14-01:09:01        ">
   <rdf:RDF xmlns:rdf="http://www.w3.org/1999/02/22-rdf-syntax-ns#">
      <rdf:Description rdf:about=""/>
   </rdf:RDF>
</x:xmpmeta>
                                                                                                    
                                                                                                    
                                                                                                    
                                                                                                    
                                                                                                    
                                                                                                    
                                                                                                    
                                                                                                    
                                                                                                    
                                                                                                    
                                                                                                    
                                                                                                    
                                                                                                    
                                                                                                    
                                                                                                    
                                                                                                    
                                                                                                    
                                                                                                    
                                                                                                    
                                                                                                    
                           
<?xpacket end="w"?></metadata>
<defs>
    <style>
      .cls-1 {
        fill-rule: evenodd;
        filter: url(#filter);
      }
    </style>
    <filter id="filter" x="131" y="376" width="24" height="24" filterUnits="userSpaceOnUse">
      <feFlood result="flood" flood-color="#4c6e87"/>
      <feComposite result="composite" operator="in" in2="SourceGraphic"/>
      <feBlend result="blend" in2="SourceGraphic"/>
    </filter>
  </defs>
  <path id="Forma_1" data-name="Forma 1" class="cls-1" d="M143,376a12,12,0,1,0,12,12A12.015,12.015,0,0,0,143,376Zm0,22.425A10.423,10.423,0,1,1,153.423,388,10.435,10.435,0,0,1,143,398.423Zm0.79-11.132v-4.484a2.275,2.275,0,0,1,1.108.882,0.789,0.789,0,1,0,1.319-.868,3.842,3.842,0,0,0-2.427-1.653v-1.255a0.79,0.79,0,0,0-1.58,0v1.253a3.853,3.853,0,0,0,0,7.543v4.484a2.27,2.27,0,0,1-1.108-.882,0.789,0.789,0,1,0-1.319.868,3.842,3.842,0,0,0,2.427,1.653v1.255a0.79,0.79,0,0,0,1.58,0v-1.253A3.853,3.853,0,0,0,143.79,387.291Zm-3.066-2.354a2.274,2.274,0,0,1,1.486-2.129v4.259A2.276,2.276,0,0,1,140.724,384.937Zm3.066,8.255v-4.259A2.269,2.269,0,0,1,143.79,393.192Z" transform="translate(-131 -376)"/>
</svg>
