<svg xmlns="http://www.w3.org/2000/svg" xmlns:xlink="http://www.w3.org/1999/xlink" preserveAspectRatio="xMidYMid" width="24" height="24" viewBox="0 0 24 24">
  <defs>
    <style>
      .cls-1 {
        fill: #727e93;
        fill-rule: evenodd;
      }
    </style>
  </defs>
  <path d="M12.000,23.117 C5.826,23.117 0.822,18.121 0.822,11.959 C0.822,5.796 5.826,0.800 12.000,0.800 C18.174,0.800 23.178,5.796 23.178,11.959 C23.178,18.121 18.174,23.117 12.000,23.117 ZM12.000,2.450 C6.740,2.450 2.475,6.707 2.475,11.958 C2.475,13.772 2.993,15.461 3.876,16.903 C4.791,16.273 6.330,15.415 8.365,14.907 C8.365,14.932 8.358,14.956 8.358,14.982 C8.358,17.028 10.019,18.687 12.069,18.687 C14.107,18.687 15.757,17.047 15.777,15.017 C17.161,15.385 18.631,15.959 20.181,16.810 C21.029,15.388 21.525,13.733 21.525,11.958 C21.525,6.707 17.260,2.450 12.000,2.450 ZM18.608,13.218 C17.925,13.218 17.371,12.665 17.371,11.983 C17.371,11.301 17.925,10.748 18.608,10.748 C19.291,10.748 19.845,11.301 19.845,11.983 C19.845,12.665 19.291,13.218 18.608,13.218 ZM16.752,8.234 C16.069,8.234 15.515,7.681 15.515,6.999 C15.515,6.317 16.069,5.764 16.752,5.764 C17.435,5.764 17.989,6.317 17.989,6.999 C17.989,7.681 17.435,8.234 16.752,8.234 ZM12.069,17.584 C10.629,17.584 9.462,16.419 9.462,14.982 C9.462,14.445 9.626,13.946 9.905,13.531 L6.421,5.843 L11.915,12.396 C11.967,12.392 12.016,12.380 12.069,12.380 C13.509,12.380 14.676,13.545 14.676,14.982 C14.676,16.419 13.509,17.584 12.069,17.584 ZM12.246,6.382 C11.563,6.382 11.009,5.829 11.009,5.147 C11.009,4.465 11.563,3.912 12.246,3.912 C12.929,3.912 13.483,4.465 13.483,5.147 C13.483,5.829 12.929,6.382 12.246,6.382 Z" class="cls-1"/>
</svg>
