<?xml version="1.0" encoding="utf-8"?>
<!-- Generator: Adobe Illustrator 17.1.0, SVG Export Plug-In . SVG Version: 6.00 Build 0)  -->
<!DOCTYPE svg PUBLIC "-//W3C//DTD SVG 1.1//EN" "http://www.w3.org/Graphics/SVG/1.1/DTD/svg11.dtd">
<svg version="1.1" id="Layer_1" xmlns="http://www.w3.org/2000/svg" xmlns:xlink="http://www.w3.org/1999/xlink" x="0px" y="0px"
	 viewBox="0 0 24 25" enable-background="new 0 0 24 25" xml:space="preserve">
<g>
	<g>
		<g>
			<path fill="#323E52" d="M14.8,13.1l0.1-0.1c0.1-0.1,0.2-0.2,0.3-0.2c0.1-0.1,0.2-0.2,0.2-0.3c0.1-0.2,0.2-0.5,0.2-0.9
				c0-0.1,0-0.2,0-0.3h-0.9v-1.1h0.6c-0.1-0.4-0.1-0.7-0.1-0.9c0-0.3,0.1-0.6,0.2-0.8c0.1-0.2,0.3-0.5,0.5-0.6
				c0.2-0.2,0.4-0.3,0.7-0.4c0.3-0.1,0.5-0.1,0.9-0.1c0.3,0,0.5,0,0.8,0.1c0.2,0.1,0.5,0.2,0.7,0.3C19,8,19.2,8.2,19.3,8.4
				c0.1,0.2,0.2,0.5,0.2,0.8l0,0.2h-1.3l0-0.2c0-0.5-0.3-0.8-0.8-0.8c-0.1,0-0.3,0-0.4,0.1c-0.1,0-0.2,0.1-0.3,0.2
				c-0.1,0.1-0.1,0.2-0.2,0.3c0,0.1-0.1,0.2-0.1,0.3c0,0.3,0.1,0.6,0.2,1h1.4v1.1h-1.1c0,0.1,0,0.1,0,0.2c0,0.4-0.1,0.7-0.2,1
				c0,0.1-0.1,0.2-0.2,0.3c0.1,0,0.2,0,0.3,0c0.1,0,0.2,0,0.3,0.1l0.4,0.1c0.1,0,0.2,0,0.4,0.1c0.1,0,0.2,0,0.3,0.1
				c0.1,0,0.1,0,0.2,0c0.3,0,0.6-0.1,0.8-0.2l0.3-0.2V14L19.4,14c-0.3,0.1-0.6,0.2-1,0.2c-0.2,0-0.6-0.1-1-0.2
				c-0.4-0.1-0.7-0.2-0.9-0.2c-0.4,0-0.9,0.1-1.4,0.4l-0.3,0.2V13.1L14.8,13.1z"/>
		</g>
	</g>
</g>
<path fill="#323E52" d="M13.9,17c-0.3-0.2-0.6-0.3-0.9-0.4v-1.8c0.3,0.1,0.6,0.4,0.7,0.6c0.2,0.3,0.5,0.4,0.8,0.2
	c0.3-0.2,0.4-0.5,0.2-0.8l0,0c-0.3-0.5-0.9-1-1.7-1.2v-0.4c0-0.3-0.3-0.6-0.6-0.6c-0.3,0-0.6,0.3-0.6,0.6v0.4
	c-0.4,0.1-0.8,0.2-1.1,0.5c-0.4,0.4-0.7,0.9-0.7,1.6c0,0.7,0.4,1.2,0.9,1.5c0.3,0.2,0.6,0.3,0.9,0.4v1.8c-0.3-0.1-0.6-0.4-0.7-0.6
	c-0.2-0.3-0.5-0.4-0.8-0.2C10,18.6,9.9,19,10,19.3c0.3,0.5,0.9,1,1.7,1.2v0.4c0,0.3,0.3,0.6,0.6,0.6c0.3,0,0.6-0.3,0.6-0.6v-0.4
	c0.4-0.1,0.8-0.2,1.1-0.5c0.4-0.4,0.7-0.9,0.7-1.6C14.7,17.8,14.3,17.2,13.9,17z M11.8,16.1c-0.1,0-0.2-0.1-0.3-0.1
	c-0.2-0.1-0.3-0.2-0.3-0.5c0-0.3,0.1-0.5,0.3-0.6c0.1-0.1,0.2-0.1,0.3-0.2V16.1z M13.3,19.1c-0.1,0.1-0.2,0.1-0.3,0.2v-1.4
	c0.1,0,0.2,0.1,0.3,0.1c0.2,0.1,0.3,0.2,0.3,0.5C13.6,18.8,13.4,18.9,13.3,19.1z"/>
<path fill="#323E52" d="M8.6,9.1C8.8,9.1,9,9.3,9,9.5S8.8,9.9,8.6,9.9H7v0.9c0,0.2-0.2,0.4-0.4,0.4S6.2,11,6.2,10.7V9.9H4.6
	c-0.2,0-0.4-0.2-0.4-0.4s0.2-0.4,0.4-0.4h1.6V8.5H4.6c-0.2,0-0.4-0.2-0.4-0.4s0.2-0.4,0.4-0.4h1.6V7.5L4.2,5
	C4.1,4.8,4.1,4.6,4.3,4.5c0.2-0.1,0.4-0.1,0.6,0.1l1.7,2.2l1.7-2.2c0.1-0.2,0.4-0.2,0.6-0.1C9,4.6,9.1,4.8,8.9,5L7,7.5v0.2h1.6
	C8.8,7.7,9,7.9,9,8.1S8.8,8.5,8.6,8.5H7v0.5H8.6z"/>
<circle fill="#9FC83B" stroke="#1F2F4D" stroke-miterlimit="10" cx="17.3" cy="10.9" r="6"/>
<g>
	<g>
		<g>
			<path fill="#1F2F4D" d="M14.7,13.1l0.1-0.1c0.1-0.1,0.2-0.2,0.3-0.2c0.1-0.1,0.2-0.2,0.2-0.3c0.1-0.2,0.2-0.5,0.2-0.9
				c0-0.1,0-0.2,0-0.3h-0.9v-1.1h0.6c-0.1-0.4-0.1-0.7-0.1-0.9c0-0.3,0.1-0.6,0.2-0.8c0.1-0.2,0.3-0.5,0.4-0.6
				c0.2-0.2,0.4-0.3,0.7-0.4c0.3-0.1,0.5-0.1,0.9-0.1c0.3,0,0.5,0,0.8,0.1c0.2,0.1,0.5,0.2,0.7,0.3c0.2,0.2,0.3,0.3,0.5,0.6
				c0.1,0.2,0.2,0.5,0.2,0.8l0,0.2h-1.3l0-0.2c0-0.5-0.3-0.8-0.8-0.8c-0.1,0-0.3,0-0.4,0.1c-0.1,0-0.2,0.1-0.3,0.2
				c-0.1,0.1-0.1,0.2-0.2,0.3c0,0.1-0.1,0.2-0.1,0.3c0,0.3,0.1,0.6,0.2,1H18v1.1h-1.1c0,0.1,0,0.1,0,0.2c0,0.4-0.1,0.7-0.2,1
				c0,0.1-0.1,0.2-0.2,0.3c0.1,0,0.2,0,0.3,0c0.1,0,0.2,0,0.3,0.1l0.4,0.1c0.1,0,0.2,0,0.4,0.1c0.1,0,0.2,0,0.3,0.1
				c0.1,0,0.1,0,0.2,0c0.3,0,0.6-0.1,0.8-0.2l0.3-0.2V14L19.3,14c-0.3,0.1-0.6,0.2-1,0.2c-0.2,0-0.6-0.1-1-0.2
				c-0.4-0.1-0.7-0.2-0.9-0.2c-0.4,0-0.9,0.1-1.4,0.4l-0.3,0.2V13.1L14.7,13.1z"/>
		</g>
	</g>
</g>
<circle fill="#9FC83B" stroke="#1F2F4D" stroke-miterlimit="10" cx="6.5" cy="7.4" r="6"/>
<circle fill="#9FC83B" stroke="#1F2F4D" stroke-miterlimit="10" cx="12.3" cy="16.9" r="6.7"/>
<path fill="#1F2F4D" d="M13.8,16.9c-0.3-0.2-0.6-0.3-0.9-0.4v-1.8c0.3,0.1,0.6,0.4,0.7,0.6c0.2,0.3,0.5,0.4,0.8,0.2
	c0.3-0.2,0.4-0.5,0.2-0.8l0,0c-0.3-0.5-0.9-1-1.7-1.2v-0.4c0-0.3-0.3-0.6-0.6-0.6c-0.3,0-0.6,0.3-0.6,0.6v0.4
	c-0.4,0.1-0.8,0.2-1.1,0.5c-0.4,0.4-0.7,0.9-0.7,1.6c0,0.7,0.4,1.2,0.8,1.5c0.3,0.2,0.6,0.3,0.9,0.4v1.8c-0.3-0.1-0.6-0.4-0.7-0.6
	c-0.2-0.3-0.5-0.4-0.8-0.2C9.9,18.6,9.8,19,10,19.2c0.3,0.5,0.9,1,1.7,1.2v0.4c0,0.3,0.3,0.6,0.6,0.6c0.3,0,0.6-0.3,0.6-0.6v-0.4
	c0.4-0.1,0.8-0.2,1.1-0.5c0.4-0.4,0.7-0.9,0.7-1.5C14.7,17.8,14.3,17.2,13.8,16.9z M11.7,16.1c-0.1,0-0.2-0.1-0.3-0.1
	c-0.2-0.1-0.3-0.2-0.3-0.5c0-0.3,0.1-0.5,0.3-0.6c0.1-0.1,0.2-0.1,0.3-0.2V16.1z M13.2,19.1c-0.1,0.1-0.2,0.1-0.3,0.2v-1.4
	c0.1,0,0.2,0.1,0.3,0.1c0.2,0.1,0.3,0.2,0.3,0.5C13.5,18.7,13.4,18.9,13.2,19.1z"/>
<path fill="#1F2F4D" d="M8.6,9.1C8.8,9.1,9,9.3,9,9.5S8.8,9.9,8.6,9.9H6.9v0.8c0,0.2-0.2,0.4-0.4,0.4c-0.2,0-0.4-0.2-0.4-0.4V9.9
	H4.5c-0.2,0-0.4-0.2-0.4-0.4s0.2-0.4,0.4-0.4h1.6V8.6H4.5c-0.2,0-0.4-0.2-0.4-0.4c0-0.2,0.2-0.4,0.4-0.4h1.6V7.5L4.2,5
	C4.1,4.9,4.1,4.6,4.3,4.5c0.2-0.1,0.4-0.1,0.6,0.1l1.7,2.2l1.7-2.2c0.1-0.2,0.4-0.2,0.6-0.1C9,4.6,9,4.9,8.9,5L6.9,7.5v0.2h1.6
	C8.8,7.8,9,7.9,9,8.2S8.8,8.6,8.6,8.6H6.9v0.5H8.6z"/>
</svg>
