<svg xmlns="http://www.w3.org/2000/svg" xmlns:xlink="http://www.w3.org/1999/xlink" preserveAspectRatio="xMidYMid" width="21" height="22" viewBox="0 0 21 22">
  <defs>
    <style>
      .cls-1 {
        fill: #727e93;
        fill-rule: evenodd;
      }
    </style>
  </defs>
  <path d="M14.928,21.859 L20.191,21.859 L20.212,16.609 L18.240,16.609 L18.219,10.703 L10.978,10.703 L10.978,6.729 L13.616,6.729 L13.616,0.211 L7.041,0.211 L7.041,6.729 L9.679,6.749 L9.679,10.723 L2.417,10.703 L2.437,16.609 L0.466,16.609 L0.445,21.859 L5.729,21.859 L5.750,16.609 L3.778,16.609 L3.757,11.978 L9.679,11.999 L9.699,16.630 L7.707,16.609 L7.686,21.859 L12.950,21.859 L12.970,16.609 L10.978,16.609 L10.958,11.978 L16.899,11.978 L16.920,16.609 L14.948,16.609 L14.928,21.859 L14.928,21.859 ZM18.871,17.926 L18.871,20.543 L16.248,20.543 L16.248,17.926 L18.871,17.926 ZM8.361,5.453 L8.361,1.528 L12.296,1.528 L12.296,5.453 L8.361,5.453 ZM4.409,17.926 L4.409,20.543 L1.786,20.543 L1.786,17.926 L4.409,17.926 ZM11.650,17.926 L11.650,20.543 L9.007,20.543 L9.007,17.926 L11.650,17.926 Z" class="cls-1"/>
</svg>
