<svg xmlns="http://www.w3.org/2000/svg" xmlns:xlink="http://www.w3.org/1999/xlink" preserveAspectRatio="xMidYMid" width="20" height="23" viewBox="0 0 20 23">
  <defs>
    <style>
      .cls-1 {
        fill: #a0c800;
        fill-rule: evenodd;
      }
    </style>
  </defs>
  <path d="M19.495,14.281 L18.878,14.898 C18.726,15.050 18.523,15.134 18.307,15.134 C18.091,15.134 17.888,15.050 17.735,14.898 L17.400,14.563 C17.332,14.770 17.286,14.994 17.256,15.259 C17.239,15.414 17.134,15.545 16.986,15.596 C16.943,15.610 16.900,15.617 16.856,15.617 C16.748,15.617 16.643,15.574 16.566,15.494 C15.277,14.157 14.057,14.142 13.076,14.129 C12.601,14.124 12.110,14.118 11.670,13.955 C11.106,13.747 10.710,13.253 10.543,12.893 C10.476,12.749 10.500,12.580 10.603,12.460 C10.706,12.342 10.867,12.293 11.016,12.335 C11.296,12.412 11.589,12.450 11.887,12.450 C12.911,12.450 13.837,12.013 14.458,11.623 L14.274,11.439 C13.959,11.124 13.959,10.612 14.274,10.297 L14.891,9.680 C15.049,9.523 15.304,9.523 15.461,9.680 L19.495,13.712 C19.653,13.869 19.653,14.124 19.495,14.281 ZM15.594,6.593 L10.326,1.334 L1.778,1.334 L1.778,19.054 L4.777,19.054 L4.777,20.384 L1.753,20.384 C1.040,20.384 0.462,19.807 0.462,19.095 L0.462,1.334 C0.462,0.622 1.040,0.044 1.753,0.044 L15.611,0.044 C16.324,0.044 16.902,0.622 16.902,1.334 L16.902,7.862 L15.594,7.862 L15.594,6.593 ZM3.945,4.584 C3.569,4.584 3.264,4.292 3.264,3.931 C3.264,3.570 3.569,3.277 3.945,3.277 L9.650,3.277 C10.027,3.277 10.332,3.570 10.332,3.931 C10.332,4.292 10.027,4.584 9.650,4.584 L3.945,4.584 ZM14.277,7.246 C14.277,7.540 14.070,7.780 13.792,7.862 L4.777,7.862 L4.777,7.900 L3.945,7.900 C3.569,7.900 3.264,7.607 3.264,7.246 C3.264,6.886 3.569,6.593 3.945,6.593 L13.595,6.593 C13.972,6.593 14.277,6.886 14.277,7.246 ZM9.002,9.725 C9.078,9.649 9.180,9.607 9.287,9.607 C9.394,9.607 9.496,9.649 9.572,9.725 L10.189,10.341 C10.504,10.656 10.504,11.169 10.189,11.484 L9.631,12.042 C9.624,12.059 9.618,12.075 9.614,12.090 C9.484,12.495 9.601,13.046 9.928,13.565 C10.276,14.119 10.802,14.557 11.370,14.767 C11.950,14.981 12.492,14.988 13.066,14.995 C13.962,15.006 14.809,15.016 15.759,15.910 C15.762,15.913 15.764,15.916 15.767,15.919 L15.806,15.958 C15.917,16.069 16.021,16.177 16.112,16.279 C16.114,16.281 16.115,16.282 16.116,16.283 C16.148,16.320 16.180,16.357 16.211,16.395 L16.330,16.534 C16.332,16.537 16.335,16.541 16.338,16.544 C16.672,16.965 16.827,17.314 16.811,17.610 C16.791,17.993 16.503,18.429 15.816,19.115 L14.556,20.374 C13.997,20.933 13.557,21.205 13.128,21.255 C13.082,21.261 13.033,21.264 12.986,21.264 C12.495,21.264 11.965,20.973 11.367,20.375 C11.351,20.359 8.774,17.778 7.935,16.939 C7.670,16.675 7.641,16.348 7.600,15.896 C7.560,15.455 7.515,14.960 7.229,14.442 L6.728,14.942 C6.576,15.095 6.373,15.179 6.157,15.179 C5.941,15.179 5.738,15.095 5.585,14.942 L4.968,14.326 C4.893,14.250 4.850,14.148 4.850,14.041 C4.850,13.934 4.893,13.832 4.968,13.757 L9.002,9.725 ZM7.391,17.844 C7.516,17.827 7.641,17.869 7.730,17.958 C8.784,19.012 10.739,20.971 10.755,20.987 C10.954,21.186 11.155,21.362 11.352,21.510 C11.459,21.589 11.519,21.716 11.513,21.848 C11.508,21.981 11.437,22.102 11.325,22.173 C11.119,22.302 10.928,22.368 10.758,22.368 C10.727,22.368 10.696,22.366 10.666,22.361 C10.368,22.318 10.071,22.072 9.716,21.717 L7.594,19.582 C7.239,19.226 6.992,18.928 6.949,18.631 C6.923,18.458 6.972,18.261 7.095,18.045 C7.157,17.935 7.266,17.861 7.391,17.844 Z" class="cls-1"/>
</svg>
