<svg xmlns="http://www.w3.org/2000/svg" xmlns:xlink="http://www.w3.org/1999/xlink" preserveAspectRatio="xMidYMid" width="22" height="21" viewBox="0 0 22 21">
  <defs>
    <style>
      .cls-1 {
        fill: #727e93;
        fill-rule: evenodd;
      }
    </style>
  </defs>
  <path d="M18.288,9.122 L18.084,8.917 L7.965,19.086 C6.221,20.838 3.394,20.838 1.651,19.086 C-0.092,17.334 -0.092,14.494 1.651,12.742 L11.771,2.573 L11.568,2.369 C11.160,1.960 11.160,1.296 11.568,0.887 C11.975,0.478 12.635,0.478 13.043,0.887 L19.763,7.640 C20.171,8.049 20.171,8.713 19.763,9.122 C19.356,9.532 18.695,9.532 18.288,9.122 ZM8.539,7.439 L2.456,13.552 C1.159,14.855 1.160,16.975 2.456,18.278 C3.753,19.581 5.863,19.581 7.160,18.277 L17.269,8.120 L8.539,7.439 ZM21.276,16.371 C21.276,17.509 20.357,18.432 19.224,18.432 C18.091,18.432 17.172,17.509 17.172,16.371 C17.172,14.483 19.224,11.627 19.224,11.627 C19.224,11.627 21.276,14.483 21.276,16.371 Z" class="cls-1"/>
</svg>
