<svg xmlns="http://www.w3.org/2000/svg" xmlns:xlink="http://www.w3.org/1999/xlink" preserveAspectRatio="xMidYMid" width="24" height="26" viewBox="0 0 24 26">
  <defs>
    <style>
      .cls-1 {
        fill: #a0c800;
        fill-rule: evenodd;
      }
    </style>
  </defs>
  <path d="M23.594,8.061 L20.859,13.444 L19.669,11.387 C18.654,12.017 15.432,14.169 14.539,16.643 C16.076,17.427 17.137,19.008 17.137,20.849 C17.137,23.466 15.012,25.588 12.390,25.588 C9.769,25.588 7.644,23.466 7.644,20.849 C7.644,19.071 8.631,17.532 10.083,16.722 C9.219,14.179 5.854,11.960 4.881,11.360 L3.675,13.444 L0.940,8.061 L6.978,7.734 L5.752,9.853 C7.725,10.402 10.528,13.860 11.329,14.891 L11.329,5.377 L9.088,5.377 L12.391,0.321 L15.693,5.377 L13.334,5.377 L13.334,14.801 C14.223,13.668 16.894,10.450 18.806,9.896 L17.556,7.734 L23.594,8.061 ZM12.390,17.906 C10.762,17.906 9.442,19.224 9.442,20.849 C9.442,22.475 10.762,23.793 12.390,23.793 C14.019,23.793 15.339,22.475 15.339,20.849 C15.339,19.224 14.019,17.906 12.390,17.906 ZM12.390,22.704 C11.365,22.704 10.533,21.873 10.533,20.849 C10.533,19.825 11.365,18.995 12.390,18.995 C13.416,18.995 14.248,19.825 14.248,20.849 C14.248,21.873 13.416,22.704 12.390,22.704 Z" class="cls-1"/>
</svg>
