<svg xmlns="http://www.w3.org/2000/svg" xmlns:xlink="http://www.w3.org/1999/xlink" preserveAspectRatio="xMidYMid" width="29" height="23" viewBox="0 0 29 23">
  <defs>
    <style>
      .cls-1 {
        fill: #727e93;
        fill-rule: evenodd;
      }
    </style>
  </defs>
  <path d="M28.841,12.461 C28.758,12.655 27.343,15.652 26.538,16.704 C25.734,17.757 25.556,18.554 25.345,18.976 C25.040,19.585 24.291,19.807 23.902,19.169 C23.514,18.532 23.597,17.895 22.015,17.895 C20.433,17.895 20.461,19.530 19.434,19.530 C18.408,19.530 18.935,17.978 16.882,17.978 C14.828,17.978 15.355,19.613 14.329,19.613 C13.302,19.613 13.607,17.868 11.748,17.868 C9.889,17.868 10.111,19.668 9.167,19.668 C8.224,19.668 8.557,17.895 6.698,17.895 C4.839,17.895 4.839,19.613 4.173,19.613 C3.507,19.613 3.201,18.643 2.452,18.006 C1.703,17.369 0.316,16.785 0.565,13.544 L18.463,13.544 C18.463,13.544 18.741,13.544 18.852,13.156 C18.963,12.768 19.157,12.212 19.573,12.212 C19.990,12.212 28.647,12.212 28.647,12.212 C28.647,12.212 28.925,12.267 28.841,12.461 ZM23.973,10.336 L20.480,10.336 C20.173,10.336 19.925,10.088 19.925,9.782 L19.925,8.369 C19.925,8.063 20.173,7.815 20.480,7.815 L23.973,7.815 C24.280,7.815 24.528,8.063 24.528,8.369 L24.528,9.782 C24.528,10.088 24.280,10.336 23.973,10.336 ZM18.061,12.247 L14.568,12.247 C14.261,12.247 14.013,11.999 14.013,11.693 L14.013,7.095 C14.013,6.789 14.261,6.541 14.568,6.541 L18.061,6.541 C18.368,6.541 18.616,6.789 18.616,7.095 L18.616,11.693 C18.616,11.999 18.368,12.247 18.061,12.247 ZM12.142,12.247 L8.648,12.247 C8.342,12.247 8.093,11.999 8.093,11.693 L8.093,8.369 C8.093,8.063 8.342,7.815 8.648,7.815 L12.142,7.815 C12.448,7.815 12.697,8.063 12.697,8.369 L12.697,11.693 C12.697,11.999 12.448,12.247 12.142,12.247 ZM6.780,12.274 L0.860,12.274 L0.860,6.676 L0.815,6.676 C0.662,6.676 0.538,6.552 0.538,6.399 L0.538,5.236 C0.538,5.083 0.662,4.959 0.815,4.959 L3.556,4.959 C3.522,4.910 3.488,4.859 3.488,4.796 L3.488,3.709 L2.718,3.709 C2.542,3.709 2.399,3.567 2.399,3.391 C2.399,3.215 2.542,3.072 2.718,3.072 L3.488,3.072 L3.488,0.474 C3.488,0.306 3.625,0.170 3.793,0.170 C3.962,0.170 4.099,0.306 4.099,0.474 L4.099,3.072 L4.938,3.072 C5.114,3.072 5.257,3.215 5.257,3.391 C5.257,3.567 5.114,3.709 4.938,3.709 L4.099,3.709 L4.099,4.796 C4.099,4.859 4.064,4.910 4.031,4.959 L7.502,4.959 C7.656,4.959 7.780,5.083 7.780,5.236 C7.780,5.236 7.026,6.242 6.780,6.568 L6.780,12.274 ZM5.457,6.657 C5.457,6.504 5.333,6.380 5.180,6.380 L4.422,6.380 C4.269,6.380 4.145,6.504 4.145,6.657 L4.145,8.042 C4.145,8.195 4.269,8.319 4.422,8.319 L5.180,8.319 C5.333,8.319 5.457,8.195 5.457,8.042 L5.457,6.657 ZM5.457,9.218 C5.457,9.065 5.333,8.941 5.180,8.941 L4.422,8.941 C4.269,8.941 4.145,9.065 4.145,9.218 L4.145,10.685 C4.145,10.838 4.269,10.962 4.422,10.962 L5.180,10.962 C5.333,10.962 5.457,10.838 5.457,10.685 L5.457,9.218 ZM1.370,19.363 C1.842,19.253 2.064,19.668 2.064,19.668 C2.064,19.668 2.424,21.081 4.062,21.081 C5.699,21.081 5.810,19.917 6.143,19.585 C6.476,19.253 7.003,19.280 7.170,19.613 C7.336,19.945 7.808,21.025 9.195,21.025 C10.583,21.025 10.971,20.111 11.276,19.640 C11.582,19.169 12.109,19.363 12.303,19.723 C12.497,20.084 13.163,21.136 14.356,21.136 C15.550,21.136 16.021,20.028 16.354,19.668 C16.687,19.308 17.131,19.169 17.464,19.640 C17.797,20.111 18.130,21.081 19.407,21.081 C20.683,21.081 21.294,19.890 21.654,19.474 C22.015,19.059 22.598,19.253 22.653,19.696 C22.696,20.036 23.319,21.081 24.679,21.081 C26.039,21.081 26.521,19.652 26.788,19.419 C27.232,19.031 28.009,19.474 27.759,20.194 C27.509,20.915 26.288,22.327 24.734,22.327 C23.181,22.327 22.015,21.219 22.015,21.219 C22.015,21.219 20.933,22.355 19.379,22.355 C17.825,22.355 16.909,21.164 16.909,21.164 C16.909,21.164 16.132,22.327 14.356,22.327 C12.580,22.327 11.748,21.192 11.748,21.192 C11.748,21.192 10.610,22.355 9.195,22.355 C7.780,22.355 6.642,21.219 6.642,21.219 C6.642,21.219 5.782,22.327 3.812,22.327 C1.564,22.327 0.870,19.973 0.870,19.973 C0.870,19.973 0.898,19.474 1.370,19.363 Z" class="cls-1"/>
</svg>
