<svg xmlns="http://www.w3.org/2000/svg" xmlns:xlink="http://www.w3.org/1999/xlink" preserveAspectRatio="xMidYMid" width="27" height="22" viewBox="0 0 27 22">
  <defs>
    <style>
      .cls-1 {
        fill: #a0c800;
        fill-rule: evenodd;
      }
    </style>
  </defs>
  <path d="M25.494,16.993 L25.494,17.873 L24.879,17.873 L24.879,18.793 L25.494,18.793 L25.494,19.677 L23.204,19.677 C23.205,19.637 23.216,19.600 23.216,19.560 C23.216,18.045 21.986,16.817 20.468,16.817 C18.951,16.817 17.722,18.045 17.722,19.560 C17.722,19.600 17.732,19.637 17.733,19.677 L15.004,19.677 L15.004,20.977 L10.380,20.977 L10.380,19.677 L9.383,19.677 C9.385,19.637 9.395,19.600 9.395,19.560 C9.395,18.045 8.165,16.817 6.648,16.817 C5.131,16.817 3.901,18.045 3.901,19.560 C3.901,19.826 3.951,20.078 4.021,20.321 L0.513,20.321 L0.513,14.091 C0.513,14.091 2.325,9.729 2.819,9.526 C3.313,9.323 4.151,9.171 4.686,9.171 C5.221,9.171 7.884,9.171 7.884,9.171 L8.419,9.678 L8.419,16.979 L9.732,16.979 L9.732,7.008 L11.099,7.008 C11.252,11.276 14.757,14.691 19.070,14.691 C22.169,14.691 24.850,12.925 26.173,10.349 L26.173,16.993 L25.494,16.993 ZM5.001,15.702 L6.332,15.702 L6.332,14.867 L5.001,14.867 L5.001,15.702 ZM7.101,10.628 C7.101,10.628 7.135,10.509 6.964,10.509 C6.794,10.509 3.927,10.509 3.927,10.509 C3.927,10.509 3.671,10.338 3.262,11.718 C2.852,13.098 2.699,13.643 3.142,13.677 C3.586,13.711 6.998,13.626 7.101,13.030 L7.101,10.628 ZM19.070,13.401 C15.373,13.401 12.377,10.410 12.377,6.720 C12.377,3.030 15.373,0.039 19.070,0.039 C22.766,0.039 25.762,3.030 25.762,6.720 C25.762,10.410 22.766,13.401 19.070,13.401 ZM22.908,3.923 C22.534,3.549 21.928,3.549 21.554,3.923 L18.170,7.307 C18.075,7.401 17.922,7.401 17.828,7.307 L16.578,6.057 C16.204,5.683 15.597,5.683 15.224,6.057 C14.850,6.431 14.850,7.037 15.224,7.411 L17.321,9.508 C17.695,9.882 18.302,9.882 18.675,9.508 L22.908,5.276 C23.088,5.097 23.188,4.853 23.188,4.599 C23.188,4.346 23.088,4.102 22.908,3.923 ZM6.648,17.303 C7.896,17.303 8.909,18.313 8.909,19.560 C8.909,20.806 7.896,21.817 6.648,21.817 C5.399,21.817 4.387,20.806 4.387,19.560 C4.387,18.313 5.399,17.303 6.648,17.303 ZM6.648,20.582 C7.213,20.582 7.671,20.124 7.671,19.560 C7.671,18.995 7.213,18.538 6.648,18.538 C6.082,18.538 5.624,18.995 5.624,19.560 C5.624,20.124 6.082,20.582 6.648,20.582 ZM20.468,17.303 C21.717,17.303 22.729,18.313 22.729,19.560 C22.729,20.806 21.717,21.817 20.468,21.817 C19.220,21.817 18.208,20.806 18.208,19.560 C18.208,18.313 19.220,17.303 20.468,17.303 ZM20.468,20.582 C21.034,20.582 21.492,20.124 21.492,19.560 C21.492,18.995 21.034,18.538 20.468,18.538 C19.903,18.538 19.445,18.995 19.445,19.560 C19.445,20.124 19.903,20.582 20.468,20.582 Z" class="cls-1"/>
</svg>
