<svg xmlns="http://www.w3.org/2000/svg" xmlns:xlink="http://www.w3.org/1999/xlink" preserveAspectRatio="xMidYMid" width="17" height="22" viewBox="0 0 17 22">
  <defs>
    <style>
      .cls-1 {
        fill: #a0c800;
        fill-rule: evenodd;
      }
    </style>
  </defs>
  <path d="M15.611,21.228 L1.753,21.228 C1.040,21.228 0.462,20.651 0.462,19.939 L0.462,2.177 C0.462,1.465 1.040,0.888 1.753,0.888 L15.611,0.888 C16.324,0.888 16.902,1.465 16.902,2.177 L16.902,19.939 C16.902,20.651 16.324,21.228 15.611,21.228 ZM15.594,7.437 L10.326,2.177 L1.778,2.177 L1.778,19.898 L15.594,19.898 L15.594,7.437 ZM3.751,8.727 C3.788,8.727 3.821,8.743 3.856,8.749 L6.934,8.749 C6.969,8.743 7.002,8.727 7.039,8.727 C7.076,8.727 7.108,8.743 7.144,8.749 L13.431,8.749 C13.445,8.749 13.457,8.756 13.471,8.757 C13.519,8.746 13.564,8.727 13.614,8.727 C13.976,8.727 14.269,9.032 14.269,9.408 L14.269,17.256 C14.269,17.632 13.976,17.937 13.614,17.937 C13.580,17.937 13.550,17.922 13.517,17.916 C13.487,17.920 13.461,17.933 13.431,17.933 L7.057,17.933 C7.050,17.933 7.045,17.937 7.039,17.937 C7.033,17.937 7.027,17.933 7.021,17.933 L3.781,17.933 C3.779,17.933 3.777,17.932 3.775,17.932 C3.766,17.932 3.760,17.937 3.751,17.937 C3.511,17.937 3.311,17.796 3.197,17.596 C3.182,17.572 3.162,17.552 3.151,17.526 C3.133,17.483 3.131,17.434 3.122,17.387 C3.115,17.351 3.099,17.318 3.099,17.280 C3.099,17.278 3.100,17.277 3.100,17.275 C3.100,17.269 3.097,17.263 3.097,17.256 L3.097,9.408 C3.097,9.032 3.390,8.727 3.751,8.727 ZM7.693,16.626 L12.960,16.626 L12.960,15.307 L7.693,15.307 L7.693,16.626 ZM7.693,14.001 L12.960,14.001 L12.960,12.682 L7.693,12.682 L7.693,14.001 ZM7.693,11.375 L12.960,11.375 L12.960,10.056 L7.693,10.056 L7.693,11.375 ZM4.406,16.626 L6.384,16.626 L6.384,15.307 L4.406,15.307 L4.406,16.626 ZM4.406,14.001 L6.384,14.001 L6.384,12.682 L4.406,12.682 L4.406,14.001 ZM4.406,11.375 L6.384,11.375 L6.384,10.056 L4.406,10.056 L4.406,11.375 ZM9.650,5.428 L3.945,5.428 C3.569,5.428 3.264,5.135 3.264,4.774 C3.264,4.413 3.569,4.121 3.945,4.121 L9.650,4.121 C10.027,4.121 10.332,4.413 10.332,4.774 C10.332,5.135 10.027,5.428 9.650,5.428 Z" class="cls-1"/>
</svg>
