<svg xmlns="http://www.w3.org/2000/svg" xmlns:xlink="http://www.w3.org/1999/xlink" preserveAspectRatio="xMidYMid" width="18" height="22" viewBox="0 0 18 22">
  <defs>
    <style>
      .cls-1 {
        fill: #a0c800;
        fill-rule: evenodd;
      }
    </style>
  </defs>
  <path d="M16.954,4.961 C17.425,6.808 17.652,8.711 17.713,10.614 C17.770,12.531 17.582,14.451 17.246,16.337 C17.189,16.655 17.124,16.986 17.054,17.295 C17.037,17.369 16.823,18.105 16.849,18.123 C17.306,18.417 17.615,18.911 17.681,19.478 L12.471,13.254 C14.044,11.264 14.386,8.862 13.220,7.496 C12.792,7.757 12.387,7.923 12.029,8.058 C11.449,8.275 11.025,8.437 10.681,8.781 C10.663,8.798 10.642,8.820 10.615,8.850 C10.245,9.260 10.025,9.676 9.849,10.121 L8.898,8.985 C9.079,8.635 9.304,8.282 9.621,7.936 C9.647,7.901 9.682,7.866 9.721,7.827 C10.284,7.269 10.908,7.060 11.457,6.851 C11.697,6.760 11.924,6.668 12.147,6.555 C10.893,5.846 9.054,6.109 7.390,7.183 L1.982,0.721 C2.017,0.719 2.051,0.710 2.087,0.710 C2.680,0.710 3.208,0.985 3.549,1.416 C6.018,0.632 8.679,0.506 11.239,0.806 C11.815,0.876 12.387,0.967 12.954,1.081 C13.067,1.102 14.341,1.473 14.363,1.442 C14.703,0.998 15.240,0.710 15.842,0.710 C16.871,0.710 17.709,1.547 17.709,2.574 C17.709,3.276 17.320,3.885 16.744,4.203 C16.731,4.212 16.923,4.844 16.941,4.905 C16.941,4.922 16.950,4.948 16.954,4.961 ZM1.062,18.136 C0.992,17.875 0.927,17.604 0.866,17.339 C0.783,16.964 0.704,16.585 0.639,16.206 C0.303,14.303 0.255,12.409 0.255,10.484 C0.264,8.598 0.534,6.681 1.014,4.857 C1.031,4.804 1.219,4.225 1.171,4.199 C0.723,3.945 0.399,3.511 0.278,2.998 L5.358,9.068 C3.995,10.875 3.636,12.988 4.478,14.360 C4.491,14.356 4.500,14.351 4.513,14.347 C4.608,14.342 5.110,14.112 5.612,13.776 C6.127,13.441 6.702,12.992 7.143,12.552 C7.309,12.387 7.457,12.217 7.575,12.065 C7.624,12.001 7.660,11.934 7.702,11.868 L8.600,12.941 C8.450,13.131 8.286,13.319 8.103,13.502 C7.588,14.016 6.964,14.495 6.393,14.869 C6.044,15.092 5.738,15.270 5.455,15.401 C6.666,16.352 8.620,16.185 10.402,15.094 L15.805,21.549 C15.027,21.533 14.367,21.047 14.101,20.361 C13.516,20.531 12.923,20.666 12.321,20.771 C11.789,20.862 11.248,20.932 10.707,20.975 C10.131,21.023 9.542,21.063 8.966,21.063 C8.120,21.071 7.283,21.028 6.441,20.923 C5.965,20.862 5.485,20.784 5.014,20.684 C4.918,20.666 3.823,20.388 3.823,20.388 C3.544,21.067 2.872,21.550 2.091,21.550 C1.062,21.550 0.224,20.714 0.224,19.686 C0.224,19.033 0.560,18.458 1.062,18.136 Z" class="cls-1"/>
</svg>
