<svg xmlns="http://www.w3.org/2000/svg" xmlns:xlink="http://www.w3.org/1999/xlink" width="31" height="31" viewBox="0 0 31 31">
  <metadata><?xpacket begin="﻿" id="W5M0MpCehiHzreSzNTczkc9d"?>
<x:xmpmeta xmlns:x="adobe:ns:meta/" x:xmptk="Adobe XMP Core 5.6-c138 79.159824, 2016/09/14-01:09:01        ">
   <rdf:RDF xmlns:rdf="http://www.w3.org/1999/02/22-rdf-syntax-ns#">
      <rdf:Description rdf:about=""/>
   </rdf:RDF>
</x:xmpmeta>
                                                                                                    
                                                                                                    
                                                                                                    
                                                                                                    
                                                                                                    
                                                                                                    
                                                                                                    
                                                                                                    
                                                                                                    
                                                                                                    
                                                                                                    
                                                                                                    
                                                                                                    
                                                                                                    
                                                                                                    
                                                                                                    
                                                                                                    
                                                                                                    
                                                                                                    
                                                                                                    
                           
<?xpacket end="w"?></metadata>
<defs>
    <style>
      .cls-1 {
        fill: #fff;
        fill-rule: evenodd;
        filter: url(#filter);
      }
    </style>
    <filter id="filter" x="21" y="263" width="31" height="31" filterUnits="userSpaceOnUse">
      <feFlood result="flood" flood-color="#9fc800"/>
      <feComposite result="composite" operator="in" in2="SourceGraphic"/>
      <feBlend result="blend" in2="SourceGraphic"/>
    </filter>
  </defs>
  <path id="Shape_1_copy" data-name="Shape 1 copy" class="cls-1" d="M41.523,273.668a7.1,7.1,0,1,0,0,10.047A7.113,7.113,0,0,0,41.523,273.668Zm-1.141,9.34a5.811,5.811,0,0,1-7.757.007v-1.5a2.1,2.1,0,0,1,1.468-1.922L36.5,282l2.407-2.407a2.1,2.1,0,0,1,1.475,1.911v1.5Zm-1.155-4.669-0.69-.2L36.5,280.173l-2.037-2.038-0.692.2a3.377,3.377,0,0,0-2.426,3.037,5.812,5.812,0,1,1,10.317-.015A3.378,3.378,0,0,0,39.227,278.339ZM36.5,273.75a2.424,2.424,0,1,0,2.424,2.424A2.426,2.426,0,0,0,36.5,273.75Zm0,3.555a1.132,1.132,0,1,1,1.132-1.131A1.133,1.133,0,0,1,36.5,277.305Zm3.521,12.277c-0.159.051-.323,0.085-0.485,0.129a3.209,3.209,0,0,0-6.071,0c-0.194-.052-0.391-0.094-0.58-0.156l-0.4,1.227c0.264,0.087.539,0.149,0.811,0.219a3.213,3.213,0,0,0,6.412,0c0.236-.06.474-0.113,0.7-0.187ZM36.5,292.708a1.938,1.938,0,1,1,1.938-1.937A1.939,1.939,0,0,1,36.5,292.708ZM27.458,278.5a3.224,3.224,0,0,0-2.166-3.035c0.052-.194.094-0.391,0.156-0.58l-1.227-.4c-0.087.265-.149,0.539-0.218,0.811a3.213,3.213,0,0,0,0,6.412c0.06,0.236.113,0.474,0.187,0.706l1.231-.391c-0.05-.159-0.085-0.323-0.128-0.485A3.224,3.224,0,0,0,27.458,278.5Zm-3.229,1.937a1.938,1.938,0,1,1,1.938-1.937A1.939,1.939,0,0,1,24.229,280.437Zm21.652,4.931a11.955,11.955,0,0,1-.774.947l0.956,0.869a13.121,13.121,0,0,0,.86-1.053Zm1.23-2.111a11.567,11.567,0,0,1-.559,1.088L47.668,285a13,13,0,0,0,.621-1.209ZM42.255,288.6a11.72,11.72,0,0,1-1.092.549l0.52,1.183a13.042,13.042,0,0,0,1.213-.61Zm1.982-1.427a11.727,11.727,0,0,1-.954.765l0.754,1.049a12.9,12.9,0,0,0,1.06-.851ZM49,275.294c-0.06-.236-0.113-0.474-0.187-0.706l-1.231.391c0.05,0.159.085,0.323,0.128,0.485a3.209,3.209,0,0,0,0,6.071c-0.052.194-.094,0.391-0.156,0.581l1.227,0.4c0.087-.264.149-0.539,0.219-0.811A3.213,3.213,0,0,0,49,275.294Zm-0.23,5.143a1.938,1.938,0,1,1,1.938-1.937A1.939,1.939,0,0,1,48.771,280.437Zm-4.64-12.36-0.764,1.042a11.811,11.811,0,0,1,.948.774l0.868-.956A13.051,13.051,0,0,0,44.131,268.077Zm-2.346-1.366-0.529,1.178a11.447,11.447,0,0,1,1.088.559l0.65-1.116A12.587,12.587,0,0,0,41.785,266.711Zm4.354,3.191-0.964.86a11.685,11.685,0,0,1,.766.954l1.048-.755A12.852,12.852,0,0,0,46.139,269.9Zm1.585,2.2-1.122.64a11.782,11.782,0,0,1,.55,1.092l1.183-.52A12.978,12.978,0,0,0,47.724,272.1Zm-22.392-.1a12.809,12.809,0,0,0-.622,1.209l1.178,0.529a11.6,11.6,0,0,1,.559-1.088Zm3.629-3.995a12.854,12.854,0,0,0-1.06.85l0.86,0.963a11.71,11.71,0,0,1,.954-0.765Zm-2.024,1.806a13.105,13.105,0,0,0-.86,1.052l1.042,0.764a11.769,11.769,0,0,1,.774-0.948ZM39.706,266a3.213,3.213,0,0,0-6.412,0c-0.236.06-.474,0.113-0.706,0.186l0.391,1.231c0.159-.05.323-0.084,0.485-0.128a3.209,3.209,0,0,0,6.071,0c0.194,0.052.391,0.094,0.58,0.156l0.4-1.227C40.252,266.134,39.978,266.072,39.706,266ZM36.5,268.167a1.938,1.938,0,1,1,1.938-1.938A1.94,1.94,0,0,1,36.5,268.167Zm-5.183-1.5a12.81,12.81,0,0,0-1.213.61l0.64,1.122a11.728,11.728,0,0,1,1.092-.55Zm-5.469,16.5-1.182.52a13.1,13.1,0,0,0,.61,1.213l1.122-.641A11.634,11.634,0,0,1,25.848,283.163Zm2.837,3.944-0.869.956a13.288,13.288,0,0,0,1.052.86l0.764-1.042A11.812,11.812,0,0,1,28.685,287.107Zm-1.626-1.822-1.048.754a12.85,12.85,0,0,0,.85,1.059l0.964-.86A11.843,11.843,0,0,1,27.059,285.285Zm3.6,3.267-0.65,1.116a13.072,13.072,0,0,0,1.209.621l0.529-1.178A11.685,11.685,0,0,1,30.656,288.552Z" transform="translate(-21 -263)"/>
</svg>
