<svg xmlns="http://www.w3.org/2000/svg" xmlns:xlink="http://www.w3.org/1999/xlink" width="23" height="31" viewBox="0 0 23 31">
  <metadata><?xpacket begin="﻿" id="W5M0MpCehiHzreSzNTczkc9d"?>
<x:xmpmeta xmlns:x="adobe:ns:meta/" x:xmptk="Adobe XMP Core 5.6-c138 79.159824, 2016/09/14-01:09:01        ">
   <rdf:RDF xmlns:rdf="http://www.w3.org/1999/02/22-rdf-syntax-ns#">
      <rdf:Description rdf:about=""/>
   </rdf:RDF>
</x:xmpmeta>
                                                                                                    
                                                                                                    
                                                                                                    
                                                                                                    
                                                                                                    
                                                                                                    
                                                                                                    
                                                                                                    
                                                                                                    
                                                                                                    
                                                                                                    
                                                                                                    
                                                                                                    
                                                                                                    
                                                                                                    
                                                                                                    
                                                                                                    
                                                                                                    
                                                                                                    
                                                                                                    
                           
<?xpacket end="w"?></metadata>
<defs>
    <style>
      .cls-1 {
        fill: #fff;
        fill-rule: evenodd;
        filter: url(#filter);
      }
    </style>
    <filter id="filter" x="25" y="194" width="23" height="31" filterUnits="userSpaceOnUse">
      <feFlood result="flood" flood-color="#9fc800"/>
      <feComposite result="composite" operator="in" in2="SourceGraphic"/>
      <feBlend result="blend" in2="SourceGraphic"/>
    </filter>
  </defs>
  <path id="Forma_1" data-name="Forma 1" class="cls-1" d="M41.784,206.643a0.672,0.672,0,0,1-.672.68h-11.4a0.68,0.68,0,0,1,0-1.36H41.074A0.657,0.657,0,0,1,41.784,206.643Zm-12.97-4.238v-3.067a1.13,1.13,0,0,1,1.121-1.135h10.8a1.13,1.13,0,0,1,1.122,1.135v3.067a1.13,1.13,0,0,1-1.122,1.136h-10.8A1.109,1.109,0,0,1,28.814,202.405Zm1.381-.266h10.28V199.6H30.2v2.538h0Zm16.189,15.822-0.038,5.756a1.025,1.025,0,0,1-.934,1.248A1.11,1.11,0,0,1,44.7,224.7l-1.869-1.592-1.793,1.514a1.4,1.4,0,0,1-.824.379,0.93,0.93,0,0,1-.9-0.908v-1.209H26.831A1.845,1.845,0,0,1,25,221.029V195.854A1.846,1.846,0,0,1,26.831,194H44.214a1.846,1.846,0,0,1,1.831,1.854v14.2a4.753,4.753,0,0,1,1.346,1.627A5.314,5.314,0,0,1,46.384,217.961Zm-0.225-5.6a3.822,3.822,0,0,0-1.27-1.4,2.035,2.035,0,0,1-.3-0.189c-0.038,0-.076-0.039-0.111-0.039-0.149-.077-0.263-0.112-0.412-0.189H44.03a3.67,3.67,0,0,0-2.468.038H41.524a2.7,2.7,0,0,0-.45.228,3.8,3.8,0,0,0-1.98,3.369h0a4.033,4.033,0,0,0,.45,1.816,2.553,2.553,0,0,0,.263.417c0.038,0.038.038,0.077,0.076,0.112a1.782,1.782,0,0,0,.225.266l0.076,0.077a2.345,2.345,0,0,0,.336.3l0.038,0.038c0.111,0.077.187,0.151,0.3,0.228l0.038,0.039c0.038,0,.038.038,0.076,0.038s0.076,0.039.111,0.039c0.038,0.039.111,0.039,0.149,0.077a3.881,3.881,0,0,0,2.766.228c0.038,0,.111-0.039.149-0.039a0.076,0.076,0,0,0,.076-0.038c0.038,0,.076-0.039.111-0.039,0.111-.038.225-0.112,0.336-0.15a2.115,2.115,0,0,0,.3-0.19c0.111-.077.187-0.151,0.3-0.228A3.915,3.915,0,0,0,46.159,212.36Zm-6.84,9.047v-2.688H29.711a0.68,0.68,0,0,1,0-1.36h9.01a0.7,0.7,0,0,0-.149-0.19,0.208,0.208,0,0,1-.076-0.112,2.271,2.271,0,0,1-.187-0.3l-0.038-.039c-0.076-.15-0.149-0.3-0.225-0.491h0a7.7,7.7,0,0,1-.336-1.247h-8a0.681,0.681,0,0,1,0-1.361h8a6.437,6.437,0,0,1,.149-0.795,5.538,5.538,0,0,1,.786-1.553H29.711a0.68,0.68,0,0,1,0-1.36H40.14a0.822,0.822,0,0,0,.225-0.151c0.149-.077.3-0.15,0.485-0.228h0.038a4.8,4.8,0,0,1,1.945-.378,4.7,4.7,0,0,1,1.793.34h0V195.854a0.436,0.436,0,0,0-.45-0.456H26.831a0.436,0.436,0,0,0-.45.456v25.062a0.435,0.435,0,0,0,.45.456H39.316v0.035h0ZM45,218.946a0.076,0.076,0,0,0-.076.039,0.038,0.038,0,0,0-.038.039H44.847c-0.076.038-.149,0.038-0.225,0.077a0.076,0.076,0,0,0-.076.038c-0.038,0-.076.039-0.111,0.039H44.359a0.076,0.076,0,0,0-.076.038H44.245a0.128,0.128,0,0,0-.111.039,1.564,1.564,0,0,1-.187.038c-0.038,0-.111.039-0.149,0.039h0c-0.076,0-.149.039-0.263,0.039a0.22,0.22,0,0,0-.149.038h-0.64a1.252,1.252,0,0,1-.374-0.038H42.3a4.221,4.221,0,0,1-1.385-.379h0c-0.038-.039-0.111-0.039-0.149-0.077h0l-0.038,4.125,1.682-1.437a0.75,0.75,0,0,1,.9,0l1.682,1.437Z" transform="translate(-25 -194)"/>
</svg>
