<svg xmlns="http://www.w3.org/2000/svg" xmlns:xlink="http://www.w3.org/1999/xlink" width="23" height="29" viewBox="0 0 23 29">
  <metadata><?xpacket begin="﻿" id="W5M0MpCehiHzreSzNTczkc9d"?>
<x:xmpmeta xmlns:x="adobe:ns:meta/" x:xmptk="Adobe XMP Core 5.6-c138 79.159824, 2016/09/14-01:09:01        ">
   <rdf:RDF xmlns:rdf="http://www.w3.org/1999/02/22-rdf-syntax-ns#">
      <rdf:Description rdf:about=""/>
   </rdf:RDF>
</x:xmpmeta>
                                                                                                    
                                                                                                    
                                                                                                    
                                                                                                    
                                                                                                    
                                                                                                    
                                                                                                    
                                                                                                    
                                                                                                    
                                                                                                    
                                                                                                    
                                                                                                    
                                                                                                    
                                                                                                    
                                                                                                    
                                                                                                    
                                                                                                    
                                                                                                    
                                                                                                    
                                                                                                    
                           
<?xpacket end="w"?></metadata>
<defs>
    <style>
      .cls-1 {
        fill: #fff;
        fill-rule: evenodd;
        filter: url(#filter);
      }
    </style>
    <filter id="filter" x="25" y="607" width="23" height="29" filterUnits="userSpaceOnUse">
      <feFlood result="flood" flood-color="#9fc800"/>
      <feComposite result="composite" operator="in" in2="SourceGraphic"/>
      <feBlend result="blend" in2="SourceGraphic"/>
    </filter>
  </defs>
  <path id="Shape_1_copy_5" data-name="Shape 1 copy 5" class="cls-1" d="M47.343,607H25.657a0.652,0.652,0,0,0-.657.647v27.7a0.653,0.653,0,0,0,.657.648H47.343A0.653,0.653,0,0,0,48,635.352v-27.7A0.652,0.652,0,0,0,47.343,607ZM26.314,634.705V618.148H42.033a0.648,0.648,0,1,0,0-1.3H26.314v-8.558H46.686v26.41H26.314Zm17.637-24.876h-14.9a0.652,0.652,0,0,0-.657.647v4.61a0.653,0.653,0,0,0,.657.648h14.9a0.653,0.653,0,0,0,.657-0.648v-4.61A0.652,0.652,0,0,0,43.951,609.829Zm-0.657,4.61H29.706v-3.315H43.294v3.315h0Zm0.657,4.838h-14.9a0.652,0.652,0,0,0-.657.647v12.6a0.653,0.653,0,0,0,.657.648h14.9a0.653,0.653,0,0,0,.657-0.648v-12.6A0.652,0.652,0,0,0,43.951,619.277Zm-8.108,12.6H29.706v-5.014h6.137v5.014h0Zm0-6.309H29.706v-5h6.137v5h0Zm7.451,6.309H37.157v-5.014h6.137v5.014h0Zm0-6.309H37.157v-5h6.137v5h0Zm-9.13-3.145H33.432V621.7a0.657,0.657,0,0,0-1.314,0v0.722H31.385a0.648,0.648,0,1,0,0,1.295h0.732v0.721a0.657,0.657,0,0,0,1.314,0v-0.721h0.732A0.648,0.648,0,1,0,34.164,622.422Zm-0.46,6.956,0.518-.51a0.64,0.64,0,0,0,0-.915,0.664,0.664,0,0,0-.929,0l-0.518.51-0.518-.51a0.664,0.664,0,0,0-.929,0,0.64,0.64,0,0,0,0,.915l0.518,0.51-0.518.511a0.64,0.64,0,0,0,0,.915,0.663,0.663,0,0,0,.929,0l0.518-.51,0.518,0.51a0.663,0.663,0,0,0,.929,0,0.64,0.64,0,0,0,0-.915Zm7.911-6.956H38.836a0.648,0.648,0,1,0,0,1.295h2.779A0.648,0.648,0,1,0,41.615,622.422Zm0,5.224H38.836a0.648,0.648,0,1,0,0,1.3h2.779A0.648,0.648,0,1,0,41.615,627.646Zm0,1.8H38.836a0.648,0.648,0,1,0,0,1.295h2.779A0.648,0.648,0,1,0,41.615,629.445ZM44.6,617.374a0.641,0.641,0,0,0-.1-0.232,0.612,0.612,0,0,0-.082-0.1,0.665,0.665,0,0,0-.1-0.081,0.658,0.658,0,0,0-.114-0.059,0.588,0.588,0,0,0-.123-0.037,0.65,0.65,0,0,0-.256,0,0.605,0.605,0,0,0-.124.037,0.674,0.674,0,0,0-.113.059,0.656,0.656,0,0,0-.182.18,0.6,0.6,0,0,0-.06.111,0.669,0.669,0,0,0-.038.121,0.651,0.651,0,0,0,0,.253,0.645,0.645,0,0,0,.038.121,0.661,0.661,0,0,0,.142.211,0.6,0.6,0,0,0,.1.08,0.679,0.679,0,0,0,.113.06,0.762,0.762,0,0,0,.123.037,0.69,0.69,0,0,0,.256,0,0.734,0.734,0,0,0,.123-0.037,0.662,0.662,0,0,0,.114-0.06,0.594,0.594,0,0,0,.1-0.08,0.617,0.617,0,0,0,.082-0.1,0.657,0.657,0,0,0,.06-0.112,0.589,0.589,0,0,0,.038-0.121,0.627,0.627,0,0,0,.013-0.126A0.645,0.645,0,0,0,44.6,617.374Z" transform="translate(-25 -607)"/>
</svg>
