<svg xmlns="http://www.w3.org/2000/svg" xmlns:xlink="http://www.w3.org/1999/xlink" viewBox="0 0 583.97 576.51"><defs><style>.cls-1{fill:none;}.cls-2{fill:#698714;}.cls-3{fill:#aaa;}.cls-4{clip-path:url(#clip-path);}.cls-5{opacity:0.4;}.cls-6{fill:#fff;}</style><clipPath id="clip-path"><circle id="_Clipping_Path_" data-name="&lt;Clipping Path&gt;" class="cls-1" cx="256" cy="256" r="256"/></clipPath></defs><title>Grade_default</title><g id="Layer_4" data-name="Layer 4"><circle id="_Path_" data-name="&lt;Path&gt;" class="cls-2" cx="256" cy="256" r="256"/><circle id="_Path_2" data-name="&lt;Path&gt;" class="cls-3" cx="256" cy="256" r="256"/><g id="_Clip_Group_" data-name="&lt;Clip Group&gt;"><g class="cls-4"><polygon id="_Path_3" data-name="&lt;Path&gt;" class="cls-5" points="154.59 347.09 381.97 576.51 531.97 515.51 583.97 449.51 325.09 148.1 155.59 166.09 154.59 347.09"/></g></g><path id="_Path_4" data-name="&lt;Path&gt;" class="cls-6" d="M165,168"/></g><g id="Layer_3" data-name="Layer 3"><g id="_Group_" data-name="&lt;Group&gt;"><polygon id="_Path_5" data-name="&lt;Path&gt;" class="cls-6" points="264.44 185.44 256.56 207.1 272.5 207.1 264.44 185.44"/><g id="_Group_2" data-name="&lt;Group&gt;"><path id="_Compound_Path_" data-name="&lt;Compound Path&gt;" class="cls-6" d="M318.94,383.25a6.54,6.54,0,0,0,6.54-6.54V156a6.54,6.54,0,0,0-6.54-6.54H161.63a6.54,6.54,0,0,0-6.54,6.54V339.32h29.54A14.42,14.42,0,0,1,199,353.71v29.54Zm-83.86-156L256,173.48a6.53,6.53,0,0,1,6.1-4.16h5a6.54,6.54,0,0,1,6.07,4.11l21.56,53.8a3.93,3.93,0,0,1-3.64,5.39h-4.29a6.55,6.55,0,0,1-6.1-4.19l-3.85-10H252.4l-3.59,9.89a6.55,6.55,0,0,1-6.15,4.32h-3.92A4,4,0,0,1,235.08,227.25Zm-44.56,22h99.54a6.54,6.54,0,1,1,0,13.08H190.52a6.54,6.54,0,1,1,0-13.08Zm0,29.33h99.54a6.54,6.54,0,1,1,0,13.08H190.52a6.54,6.54,0,1,1,0-13.08Zm0,42.41a6.54,6.54,0,1,1,0-13.08h99.54a6.54,6.54,0,1,1,0,13.08Z"/><path id="_Path_6" data-name="&lt;Path&gt;" class="cls-6" d="M155.09,347.17l36.08,36.08V353.71a6.54,6.54,0,0,0-6.54-6.54Z"/></g></g></g></svg>