<?xml version="1.0" encoding="utf-8"?>
<!-- Generator: Adobe Illustrator 17.1.0, SVG Export Plug-In . SVG Version: 6.00 Build 0)  -->
<!DOCTYPE svg PUBLIC "-//W3C//DTD SVG 1.1//EN" "http://www.w3.org/Graphics/SVG/1.1/DTD/svg11.dtd">
<svg version="1.1" id="Layer_1" xmlns="http://www.w3.org/2000/svg" xmlns:xlink="http://www.w3.org/1999/xlink" x="0px" y="0px"
	 viewBox="0 0 24.2 18.2" enable-background="new 0 0 24.2 18.2" xml:space="preserve">
<path fill="#FFFFFF" d="M23.8,13.8h-2.9v-1.3c0-0.2-0.2-0.4-0.4-0.4h-3v-0.8h2.9c0.2,0,0.4-0.2,0.4-0.4V7.3c0-0.2-0.2-0.4-0.4-0.4
	h-2.9V5.6c0-0.2-0.2-0.4-0.4-0.4h-4.5V4.4h2.9c0.2,0,0.4-0.2,0.4-0.4V0.4c0-0.2-0.2-0.4-0.4-0.4H8.7C8.5,0,8.3,0.2,8.3,0.4V4
	c0,0.2,0.2,0.4,0.4,0.4h2.9v0.8H7.2c-0.2,0-0.4,0.2-0.4,0.4v1.3H3.8c-0.2,0-0.4,0.2-0.4,0.4v3.6c0,0.2,0.2,0.4,0.4,0.4h2.9v0.8h-3
	c-0.2,0-0.4,0.2-0.4,0.4v1.3H0.4C0.2,13.8,0,14,0,14.2v3.6c0,0.2,0.2,0.4,0.4,0.4h6.7c0.2,0,0.4-0.2,0.4-0.4v-3.6
	c0-0.2-0.2-0.4-0.4-0.4H4.2V13h3h4.5v0.8H8.7c-0.2,0-0.4,0.2-0.4,0.4v3.6c0,0.2,0.2,0.4,0.4,0.4h6.7c0.2,0,0.4-0.2,0.4-0.4v-3.6
	c0-0.2-0.2-0.4-0.4-0.4h-2.9V13H17h3v0.8h-2.9c-0.2,0-0.4,0.2-0.4,0.4v3.6c0,0.2,0.2,0.4,0.4,0.4h6.7c0.2,0,0.4-0.2,0.4-0.4v-3.6
	C24.2,14,24,13.8,23.8,13.8z M6.7,14.7v2.7H0.8v-2.7H6.7z M9.2,3.6V0.8H15v2.7H9.2z M4.2,10.5V7.7h5.9v2.7H4.2z M15,14.7v2.7H9.2
	v-2.7H15z M16.6,12.1h-9v-0.8h2.9c0.2,0,0.4-0.2,0.4-0.4V7.3c0-0.2-0.2-0.4-0.4-0.4H7.6V6h4.5h4.5v0.9h-2.9c-0.2,0-0.4,0.2-0.4,0.4
	v3.6c0,0.2,0.2,0.4,0.4,0.4h2.9V12.1z M14.1,10.5V7.7h5.9v2.7H14.1z M23.3,17.4h-5.9v-2.7h5.9V17.4z"/>
</svg>
