<?xml version="1.0" encoding="utf-8"?>
<!-- Generator: Adobe Illustrator 17.1.0, SVG Export Plug-In . SVG Version: 6.00 Build 0)  -->
<!DOCTYPE svg PUBLIC "-//W3C//DTD SVG 1.1//EN" "http://www.w3.org/Graphics/SVG/1.1/DTD/svg11.dtd">
<svg version="1.1" id="Layer_1" xmlns="http://www.w3.org/2000/svg" xmlns:xlink="http://www.w3.org/1999/xlink" x="0px" y="0px"
	 viewBox="0 0 24.8 24.8" enable-background="new 0 0 24.8 24.8" xml:space="preserve">
<path fill="none" stroke="#FFFFFF" stroke-width="0.5" stroke-miterlimit="10" d="M8.2,11.4c-0.6,0-1,0.5-1,1c0,0.6,0.5,1,1,1
	s1-0.5,1-1S8.8,11.4,8.2,11.4L8.2,11.4z M8.2,13.1c-0.4,0-0.7-0.3-0.7-0.7s0.3-0.7,0.7-0.7c0.4,0,0.7,0.3,0.7,0.7v0
	C8.9,12.8,8.6,13.1,8.2,13.1z"/>
<path fill="none" stroke="#FFFFFF" stroke-width="0.5" stroke-miterlimit="10" d="M16.6,11.4c-0.6,0-1,0.5-1,1s0.5,1,1,1
	c0.6,0,1-0.5,1-1l0,0C17.6,11.8,17.1,11.4,16.6,11.4z M16.6,13.1c-0.4,0-0.7-0.3-0.7-0.7c0-0.4,0.3-0.7,0.7-0.7
	c0.4,0,0.7,0.3,0.7,0.7v0C17.2,12.8,16.9,13.1,16.6,13.1z"/>
<path fill="none" stroke="#FFFFFF" stroke-width="0.5" stroke-miterlimit="10" d="M12.4,11.4c-0.6,0-1,0.5-1,1c0,0.6,0.5,1,1,1
	s1-0.5,1-1S13,11.4,12.4,11.4L12.4,11.4z M12.4,13.1c-0.4,0-0.7-0.3-0.7-0.7s0.3-0.7,0.7-0.7s0.7,0.3,0.7,0.7v0
	C13.1,12.8,12.8,13.1,12.4,13.1z"/>
<circle fill="none" stroke="#FFFFFF" stroke-miterlimit="10" cx="12.4" cy="12.4" r="11.9"/>
</svg>
