<?xml version="1.0" encoding="utf-8"?>
<!-- Generator: Adobe Illustrator 17.1.0, SVG Export Plug-In . SVG Version: 6.00 Build 0)  -->
<!DOCTYPE svg PUBLIC "-//W3C//DTD SVG 1.1//EN" "http://www.w3.org/Graphics/SVG/1.1/DTD/svg11.dtd">
<svg version="1.1" id="Layer_1" xmlns="http://www.w3.org/2000/svg" xmlns:xlink="http://www.w3.org/1999/xlink" x="0px" y="0px"
	 viewBox="0 0 17.9 20.4" enable-background="new 0 0 17.9 20.4" xml:space="preserve">
<circle fill="none" stroke="#FEFFFF" stroke-width="0.5" stroke-miterlimit="10" cx="3.4" cy="17" r="3.1"/>
<circle fill="none" stroke="#FEFFFF" stroke-width="0.5" stroke-miterlimit="10" cx="3.4" cy="17" r="1.2"/>
<path fill="none" stroke="#FEFFFF" stroke-width="0.5" stroke-miterlimit="10" d="M6.5,16.4c0,0.2,0.1,0.4,0.1,0.6
	c0,0.2,0,0.4-0.1,0.6l11.2,0v-1.2H6.5z"/>
<path fill="none" stroke="#FEFFFF" stroke-width="0.5" stroke-miterlimit="10" d="M2.8,4v10c0.2,0,0.4-0.1,0.6-0.1s0.4,0,0.6,0.1V4
	c0-2-1.7-3.7-3.7-3.7v1.2C1.7,1.5,2.8,2.6,2.8,4z"/>
<rect x="4.1" y="4" fill="none" stroke="#FEFFFF" stroke-width="0.5" stroke-miterlimit="10" width="4.9" height="4.9"/>
<rect x="9" y="5.2" fill="none" stroke="#FEFFFF" stroke-width="0.5" stroke-miterlimit="10" width="3.7" height="3.7"/>
<path fill="none" stroke="#FEFFFF" stroke-width="0.5" stroke-miterlimit="10" d="M4.1,9v5c1.2,0.2,2.2,1.2,2.4,2.4h8.7V9H4.1z"/>
</svg>
