<svg xmlns="http://www.w3.org/2000/svg" xmlns:xlink="http://www.w3.org/1999/xlink" viewBox="0 0 551.59 533.09"><defs><style>.cls-1{fill:none;}.cls-2{fill:#698714;}.cls-3{clip-path:url(#clip-path);}.cls-4{opacity:0.4;}.cls-5{fill:#fff;}</style><clipPath id="clip-path"><circle id="_Clipping_Path_" data-name="&lt;Clipping Path&gt;" class="cls-1" cx="256" cy="256" r="256"/></clipPath></defs><title>Origin_highlight</title><g id="Layer_4" data-name="Layer 4"><circle id="_Path_" data-name="&lt;Path&gt;" class="cls-2" cx="256" cy="256" r="256"/><g id="_Clip_Group_" data-name="&lt;Clip Group&gt;"><g class="cls-3"><polygon id="_Path_2" data-name="&lt;Path&gt;" class="cls-4" points="254.59 391.08 349.59 533.09 499.59 472.09 551.59 406.09 317.59 133.1 181.09 148.1 254.59 391.08"/></g></g><path id="_Path_3" data-name="&lt;Path&gt;" class="cls-5" d="M165,168"/><g id="_Group_" data-name="&lt;Group&gt;"><path id="_Compound_Path_" data-name="&lt;Compound Path&gt;" class="cls-5" d="M289.24,123H222.76A49.87,49.87,0,0,0,172.9,172.9v66.48a49.86,49.86,0,0,0,49.86,49.86L256,389l33.24-99.72a49.85,49.85,0,0,0,49.86-49.86V172.9A49.86,49.86,0,0,0,289.24,123Zm16.62,116.34A16.63,16.63,0,0,1,289.24,256H222.76a16.64,16.64,0,0,1-16.62-16.62V172.9a16.65,16.65,0,0,1,16.62-16.62h66.48a16.64,16.64,0,0,1,16.62,16.62Z"/></g></g></svg>