<?xml version="1.0" encoding="utf-8"?>
<!-- Generator: Adobe Illustrator 17.1.0, SVG Export Plug-In . SVG Version: 6.00 Build 0)  -->
<!DOCTYPE svg PUBLIC "-//W3C//DTD SVG 1.1//EN" "http://www.w3.org/Graphics/SVG/1.1/DTD/svg11.dtd">
<svg version="1.1" id="Layer_1" xmlns="http://www.w3.org/2000/svg" xmlns:xlink="http://www.w3.org/1999/xlink" x="0px" y="0px"
	 viewBox="0 0 22.5 22" enable-background="new 0 0 22.5 22" xml:space="preserve">
<g transform="translate(0,-952.36218)">
	<path fill="#727E93" d="M11.3,952.4c-1.1,0-2,0.9-2,2s0.9,2,2,2s2-0.9,2-2S12.4,952.4,11.3,952.4z M11.3,953.4c0.6,0,1,0.5,1,1
		s-0.5,1-1,1s-1-0.5-1-1S10.7,953.4,11.3,953.4z M11.3,957.2c-1.1,0-2.2,0.2-3,0.6s-1.4,1.1-1.4,2v2.1c0,0.3,0.2,0.5,0.5,0.5h7.7
		c0.3,0,0.5-0.2,0.5-0.5v-2.1c0-0.9-0.6-1.5-1.4-2C13.4,957.4,12.4,957.2,11.3,957.2z M11.3,958.2c1,0,1.9,0.2,2.5,0.5
		c0.6,0.3,0.8,0.6,0.8,1v1.5H7.9v-1.5c0-0.4,0.2-0.7,0.8-1C9.4,958.4,10.2,958.2,11.3,958.2z M11.2,963.9c-0.3,0-0.5,0.3-0.5,0.5
		v2.3L8.4,968c-0.3,0.1-0.4,0.5-0.2,0.7c0.1,0.2,0.5,0.3,0.7,0.1l2.3-1.4l2.3,1.4c0.2,0.2,0.6,0.1,0.7-0.1c0.1-0.2,0-0.6-0.2-0.7
		l-2.3-1.4v-2.3C11.8,964.1,11.5,963.8,11.2,963.9z M4.3,964.4c-1.1,0-2,0.9-2,2s0.9,2,2,2s2-0.9,2-2S5.5,964.4,4.3,964.4z
		 M18.2,964.4c-1.1,0-2,0.9-2,2s0.9,2,2,2s2-0.9,2-2S19.3,964.4,18.2,964.4z M4.3,965.4c0.6,0,1,0.5,1,1s-0.5,1-1,1s-1-0.5-1-1
		S3.8,965.4,4.3,965.4z M18.2,965.4c0.6,0,1,0.5,1,1s-0.5,1-1,1s-1-0.5-1-1S17.6,965.4,18.2,965.4z M4.3,969.3c-1.1,0-2.2,0.2-3,0.6
		c-0.8,0.4-1.4,1.1-1.4,2v2.1c0,0.3,0.2,0.5,0.5,0.5h7.7c0.3,0,0.5-0.2,0.5-0.5v-2.1c0-0.9-0.6-1.5-1.4-2S5.5,969.3,4.3,969.3z
		 M18.2,969.3c-1.1,0-2.2,0.2-3,0.6c-0.8,0.4-1.4,1.1-1.4,2v2.1c0,0.3,0.2,0.5,0.5,0.5H22c0.3,0,0.5-0.2,0.5-0.5v-2.1
		c0-0.9-0.6-1.5-1.4-2C20.3,969.4,19.3,969.3,18.2,969.3z M4.3,970.3c1,0,1.9,0.2,2.5,0.5c0.6,0.3,0.8,0.6,0.8,1v1.5H1v-1.5
		c0-0.4,0.2-0.7,0.8-1C2.4,970.5,3.3,970.3,4.3,970.3z M18.2,970.3c1,0,1.9,0.2,2.5,0.5c0.6,0.3,0.8,0.6,0.8,1v1.5h-6.7v-1.5
		c0-0.4,0.2-0.7,0.8-1C16.3,970.5,17.2,970.3,18.2,970.3z"/>
</g>
</svg>
