<svg xmlns="http://www.w3.org/2000/svg" xmlns:xlink="http://www.w3.org/1999/xlink" viewBox="0 0 584.4 576.51"><defs><style>.cls-1{fill:none;}.cls-2{fill:#698714;}.cls-3{fill:#aaa;}.cls-4{clip-path:url(#clip-path);}.cls-5{opacity:0.4;}.cls-6{fill:#fff;}</style><clipPath id="clip-path" transform="translate(0.43)"><circle id="_Clipping_Path_" data-name="&lt;Clipping Path&gt;" class="cls-1" cx="256" cy="256" r="256"/></clipPath></defs><title>Party Master_default</title><g id="Layer_4" data-name="Layer 4"><circle id="_Path_" data-name="&lt;Path&gt;" class="cls-2" cx="256.43" cy="256" r="256"/><circle id="_Path_2" data-name="&lt;Path&gt;" class="cls-3" cx="256" cy="256" r="256"/><g id="_Clip_Group_" data-name="&lt;Clip Group&gt;"><g class="cls-4"><polygon id="_Path_3" data-name="&lt;Path&gt;" class="cls-5" points="138.43 223 150.43 363 382.4 576.51 532.4 515.51 584.4 449.51 325.51 148.1 188.43 151 138.43 223"/></g></g><path id="_Path_4" data-name="&lt;Path&gt;" class="cls-6" d="M165,168" transform="translate(0.43)"/></g><g id="Layer_3" data-name="Layer 3"><path class="cls-6" d="M376.89,220.79a12.48,12.48,0,0,0-9.22-4.07H145.47a12.47,12.47,0,0,0-12.42,13.63L144.91,357.7A12.47,12.47,0,0,0,157.33,369H355.82a12.47,12.47,0,0,0,12.42-11.32l11.86-127.35A12.47,12.47,0,0,0,376.89,220.79Zm-78.72,122.1H215a12.47,12.47,0,0,1-12.47-12.47,30.75,30.75,0,0,1,30.72-30.72h9a29.84,29.84,0,1,1,28.76,0h9a30.76,30.76,0,0,1,30.7,29.69c0,.34,0,.68,0,1A12.47,12.47,0,0,1,298.17,342.89Zm58-149.39a9.35,9.35,0,0,1-9.35,9.35H166.35a9.35,9.35,0,1,1,0-18.71H346.79A9.35,9.35,0,0,1,356.15,193.5ZM331.45,159a9.35,9.35,0,0,1-9.35,9.35H191a9.35,9.35,0,0,1,0-18.71h131A9.35,9.35,0,0,1,331.45,159Z" transform="translate(0.43)"/></g></svg>