<svg id="Layer_1" data-name="Layer 1" xmlns="http://www.w3.org/2000/svg" xmlns:xlink="http://www.w3.org/1999/xlink" viewBox="0 0 541 512"><defs><style>.cls-1{fill:none;}.cls-2{fill:#698714;}.cls-3{opacity:0.3;}.cls-4{clip-path:url(#clip-path);}.cls-5{fill:#fff;}</style><clipPath id="clip-path" transform="translate(0)"><circle id="_Clipping_Path_" data-name="&lt;Clipping Path&gt;" class="cls-1" cx="256" cy="256" r="256"/></clipPath></defs><title>Payment Term_highlight</title><circle id="_Path_" data-name="&lt;Path&gt;" class="cls-2" cx="256" cy="256" r="256"/><g id="_Clip_Group_" data-name="&lt;Clip Group&gt;" class="cls-3"><g class="cls-4"><polygon id="_Path_2" data-name="&lt;Path&gt;" points="117.46 390.47 339 512 489 451 541 385 399.45 120.49 118.96 133.99 117.46 390.47"/></g></g><g id="_Group_" data-name="&lt;Group&gt;"><g id="_Group_2" data-name="&lt;Group&gt;"><path id="_Compound_Path_" data-name="&lt;Compound Path&gt;" class="cls-5" d="M380.64,111.58H370.21a8.88,8.88,0,1,0-17.32-2.68,8.32,8.32,0,0,0,.55,2.68H319.26a8.88,8.88,0,1,0-17.33-2.68,8.33,8.33,0,0,0,.56,2.68H268.31A8.88,8.88,0,1,0,251,108.9a8.57,8.57,0,0,0,.54,2.68H217.35A8.87,8.87,0,1,0,200,108.9a8.57,8.57,0,0,0,.54,2.68H166.4a8.63,8.63,0,0,0,.55-2.68,8.93,8.93,0,0,0-17.86,0,8.57,8.57,0,0,0,.54,2.68H139.19a25.55,25.55,0,0,0-25.54,25.54V378.56a25.55,25.55,0,0,0,25.54,25.54H351.8l54.37-54.37V137.12A25.55,25.55,0,0,0,380.64,111.58Zm-50.93,27.93,3.39,11.15c.38,1.36.85,3,1.12,4.23h.15c.32-1.21.69-2.93,1-4.23l2.79-11.15h7.57l-5.29,15c-3.25,9-5.44,12.64-8,14.92a13.06,13.06,0,0,1-6.83,3.11l-1.49-6a9.29,9.29,0,0,0,3.06-1.21,8.17,8.17,0,0,0,2.91-2.84,1.85,1.85,0,0,0,.38-1,2.76,2.76,0,0,0-.33-1.17l-8.32-20.77Zm-19,0,.22,4.19h.2a6.69,6.69,0,0,1,6.13-4.7,7.27,7.27,0,0,1,1.49.09v6.65a10,10,0,0,0-1.9-.2c-2.59,0-4.37,1.39-4.84,3.58a8.35,8.35,0,0,0-.14,1.59v11.52h-7.07V147c0-3.35-.09-5.53-.19-7.49Zm-23.88,4.33a12.78,12.78,0,0,0-6.28,1.72L279.21,141a18.81,18.81,0,0,1,8.82-2c7.58,0,10,4.46,10,9.82v7.89a36.4,36.4,0,0,0,.33,5.53H292l-.42-2.27h-.14a8.22,8.22,0,0,1-6.51,2.79,7,7,0,0,1-7.35-7c0-5.91,5.31-8.74,13.35-8.69v-.33C291,145.55,290.29,143.84,286.81,143.84Zm-36-4.33h7.11v12.22c0,3.3,1.07,5.29,3.54,5.29a3.73,3.73,0,0,0,3.74-4V139.51h7.13v15.43c0,3,.09,5.39.19,7.29h-6.13L266,159h-.14a8.17,8.17,0,0,1-7.12,3.71c-4.61,0-8-2.89-8-9.9V139.51Zm-22.33,0,.33,3.12h.14a8.35,8.35,0,0,1,7-3.63c4.64,0,8.13,3.06,8.13,9.76v13.47H237V149.66c0-2.93-1-4.93-3.58-4.93a3.77,3.77,0,0,0-3.58,2.65,4.68,4.68,0,0,0-.29,1.76v13.1h-7.06V146.77c0-2.84-.09-5.25-.2-7.25Zm-23.91,4.33a12.78,12.78,0,0,0-6.28,1.72L197,141a18.74,18.74,0,0,1,8.82-2c7.57,0,10,4.46,10,9.82v7.89a36.4,36.4,0,0,0,.33,5.53h-6.37l-.42-2.27h-.14a8.23,8.23,0,0,1-6.51,2.79,7,7,0,0,1-7.35-7c0-5.91,5.29-8.74,13.34-8.69v-.33C208.66,145.55,208,143.84,204.53,143.84ZM174.7,156.29a11.64,11.64,0,0,0,3.63.57c3,0,4.84-1.35,4.84-6.23V130.92h7.07v19.81c0,8.92-4.27,12-11.15,12a18.43,18.43,0,0,1-5.15-.74ZM392.25,344l-2.89,2.89H367.49a18.6,18.6,0,0,0-18.57,18.57v21.87L346,390.17H139.19a11.62,11.62,0,0,1-11.61-11.61v-195H392.25Z" transform="translate(0)"/><path id="_Path_3" data-name="&lt;Path&gt;" class="cls-5" d="M202.3,155.09a2.54,2.54,0,0,0,2.79,2.69,3.87,3.87,0,0,0,3.68-2.59,4.75,4.75,0,0,0,.14-1.22V151.5C205.17,151.47,202.3,152.35,202.3,155.09Z" transform="translate(0)"/><path id="_Path_4" data-name="&lt;Path&gt;" class="cls-5" d="M284.58,155.09a2.54,2.54,0,0,0,2.8,2.69,3.87,3.87,0,0,0,3.67-2.59,5.19,5.19,0,0,0,.16-1.22V151.5C287.47,151.47,284.58,152.35,284.58,155.09Z" transform="translate(0)"/><g id="_Group_3" data-name="&lt;Group&gt;"><path id="_Path_5" data-name="&lt;Path&gt;" class="cls-5" d="M240,234.89h39.89l10.34-20.66c1.63-3.28,0-6-3.68-6H233.31c-3.66,0-5.3,2.67-3.68,6Z" transform="translate(0)"/><path id="_Path_6" data-name="&lt;Path&gt;" class="cls-5" d="M249.22,288.12q0,5.15,7,8.61V280.87Q249.22,282.12,249.22,288.12Z" transform="translate(0)"/><path id="_Path_7" data-name="&lt;Path&gt;" class="cls-5" d="M263.47,313.61v15.14c4.77-.72,7.15-3.12,7.15-7.15Q270.61,316.72,263.47,313.61Z" transform="translate(0)"/><path id="_Compound_Path_2" data-name="&lt;Compound Path&gt;" class="cls-5" d="M299.71,248.2H220.12a66.51,66.51,0,1,0,79.58,0Zm-21.09,86.07c-3.54,3.37-8.59,5.44-15.15,6.17v10.85h-7.3V340.73a40.72,40.72,0,0,1-18.89-4.6V322.3a29.82,29.82,0,0,0,8.65,4.36,39.3,39.3,0,0,0,10.25,2.3V310.76q-11.69-4.36-16-9.43A18.53,18.53,0,0,1,235.95,289a18.13,18.13,0,0,1,5.53-13.35c3.7-3.67,8.6-5.83,14.7-6.43v-9.3h7.3V269c7,.32,12.27,1.46,15.73,3.38v13.49a37.82,37.82,0,0,0-15.73-5.2V299.6q10.93,3.94,15.68,9a17.27,17.27,0,0,1,4.75,12.27Q283.9,329.2,278.62,334.27Z" transform="translate(0)"/></g></g></g></svg>