<?xml version="1.0" encoding="utf-8"?>
<!-- Generator: Adobe Illustrator 17.1.0, SVG Export Plug-In . SVG Version: 6.00 Build 0)  -->
<!DOCTYPE svg PUBLIC "-//W3C//DTD SVG 1.1//EN" "http://www.w3.org/Graphics/SVG/1.1/DTD/svg11.dtd">
<svg version="1.1" id="Layer_1" xmlns="http://www.w3.org/2000/svg" xmlns:xlink="http://www.w3.org/1999/xlink" x="0px" y="0px"
	 viewBox="0 0 22.3 13.5" enable-background="new 0 0 22.3 13.5" xml:space="preserve">
<path fill="#727F94" d="M14.1,4.9l-3.8-3.8H3.2V0H0v9h3.2V7.9H5l0.7-0.6v6.3h16.5V4.9H14.1z M2.6,8.3h-2V0.6h2V8.3z M4.8,7.3H3.2
	V1.8h6.9l3.1,3.1H6.9l2.4,2.9c0,0.1,0.3,0.3,0,0.7C9.3,8.6,9.1,8.7,9,8.7c-0.2,0-0.5-0.2-0.6-0.2L6,6.3L4.8,7.3z M8,8.9L8,8.9
	C8,8.9,8.5,9.3,9,9.3c0,0,0.1,0,0.1,0c0.3,0,0.6-0.2,0.8-0.4c0.5-0.6,0.2-1.2,0-1.5L9.6,7.1l8.9,0c0.1,0.9,0.9,1.7,1.8,1.8v0.9
	c-0.9,0.1-1.7,0.9-1.8,1.8H9.8C9.6,10.7,8.9,10,8,9.8L8,8.9L8,8.9z M21.7,12.9H6.4V7.5l0.9,0.8v2.1h0.3c0.8,0,1.5,0.7,1.5,1.5v0.3
	h9.9V12c0-0.8,0.7-1.5,1.5-1.5h0.3V8.3h-0.3c-0.8,0-1.5-0.7-1.5-1.5V6.4H9L8.3,5.6h13.3L21.7,12.9L21.7,12.9z"/>
</svg>
