<svg xmlns="http://www.w3.org/2000/svg" xmlns:xlink="http://www.w3.org/1999/xlink" viewBox="0 0 541 512"><defs><style>.cls-1{fill:none;}.cls-2{fill:#698714;}.cls-3{clip-path:url(#clip-path);}.cls-4{opacity:0.4;}.cls-5{fill:#fff;}</style><clipPath id="clip-path"><circle id="_Clipping_Path_" data-name="&lt;Clipping Path&gt;" class="cls-1" cx="256" cy="256" r="256"/></clipPath></defs><title>Product Master_highlight</title><g id="Layer_2" data-name="Layer 2"><circle id="_Path_" data-name="&lt;Path&gt;" class="cls-2" cx="256" cy="256" r="256"/><g id="_Clip_Group_" data-name="&lt;Clip Group&gt;"><g class="cls-3"><polygon id="_Path_2" data-name="&lt;Path&gt;" class="cls-4" points="176 380 339 512 489 451 541 385 340 153 188 157 176 380"/></g></g></g><g id="Layer_4" data-name="Layer 4"><path id="_Path_3" data-name="&lt;Path&gt;" class="cls-5" d="M165,168"/><path id="_Compound_Path_" data-name="&lt;Compound Path&gt;" class="cls-5" d="M344,155l-22-41-154-1-11,33,31,10L176,379l21,26,161-5ZM263.35,275c-9.71,13.68-26.41,18.54-37.41,10.93l-.33-1.49c-2-28.37,33.45-14.07,36.46-47.69C272.23,244.82,272.76,261.7,263.35,275Zm-46.16-31c9.71-13.67,26.41-18.53,37.4-10.93l.24,1.59c-1.55,28.45-36.92,16.44-36.35,47.59C208.3,274.29,207.77,257.41,217.19,244.07Zm2.29,109.25c-10.17-8-10.71-24.91-1.29-38.25,9.71-13.67,26.41-18.53,37.4-10.93l.24,1.59C254.28,334.18,218.91,322.17,219.48,353.32ZM264.35,346c-9.71,13.68-26.41,18.54-37.41,10.93l-.33-1.49c-2-28.37,33.45-14.07,36.46-47.69C273.23,315.82,273.76,332.7,264.35,346Zm20.13-44.73c-10.17-8-10.71-24.91-1.29-38.25,9.71-13.67,26.41-18.53,37.4-10.93l.24,1.59C319.28,282.18,283.91,270.17,284.48,301.32ZM329.35,294c-9.71,13.68-26.41,18.54-37.41,10.93l-.33-1.49c-2-28.37,33.45-14.07,36.46-47.69C338.23,263.82,338.76,280.7,329.35,294Z"/></g></svg>