<?xml version="1.0" encoding="utf-8"?>
<!-- Generator: Adobe Illustrator 17.1.0, SVG Export Plug-In . SVG Version: 6.00 Build 0)  -->
<!DOCTYPE svg PUBLIC "-//W3C//DTD SVG 1.1//EN" "http://www.w3.org/Graphics/SVG/1.1/DTD/svg11.dtd">
<svg version="1.1" id="Layer_1" xmlns="http://www.w3.org/2000/svg" xmlns:xlink="http://www.w3.org/1999/xlink" x="0px" y="0px"
	 viewBox="0 0 23.8 24.8" enable-background="new 0 0 23.8 24.8" xml:space="preserve">
<path fill="#FFFFFF" d="M0.2,24.8h23.3c0.2,0,0.3-0.1,0.3-0.3v-18c0-0.1,0-0.1-0.1-0.2l-5-6.4C18.7,0,18.6,0,18.5,0H5.3
	C5.2,0,5.1,0,5.1,0.1L0,6.5C0,6.5,0,6.6,0,6.6v18C0,24.7,0.1,24.8,0.2,24.8z M0.5,24.3V6.9h22.8v17.5H0.5z M23,6.4H12.2V0.5h6.2
	L23,6.4z M5.4,0.5h6.2v5.9H0.8L5.4,0.5z M19.8,12.4c0,0.2-0.1,0.3-0.3,0.3H4.3c-0.2,0-0.3-0.1-0.3-0.3s0.1-0.3,0.3-0.3h15.3
	C19.7,12.1,19.8,12.2,19.8,12.4z M16.9,15.9c0,0.2-0.1,0.3-0.3,0.3H7.2c-0.2,0-0.3-0.1-0.3-0.3c0-0.2,0.1-0.3,0.3-0.3h9.5
	C16.8,15.7,16.9,15.8,16.9,15.9z M16.9,19.4c0,0.2-0.1,0.3-0.3,0.3H7.2c-0.2,0-0.3-0.1-0.3-0.3c0-0.2,0.1-0.3,0.3-0.3h9.5
	C16.8,19.1,16.9,19.3,16.9,19.4z"/>
</svg>
