<?xml version="1.0" encoding="utf-8"?>
<!-- Generator: Adobe Illustrator 17.1.0, SVG Export Plug-In . SVG Version: 6.00 Build 0)  -->
<!DOCTYPE svg PUBLIC "-//W3C//DTD SVG 1.1//EN" "http://www.w3.org/Graphics/SVG/1.1/DTD/svg11.dtd">
<svg version="1.1" id="Layer_1" xmlns="http://www.w3.org/2000/svg" xmlns:xlink="http://www.w3.org/1999/xlink" x="0px" y="0px"
	 viewBox="0 0 14.5 13" enable-background="new 0 0 14.5 13" xml:space="preserve">
<g>
	<path fill="none" d="M14,0.5H0.5v12H14V0.5z M6.1,11.5H1.5V9.7h4.6V11.5z M6.1,9H1.5V4.6h4.6V9z M13,11.5H6.9V9.7H13V11.5z M13,9
		H6.9V7.2H13V9z M13,6.4H6.9V4.6H13V6.4z M13,3.8H1.5V1.5H13V3.8z"/>
	<rect x="7.4" y="7.7" fill="none" width="5.1" height="0.8"/>
	<rect x="2" y="2" fill="none" width="10.5" height="1.3"/>
	<rect x="2" y="10.2" fill="none" width="3.6" height="0.8"/>
	<rect x="7.4" y="5.1" fill="none" width="5.1" height="0.8"/>
	<rect x="2" y="5.1" fill="none" width="3.6" height="3.3"/>
	<rect x="7.4" y="10.2" fill="none" width="5.1" height="0.8"/>
	<path fill="#FDFDFE" d="M0,13.1h14.6V0H0V13.1z M0.5,0.5H14v12H0.5V0.5z"/>
	<path fill="#FFFFFF" d="M1.5,3.8H13V1.5H1.5V3.8z M2,2h10.5v1.3H2V2z"/>
	<path fill="#FFFFFF" d="M1.5,9h4.6V4.6H1.5V9z M2,5.1h3.6v3.3H2V5.1z"/>
	<path fill="#FFFFFF" d="M1.5,11.5h4.6V9.7H1.5V11.5z M2,10.2h3.6V11H2V10.2z"/>
	<path fill="#FFFFFF" d="M6.9,6.4H13V4.6H6.9V6.4z M7.4,5.1h5.1v0.8H7.4V5.1z"/>
	<path fill="#FFFFFF" d="M6.9,9H13V7.2H6.9V9z M7.4,7.7h5.1v0.8H7.4V7.7z"/>
	<path fill="#FFFFFF" d="M6.9,11.5H13V9.7H6.9V11.5z M7.4,10.2h5.1V11H7.4V10.2z"/>
</g>
</svg>
