<?xml version="1.0" encoding="utf-8"?>
<!-- Generator: Adobe Illustrator 17.1.0, SVG Export Plug-In . SVG Version: 6.00 Build 0)  -->
<!DOCTYPE svg PUBLIC "-//W3C//DTD SVG 1.1//EN" "http://www.w3.org/Graphics/SVG/1.1/DTD/svg11.dtd">
<svg version="1.1" id="Layer_1" xmlns="http://www.w3.org/2000/svg" xmlns:xlink="http://www.w3.org/1999/xlink" x="0px" y="0px"
	 viewBox="0 0 21.1 15.6" enable-background="new 0 0 21.1 15.6" xml:space="preserve">
<g>
	<path fill="#727E93" d="M20.2,0H0.9C0.4,0,0,0.4,0,0.9v13.9c0,0.5,0.4,0.9,0.9,0.9h19.4c0.5,0,0.9-0.4,0.9-0.9V0.9
		C21.1,0.4,20.7,0,20.2,0z M0.9,0.8h19.4c0.1,0,0.1,0.1,0.1,0.1v1.6H0.7V0.9C0.7,0.8,0.8,0.8,0.9,0.8z M20.2,15H0.9
		c-0.1,0-0.1-0.1-0.1-0.1V3.3h19.6v11.5C20.3,14.9,20.3,15,20.2,15z"/>
	<circle fill="#727E93" cx="1.9" cy="1.7" r="0.4"/>
	<circle fill="#727E93" cx="3.2" cy="1.7" r="0.4"/>
	<circle fill="#727E93" cx="4.6" cy="1.7" r="0.4"/>
	<path fill="#727E93" d="M12.9,7.9v-2c0-0.7-0.5-1.2-1.2-1.2H9.3c-0.7,0-1.2,0.5-1.2,1.2v2C7.4,8.1,6.9,8.7,6.9,9.5v2.4
		c0,0.9,0.7,1.7,1.7,1.7h4c0.9,0,1.7-0.7,1.7-1.7V9.5C14.2,8.7,13.7,8.1,12.9,7.9z M9.3,5.5h2.4c0.2,0,0.4,0.2,0.4,0.4v1.9H8.9V5.9
		C8.9,5.7,9.1,5.5,9.3,5.5z M13.4,11.9c0,0.5-0.4,0.9-0.9,0.9h-4c-0.5,0-0.9-0.4-0.9-0.9V9.5c0-0.5,0.4-0.9,0.9-0.9h4
		c0.5,0,0.9,0.4,0.9,0.9L13.4,11.9L13.4,11.9z"/>
	<path fill="#727E93" d="M10.6,9.6C10.6,9.6,10.6,9.6,10.6,9.6c-0.2,0-0.3,0-0.4,0.1c-0.3,0.2-0.4,0.6-0.3,0.9l0.2,0.5
		c0,0.1,0,0.1,0,0.2l0,0.2c0,0.3,0.2,0.5,0.4,0.5c0.3,0,0.5-0.2,0.4-0.5l0-0.2c0-0.1,0-0.2,0-0.2l0.2-0.5
		C11.4,10.2,11.1,9.6,10.6,9.6z"/>
</g>
</svg>
