<svg id="Layer_2" data-name="Layer 2" xmlns="http://www.w3.org/2000/svg" xmlns:xlink="http://www.w3.org/1999/xlink" viewBox="0 0 541 512"><defs><style>.cls-1{fill:none;}.cls-2{fill:#698714;}.cls-3{fill:#aaa;}.cls-4{clip-path:url(#clip-path);}.cls-5{opacity:0.4;}.cls-6{fill:#fff;}</style><clipPath id="clip-path"><circle id="_Clipping_Path_" data-name="&lt;Clipping Path&gt;" class="cls-1" cx="256" cy="256" r="256"/></clipPath></defs><title>Tax Rate_Default</title><g id="_Group_" data-name="&lt;Group&gt;"><circle id="_Path_" data-name="&lt;Path&gt;" class="cls-2" cx="256" cy="256" r="256"/><circle id="_Path_2" data-name="&lt;Path&gt;" class="cls-3" cx="256.14" cy="256" r="256"/><g id="_Clip_Group_" data-name="&lt;Clip Group&gt;"><g class="cls-4"><polygon id="_Path_3" data-name="&lt;Path&gt;" class="cls-5" points="142.28 400.4 339 512 489 451 541 385 336.25 114.87 142 148 142.28 400.4"/></g></g><g id="_Group_2" data-name="&lt;Group&gt;"><path id="_Compound_Path_" data-name="&lt;Compound Path&gt;" class="cls-6" d="M256.14,329.46a77.75,77.75,0,1,0,77.75-77.75A77.75,77.75,0,0,0,256.14,329.46Zm47.38-30.36a10.34,10.34,0,1,1-3,7.32A10.43,10.43,0,0,1,303.52,299.09Zm60.73,60.72a10.35,10.35,0,1,1,3-7.32A10.43,10.43,0,0,1,364.25,359.82Zm-.14-60.59a10.35,10.35,0,0,1,0,14.64L318.3,359.68A10.35,10.35,0,0,1,303.66,345l45.81-45.81A10.35,10.35,0,0,1,364.11,299.23Z"/><path id="_Compound_Path_2" data-name="&lt;Compound Path&gt;" class="cls-6" d="M235.44,329.46A98.56,98.56,0,0,1,333.88,231q2.7,0,5.36.15V123.6a10.35,10.35,0,0,0-10.35-10.35H152.44a10.35,10.35,0,0,0-10.35,10.35V398.49a10.35,10.35,0,0,0,10.35,10.35h123.3A98.37,98.37,0,0,1,235.44,329.46ZM200.62,168.23h73.3a10.35,10.35,0,1,1,0,20.7h-73.3a10.35,10.35,0,1,1,0-20.7Zm0,55h73.3a10.35,10.35,0,1,1,0,20.7h-73.3a10.35,10.35,0,0,1,0-20.7Zm18.33,75.68H200.62a10.35,10.35,0,0,1,0-20.7h18.33a10.35,10.35,0,0,1,0,20.7Z"/></g></g></svg>