<?xml version="1.0" encoding="utf-8"?>
<!-- Generator: Adobe Illustrator 17.1.0, SVG Export Plug-In . SVG Version: 6.00 Build 0)  -->
<!DOCTYPE svg PUBLIC "-//W3C//DTD SVG 1.1//EN" "http://www.w3.org/Graphics/SVG/1.1/DTD/svg11.dtd">
<svg version="1.1" id="Layer_1" xmlns="http://www.w3.org/2000/svg" xmlns:xlink="http://www.w3.org/1999/xlink" x="0px" y="0px"
	 viewBox="0 0 14.4 17.8" enable-background="new 0 0 14.4 17.8" xml:space="preserve">
<g>
	<rect x="2" y="2.7" fill="#FFFFFF" width="8.8" height="0.7"/>
	<rect x="2" y="4.9" fill="#FFFFFF" width="7.7" height="0.7"/>
	<rect x="2" y="7" fill="#FFFFFF" width="8.8" height="0.7"/>
	<rect x="2" y="9.2" fill="#FFFFFF" width="5.7" height="0.7"/>
	<rect x="2" y="11.4" fill="#FFFFFF" width="3.6" height="0.7"/>
	<path fill="#FFFFFF" d="M12.7,11.4V1.8c0-1-0.8-1.8-1.8-1.8H1.8C0.8,0,0,0.8,0,1.8v12.6c0,1,0.8,1.8,1.8,1.8h6.3
		c0.6,1,1.7,1.7,2.9,1.7c1.9,0,3.4-1.5,3.4-3.4C14.4,13.1,13.7,12,12.7,11.4z M1.8,15.6c-0.7,0-1.3-0.6-1.3-1.3V1.8
		c0-0.7,0.6-1.3,1.3-1.3h9.1c0.7,0,1.3,0.6,1.3,1.3v9.4C11.8,11,11.4,11,11,11c-1.9,0-3.4,1.5-3.4,3.4c0,0.4,0.1,0.9,0.2,1.3H1.8z
		 M11,17.3c-0.9,0-1.8-0.4-2.3-1.1c-0.1-0.2-0.2-0.3-0.3-0.5c-0.2-0.4-0.3-0.8-0.3-1.3c0-1.6,1.3-2.9,2.9-2.9c0.4,0,0.8,0.1,1.1,0.2
		c0.2,0.1,0.4,0.2,0.5,0.3c0.8,0.5,1.3,1.4,1.3,2.4C13.9,16,12.6,17.3,11,17.3z"/>
	<g>
		<path fill="#FFFFFF" d="M10.9,13.5c0,0.5-0.4,0.9-0.9,0.9c-0.5,0-0.9-0.3-0.9-0.9s0.4-0.9,0.9-0.9C10.5,12.7,10.9,13,10.9,13.5z
			 M12.4,12.9l-2.1,3.2l-0.5-0.3l2.1-3.2L12.4,12.9z M9.8,13.5c0,0.2,0.1,0.3,0.3,0.3c0.2,0,0.2-0.2,0.2-0.3c0-0.2,0-0.3-0.2-0.3
			C9.8,13.2,9.8,13.4,9.8,13.5z M13,15.1c0,0.5-0.4,0.9-0.9,0.9c-0.5,0-0.9-0.3-0.9-0.9c0-0.5,0.4-0.9,0.9-0.9
			C12.6,14.3,13,14.6,13,15.1z M11.9,15.1c0,0.2,0.1,0.3,0.3,0.3s0.2-0.2,0.2-0.3c0-0.2,0-0.3-0.2-0.3S11.9,14.9,11.9,15.1z"/>
	</g>
</g>
</svg>
