<svg xmlns="http://www.w3.org/2000/svg" xmlns:xlink="http://www.w3.org/1999/xlink" viewBox="0 0 611 585"><defs><style>.cls-1{fill:none;}.cls-2{fill:#698714;}.cls-3{fill:#aaa;}.cls-4{clip-path:url(#clip-path);}.cls-5{opacity:0.4;}.cls-6{fill:#fff;}</style><clipPath id="clip-path"><circle id="_Clipping_Path_" data-name="&lt;Clipping Path&gt;" class="cls-1" cx="256" cy="256" r="256"/></clipPath></defs><title>Unit Master_default</title><g id="Layer_4" data-name="Layer 4"><circle id="_Path_" data-name="&lt;Path&gt;" class="cls-2" cx="256" cy="256" r="256"/><circle id="_Path_2" data-name="&lt;Path&gt;" class="cls-3" cx="256" cy="256" r="256"/><g id="_Clip_Group_" data-name="&lt;Clip Group&gt;"><g class="cls-4"><polygon id="_Path_3" data-name="&lt;Path&gt;" class="cls-5" points="137 166 143 366 375 585 572.88 510.42 611 467 366 143 172 147 137 166"/></g></g><path id="_Path_4" data-name="&lt;Path&gt;" class="cls-6" d="M680,198"/></g><g id="Layer_3" data-name="Layer 3"><path id="_Compound_Path_" data-name="&lt;Compound Path&gt;" class="cls-6" d="M329.72,130.12H182.28a52.82,52.82,0,0,0-52.76,52.76V329.12a52.82,52.82,0,0,0,52.76,52.76H329.72a52.82,52.82,0,0,0,52.76-52.76V182.88A52.82,52.82,0,0,0,329.72,130.12Zm-27.24,126h0a2.3,2.3,0,0,1-2.21-1.68c-4.82-17.21-10.05-28.13-28.94-27.55a2.29,2.29,0,0,0-2.21,2.3v90.17a2.3,2.3,0,0,0,2.3,2.3h8.16a2.3,2.3,0,0,1,2.3,2.3v.07a2.3,2.3,0,0,1-2.3,2.3H232.46a2.3,2.3,0,0,1-2.3-2.3V324a2.3,2.3,0,0,1,2.3-2.3h8.16a2.3,2.3,0,0,0,2.3-2.3V229.23a2.29,2.29,0,0,0-2.21-2.3c-18.88-.58-24.12,10.35-28.94,27.55a2.3,2.3,0,0,1-2.21,1.68h0a2.3,2.3,0,0,1-2.3-2.41l1.34-29.18a2.3,2.3,0,0,1,2.3-2.2h90.26a2.3,2.3,0,0,1,2.3,2.2l1.34,29.18A2.3,2.3,0,0,1,302.48,256.16Zm4.38-51.2L294,215.58a3.22,3.22,0,0,1-4.1-5l6.55-5.4H215.36l6.72,5.37a3.22,3.22,0,0,1-4,5l-13.64-10.89h0l0,0,0,0a3.21,3.21,0,0,1-.42-.41l0,0h0l-.08-.12a3.19,3.19,0,0,1-.28-.41c0-.09-.07-.18-.11-.27s-.09-.2-.13-.31a3.09,3.09,0,0,1-.07-.32c0-.1,0-.19-.06-.28s0-.21,0-.31,0,0,0-.07,0-.09,0-.14a3.22,3.22,0,0,1,2-3L218,188.4a3.22,3.22,0,0,1,4.1,5l-6.55,5.4h81.06l-6.72-5.37a3.22,3.22,0,0,1,4-5l13.69,10.93h0c.08.07.15.15.23.22a3.31,3.31,0,0,1,.24.24h0l.06.09a3.22,3.22,0,0,1,.29.44c0,.08.07.17.11.26a3.27,3.27,0,0,1,.13.32,3.19,3.19,0,0,1,.07.32c0,.1,0,.19.06.29s0,.21,0,.31,0,0,0,.07,0,.09,0,.13A3.22,3.22,0,0,1,306.86,205Z"/></g></svg>